<svg width="24" height="24" viewBox="0 0 24 24" fill="none" xmlns="http://www.w3.org/2000/svg">
<path fill-rule="evenodd" clip-rule="evenodd" d="M18.6743 7.33003C18.8853 7.54116 19.0039 7.82749 19.0039 8.12604C19.0039 8.42459 18.8853 8.71092 18.6743 8.92206L10.2352 17.3611C10.1237 17.4726 9.99129 17.5611 9.84556 17.6215C9.69984 17.6819 9.54364 17.7129 9.38591 17.7129C9.22817 17.7129 9.07198 17.6819 8.92625 17.6215C8.78053 17.5611 8.64812 17.4726 8.5366 17.3611L4.34373 13.169C4.23619 13.0651 4.15042 12.9409 4.09141 12.8035C4.0324 12.6661 4.00134 12.5184 4.00004 12.3689C3.99874 12.2194 4.02723 12.0711 4.08384 11.9328C4.14045 11.7944 4.22406 11.6687 4.32977 11.563C4.43548 11.4573 4.56119 11.3737 4.69956 11.3171C4.83793 11.2604 4.98619 11.232 5.13569 11.2333C5.28519 11.2346 5.43293 11.2656 5.57029 11.3246C5.70766 11.3836 5.8319 11.4694 5.93576 11.5769L9.38553 15.0267L17.0815 7.33003C17.186 7.2254 17.3102 7.1424 17.4468 7.08577C17.5835 7.02915 17.7299 7 17.8779 7C18.0258 7 18.1722 7.02915 18.3089 7.08577C18.4455 7.1424 18.5697 7.2254 18.6743 7.33003Z" fill="#745AD3"/>
</svg>
