<svg width="52" height="52" viewBox="0 0 52 52" fill="none" xmlns="http://www.w3.org/2000/svg">
<path d="M50.2927 24.9136C48.0419 23.2061 38.2628 28.4837 26.0001 28.4837C13.6598 28.4837 4.03595 23.2061 1.70759 24.9136C-1.55211 27.3971 8.38222 35.2359 26.0001 35.2359C44.0837 35.2359 53.3971 27.2419 50.2927 24.9136Z" fill="#BA9BF0"/>
<path d="M42.5315 24.2926V6.90753C42.5315 5.51051 41.7553 4.26872 40.5135 3.64783C40.0479 3.41499 39.5046 3.25977 38.9613 3.25977C38.1852 3.25977 37.4091 3.4926 36.7106 4.03588L29.4927 9.77917C27.4747 11.409 24.6031 11.409 22.5852 9.77917L15.3673 4.1135C14.2807 3.25977 12.8061 3.10454 11.5643 3.72544C10.3225 4.34633 9.54639 5.58812 9.54639 6.98514V24.3702C13.815 25.5344 19.6359 27.009 26.0777 27.009C32.3643 26.9314 38.1852 25.3792 42.5315 24.2926Z" fill="#BA9BF0"/>
<path d="M46.6448 39.5046H5.35522C4.88955 39.5046 4.5791 39.8927 4.5791 40.2808C4.5791 40.7464 4.88955 41.0569 5.35522 41.0569H7.1403C7.52836 45.3255 11.0985 48.6628 15.5224 48.6628C19.8687 48.6628 23.5164 45.3255 23.9045 41.0569H28.1731C28.5612 45.3255 32.1313 48.6628 36.5552 48.6628C40.9015 48.6628 44.5493 45.3255 44.9373 41.0569H46.8C47.2657 41.0569 47.5761 40.7464 47.5761 40.2808C47.4209 39.8927 47.1104 39.5046 46.6448 39.5046Z" fill="#5E3ECA"/>
</svg>
