<svg width="56" height="56" viewBox="0 0 56 56" fill="none" xmlns="http://www.w3.org/2000/svg">
<g clip-path="url(#clip0_147_687)">
<path d="M36.583 37.2429C36.712 35.8869 36.673 34.5359 36.477 33.2169L39.526 31.8579C39.238 30.3809 38.785 28.9239 38.157 27.5139C37.529 26.1049 36.749 24.7939 35.845 23.5909L32.794 24.9489C31.945 23.9219 30.967 22.9899 29.873 22.1779L31.069 19.0619C29.82 18.2219 28.47 17.5119 27.029 16.9589C25.594 16.4079 24.12 16.0269 22.621 15.8159L21.424 18.9349C20.068 18.8059 18.717 18.8449 17.398 19.0409L16.047 16.0069C13.029 16.5999 10.209 17.8799 7.788 19.7089L9.13 22.7229C8.101 23.5719 7.169 24.5509 6.357 25.6439L3.249 24.4519C2.401 25.6979 1.69 27.0489 1.136 28.4889C0.587 29.9289 0.211 31.4069 0 32.8959L3.116 34.0919C2.987 35.4479 3.026 36.7989 3.222 38.1179L0.173 39.4759C0.461 40.9539 0.914 42.4099 1.542 43.8199C2.171 45.2299 2.95 46.5399 3.855 47.7429L6.904 46.3849C7.753 47.4129 8.731 48.3449 9.826 49.1569L8.63 52.2749C9.879 53.1159 11.229 53.8249 12.67 54.3779C14.105 54.9289 15.579 55.3099 17.078 55.5209L18.275 52.4019C19.631 52.5299 20.982 52.4909 22.301 52.2949L23.652 55.3279C26.67 54.7349 29.492 53.4549 31.912 51.6259L30.569 48.6119C31.597 47.7629 32.53 46.7849 33.342 45.6909L36.448 46.8829C37.296 45.6369 38.007 44.2859 38.561 42.8469C39.114 41.4069 39.489 39.9279 39.7 38.4379L36.583 37.2429ZM28.3 38.9099C26.509 43.5779 21.274 45.9079 16.605 44.1169C11.942 42.3269 9.609 37.0929 11.399 32.4259C13.19 27.7589 18.425 25.4289 23.091 27.2179C27.758 29.0079 30.09 34.2439 28.3 38.9099Z" fill="#5E3ECA"/>
<path d="M53.4648 12.395C53.4648 11.791 53.4028 11.2 53.2968 10.626L55.6338 9.27601C55.0678 7.12401 53.9438 5.19701 52.4068 3.67501L50.0638 5.02801C49.1698 4.26201 48.1338 3.66201 47.0008 3.26201V0.559014C45.9688 0.276014 44.8878 0.114014 43.7688 0.114014C42.6498 0.114014 41.5698 0.278014 40.5368 0.559014V3.26301C39.4038 3.66301 38.3688 4.26401 37.4738 5.02901L35.1298 3.67601C33.5948 5.19801 32.4698 7.12501 31.9028 9.27701L34.2408 10.627C34.1348 11.202 34.0718 11.791 34.0718 12.396C34.0718 13.001 34.1348 13.591 34.2408 14.165L31.9028 15.515C32.4698 17.667 33.5948 19.595 35.1298 21.116L37.4728 19.763C38.3678 20.529 39.4028 21.129 40.5358 21.529V24.233C41.5688 24.515 42.6488 24.678 43.7678 24.678C44.8868 24.678 45.9688 24.514 46.9998 24.233V21.529C48.1328 21.129 49.1688 20.528 50.0628 19.763L52.4058 21.116C53.9428 19.594 55.0668 17.667 55.6328 15.515L53.2958 14.165C53.4028 13.589 53.4648 13 53.4648 12.395ZM43.7698 16.921C41.2698 16.921 39.2428 14.895 39.2428 12.396C39.2428 9.89701 41.2698 7.87001 43.7698 7.87001C46.2668 7.87001 48.2938 9.89601 48.2938 12.395C48.2938 14.894 46.2668 16.921 43.7698 16.921Z" fill="#BA9BF0"/>
</g>
<defs>
<clipPath id="clip0_147_687">
<rect width="55.634" height="55.634" fill="white"/>
</clipPath>
</defs>
</svg>
