<svg width="631" height="728" viewBox="0 0 631 728" fill="none" xmlns="http://www.w3.org/2000/svg">
<g opacity="0.2">
<path d="M728.809 566.867C685.82 603.235 645.787 583.097 631.144 568.482C663.911 612.929 735.583 704.924 760.135 717.329C784.687 729.734 817.894 715.139 831.429 706.291C861.361 616.122 921.932 431.622 924.757 414.978C927.582 398.334 917.978 400.271 912.823 403.32C869.397 442.682 771.798 530.499 728.809 566.867Z" fill="url(#paint0_linear_147_1097)"/>
<path opacity="0.8" d="M715.191 653.384L329.919 193.072L270.609 246.149L337.15 327.009L239.569 416.398L166.944 339.856L107.634 392.932C170.027 468.807 308.679 635.967 348.91 686.461C389.141 736.955 430.655 749.21 446.383 749.026C486.213 751.863 591.202 754.377 691.449 761.728C780.243 768.24 809.643 740.053 831.426 706.292C793.492 722.969 740.08 683.296 715.191 653.384Z" fill="#3A2380"/>
<rect x="167.729" y="298.014" width="85.2166" height="85.2166" transform="rotate(-131.494 167.729 298.014)" fill="#B8A7F2"/>
<rect x="95.8713" y="216.778" width="85.2166" height="85.2166" transform="rotate(-131.494 95.8713 216.778)" fill="#98A2AF"/>
<rect x="239.587" y="379.254" width="85.2166" height="85.2166" transform="rotate(-131.494 239.587 379.254)" fill="#6E54C9"/>
<rect x="248.967" y="226.158" width="85.2166" height="85.2166" transform="rotate(-131.494 248.967 226.158)" fill="#1A1332"/>
<rect x="86.489" y="369.874" width="85.2166" height="85.2166" transform="rotate(-131.494 86.489 369.874)" fill="#98A2AF"/>
</g>
<rect x="167.671" y="297.481" width="85.2166" height="85.2166" transform="rotate(-131.494 167.671 297.481)" fill="#483298"/>
<rect x="95.8137" y="216.245" width="85.2166" height="85.2166" transform="rotate(-131.494 95.8137 216.245)" fill="#281A5B"/>
<rect x="239.53" y="378.721" width="85.2166" height="85.2166" transform="rotate(-131.494 239.53 378.721)" fill="#2D1D63"/>
<rect opacity="0.6" x="248.909" y="225.625" width="85.2166" height="85.2166" transform="rotate(-131.494 248.909 225.625)" fill="#442D94"/>
<rect x="86.4319" y="369.341" width="85.2166" height="85.2166" transform="rotate(-131.494 86.4319 369.341)" fill="#251758"/>
<defs>
<linearGradient id="paint0_linear_147_1097" x1="801.668" y1="623.112" x2="948.391" y2="458.588" gradientUnits="userSpaceOnUse">
<stop stop-color="#8992A1"/>
<stop offset="1" stop-color="#95A1B2"/>
</linearGradient>
</defs>
</svg>
