<svg width="1295" height="149" viewBox="0 0 1295 149" fill="none" xmlns="http://www.w3.org/2000/svg">
<path opacity="0.5" d="M1295 146.611H1127.26L1154.21 109.527H1190.43C1199.06 109.527 1209.19 109.527 1216.09 109.958C1212.21 104.784 1206.17 95.944 1201.43 89.0446L1175.56 50.8826L1107.86 146.611H1055.03L1147.53 16.1703C1153.56 7.76174 1162.4 0 1176.42 0C1189.78 0 1198.62 7.11494 1204.88 16.1703L1295 146.611Z" fill="white"/>
<path opacity="0.5" d="M913.834 59.9385H992.314C1027.46 59.9385 1046.43 73.0903 1046.43 99.3941C1046.43 128.932 1028.54 146.611 984.552 146.611H850.23L878.906 109.527H988.002C998.566 109.527 1003.31 106.509 1003.31 98.9629C1003.31 91.6323 998.566 88.6138 988.002 88.6138H909.522C872.438 88.6138 855.405 72.0123 855.405 47.2178C855.405 20.0516 873.516 2.37207 917.283 2.37207H1042.55L1013.87 39.8872H913.834C903.485 39.8872 898.526 42.4745 898.526 49.805C898.526 57.1356 903.485 59.9385 913.834 59.9385Z" fill="white"/>
<path opacity="0.5" d="M833.345 2.37207V83.6549C833.345 127.207 803.376 148.983 743.438 148.983C674.013 148.983 644.044 127.207 644.044 83.6549V2.37207H688.459V83.6549C688.459 105 697.514 111.899 743.438 111.899C777.719 111.899 788.499 103.922 788.499 83.6549V2.37207H833.345Z" fill="white"/>
<path d="M492.918 59.9385H571.398C606.541 59.9385 625.515 73.0903 625.515 99.3941C625.515 128.932 607.619 146.611 563.636 146.611H429.314L457.99 109.527H567.086C577.65 109.527 582.394 106.509 582.394 98.9629C582.394 91.6323 577.65 88.6138 567.086 88.6138H488.606C451.522 88.6138 434.489 72.0123 434.489 47.2178C434.489 20.0516 452.6 2.37207 496.367 2.37207H621.634L592.958 39.8872H492.918C482.569 39.8872 477.61 42.4745 477.61 49.805C477.61 57.1356 482.569 59.9385 492.918 59.9385Z" fill="white"/>
<path d="M366.506 2.37207H422.564L336.969 98.9629V146.611H292.123V98.7472L204.156 2.37207H261.507L296.004 42.4745C300.531 47.649 312.605 60.8009 315.624 65.113C318.427 61.0165 323.386 54.7639 333.735 42.2589L366.506 2.37207Z" fill="white"/>
<path d="M63.6033 59.9385H142.083C177.227 59.9385 196.2 73.0903 196.2 99.3941C196.2 128.932 178.305 146.611 134.322 146.611H0L28.6754 109.527H137.771C148.336 109.527 153.079 106.509 153.079 98.9629C153.079 91.6323 148.336 88.6138 137.771 88.6138H59.2912C22.2073 88.6138 5.17451 72.0123 5.17451 47.2178C5.17451 20.0516 23.2853 2.37207 67.053 2.37207H192.319L163.644 39.8872H63.6033C53.2543 39.8872 48.2954 42.4745 48.2954 49.805C48.2954 57.1356 53.2543 59.9385 63.6033 59.9385Z" fill="white"/>
</svg>
