<svg width="20" height="20" viewBox="0 0 20 20" fill="none" xmlns="http://www.w3.org/2000/svg">
<path d="M10.0002 1.01993e-06C12.2096 0.00242754 14.3278 0.881181 15.89 2.44346C17.4523 4.00574 18.3311 6.12394 18.3335 8.33334C18.3335 12.735 11.3335 18.7775 10.5385 19.4525L10.0002 19.9075L9.46183 19.4525C8.66683 18.7775 1.66683 12.735 1.66683 8.33334C1.66926 6.12394 2.54801 4.00574 4.11029 2.44346C5.67256 0.88118 7.79077 0.00242716 10.0002 1.01993e-06ZM10.0002 12.5C10.8243 12.5 11.6298 12.2556 12.315 11.7978C13.0002 11.34 13.5343 10.6892 13.8497 9.92785C14.165 9.16649 14.2475 8.32871 14.0868 7.52046C13.926 6.71221 13.5292 5.96978 12.9464 5.38706C12.3637 4.80434 11.6213 4.4075 10.813 4.24673C10.0048 4.08596 9.16701 4.16847 8.40565 4.48384C7.64429 4.7992 6.99355 5.33325 6.53571 6.01846C6.07787 6.70366 5.8335 7.50925 5.8335 8.33334C5.83482 9.438 6.27423 10.497 7.05535 11.2782C7.83646 12.0593 8.8955 12.4987 10.0002 12.5Z" fill="#7E65D6"/>
<path d="M10 10.8335C8.61929 10.8335 7.5 9.71421 7.5 8.3335C7.5 6.95279 8.61929 5.8335 10 5.8335C11.3807 5.8335 12.5 6.95279 12.5 8.3335C12.5 9.71421 11.3807 10.8335 10 10.8335Z" fill="#7E65D6"/>
</svg>
