<svg width="1440" height="496" viewBox="0 0 1440 496" fill="none" xmlns="http://www.w3.org/2000/svg">
<path opacity="0.1" fill-rule="evenodd" clip-rule="evenodd" d="M1400.4 0.773889L1440 0.773889L1440 9.97657e-05L0 0L-2.71897e-09 0.773791L35.4857 0.773791L35.4857 30.9516L-1.08759e-07 30.9516L-1.11478e-07 31.7254L35.4857 31.7254L35.4857 61.9033L-2.17517e-07 61.9033L-2.20236e-07 62.6771L35.4857 62.6771L35.4857 92.8549L-3.26276e-07 92.8549L-3.28995e-07 93.6287L35.4857 93.6287L35.4857 123.807L-4.35034e-07 123.807L-4.37753e-07 124.58L35.4857 124.58L35.4857 154.758L-5.43793e-07 154.758L-5.46512e-07 155.532L35.4857 155.532L35.4857 185.71L-6.52552e-07 185.71L-6.55271e-07 186.484L35.4857 186.484L35.4857 216.661L-7.6131e-07 216.661L-7.64029e-07 217.435L35.4857 217.435L35.4857 247.613L-8.70069e-07 247.613L-8.72788e-07 248.387L35.4857 248.387L35.4857 278.565L-9.78828e-07 278.565L-9.81546e-07 279.339L35.4857 279.339L35.4857 309.516L-1.08759e-06 309.516L-1.0903e-06 310.29L35.4857 310.29L35.4857 340.468L-1.19634e-06 340.468L-1.19906e-06 341.242L35.4857 341.242L35.4857 371.42L-1.3051e-06 371.42L-1.30782e-06 372.193L35.4857 372.193L35.4857 402.371L-1.41386e-06 402.371L-1.41658e-06 403.145L35.4857 403.145L35.4857 433.323L-1.52262e-06 433.323L-1.52534e-06 434.097L35.4857 434.097L35.4857 464.275L-1.63138e-06 464.275L-1.6341e-06 465.048L35.4857 465.048L35.4857 495.226L-1.74014e-06 495.226L-1.74286e-06 496L1440 496L1440 495.226L1400.4 495.226L1400.4 465.048L1440 465.048L1440 464.275L1400.4 464.275L1400.4 434.097L1440 434.097L1440 433.323L1400.4 433.323L1400.4 403.145L1440 403.145L1440 402.371L1400.4 402.371L1400.4 372.193L1440 372.193L1440 371.42L1400.4 371.42L1400.4 341.242L1440 341.242L1440 340.468L1400.4 340.468L1400.4 310.29L1440 310.29L1440 309.516L1400.4 309.516L1400.4 279.339L1440 279.339L1440 278.565L1400.4 278.565L1400.4 248.387L1440 248.387L1440 247.613L1400.4 247.613L1400.4 217.435L1440 217.435L1440 216.661L1400.4 216.661L1400.4 186.484L1440 186.484L1440 185.71L1400.4 185.71L1400.4 155.532L1440 155.532L1440 154.758L1400.4 154.758L1400.4 124.58L1440 124.58L1440 123.807L1400.4 123.807L1400.4 93.6287L1440 93.6287L1440 92.8549L1400.4 92.8549L1400.4 62.6771L1440 62.6771L1440 61.9033L1400.4 61.9033L1400.4 31.7254L1440 31.7254L1440 30.9516L1400.4 30.9516L1400.4 0.773889ZM1399.37 0.773889L1360.29 0.773889L1360.29 30.9516L1399.37 30.9516L1399.37 0.773889ZM1359.26 0.773889L1320.17 0.773881L1320.17 30.9516L1359.26 30.9516L1359.26 0.773889ZM1319.14 0.773881L1280.06 0.773881L1280.06 30.9516L1319.14 30.9516L1319.14 0.773881ZM1279.03 0.773881L1239.94 0.77388L1239.94 30.9516L1279.03 30.9516L1279.03 0.773881ZM1238.91 0.77388L1199.83 0.773873L1199.83 30.9516L1238.91 30.9516L1238.91 0.77388ZM1198.8 0.773873L1159.71 0.773872L1159.71 30.9516L1198.8 30.9516L1198.8 0.773873ZM1158.69 0.773872L1119.6 0.773872L1119.6 30.9516L1158.69 30.9516L1158.69 0.773872ZM1118.57 0.773872L1079.49 0.773864L1079.49 30.9516L1118.57 30.9516L1118.57 0.773872ZM1078.46 0.773864L1039.37 0.773864L1039.37 30.9516L1078.46 30.9516L1078.46 0.773864ZM1038.34 0.773864L999.257 0.773856L999.257 30.9516L1038.34 30.9516L1038.34 0.773864ZM998.229 0.773856L959.143 0.773856L959.143 30.9516L998.229 30.9516L998.229 0.773856ZM958.114 0.773856L919.029 0.773856L919.029 30.9516L958.114 30.9516L958.114 0.773856ZM918 0.773856L878.914 0.773848L878.914 30.9516L918 30.9516L918 0.773856ZM877.886 0.773848L838.8 0.773848L838.8 30.9516L877.886 30.9516L877.886 0.773848ZM837.771 0.773848L798.686 0.773848L798.686 30.9516L837.771 30.9516L837.771 0.773848ZM797.657 0.773848L758.571 0.77384L758.571 30.9516L797.657 30.9516L797.657 0.773848ZM757.543 0.77384L718.457 0.77384L718.457 30.9516L757.543 30.9516L757.543 0.77384ZM717.429 0.77384L678.343 0.77384L678.343 30.9516L717.429 30.9516L717.429 0.77384ZM677.314 0.77384L638.229 0.773832L638.229 30.9516L677.314 30.9516L677.314 0.77384ZM637.2 0.773832L598.114 0.773832L598.114 30.9516L637.2 30.9516L637.2 0.773832ZM597.086 0.773832L558 0.773832L558 30.9516L597.086 30.9516L597.086 0.773832ZM556.971 0.773832L517.886 0.773824L517.886 30.9516L556.971 30.9516L556.971 0.773832ZM516.857 0.773824L477.771 0.773824L477.771 30.9516L516.857 30.9516L516.857 0.773824ZM476.743 0.773824L437.657 0.773823L437.657 30.9516L476.743 30.9516L476.743 0.773824ZM436.629 0.773823L397.543 0.773816L397.543 30.9516L436.629 30.9516L436.629 0.773823ZM396.514 0.773816L357.429 0.773815L357.429 30.9516L396.514 30.9516L396.514 0.773816ZM356.4 0.773815L317.314 0.773815L317.314 30.9516L356.4 30.9516L356.4 0.773815ZM316.286 0.773815L277.2 0.773807L277.2 30.9516L316.286 30.9516L316.286 0.773815ZM276.171 0.773807L237.086 0.773807L237.086 30.9516L276.171 30.9516L276.171 0.773807ZM236.057 0.773807L196.971 0.773807L196.971 30.9516L236.057 30.9516L236.057 0.773807ZM195.943 0.773807L156.857 0.773799L156.857 30.9516L195.943 30.9516L195.943 0.773807ZM155.829 0.773799L116.743 0.773799L116.743 30.9516L155.829 30.9516L155.829 0.773799ZM115.714 0.773799L76.6286 0.773799L76.6286 30.9516L115.714 30.9516L115.714 0.773799ZM75.6 0.773799L36.5143 0.773791L36.5143 30.9516L75.6 30.9516L75.6 0.773799ZM1360.29 31.7254L1399.37 31.7254L1399.37 61.9033L1360.29 61.9033L1360.29 31.7254ZM1360.29 62.6771L1399.37 62.6771L1399.37 92.8549L1360.29 92.8549L1360.29 62.6771ZM1360.29 93.6287L1399.37 93.6287L1399.37 123.807L1360.29 123.807L1360.29 93.6287ZM1360.29 124.58L1399.37 124.58L1399.37 154.758L1360.29 154.758L1360.29 124.58ZM1360.29 155.532L1399.37 155.532L1399.37 185.71L1360.29 185.71L1360.29 155.532ZM1360.29 186.484L1399.37 186.484L1399.37 216.661L1360.29 216.661L1360.29 186.484ZM1360.29 217.435L1399.37 217.435L1399.37 247.613L1360.29 247.613L1360.29 217.435ZM1360.29 248.387L1399.37 248.387L1399.37 278.565L1360.29 278.565L1360.29 248.387ZM1360.29 279.339L1399.37 279.339L1399.37 309.516L1360.29 309.516L1360.29 279.339ZM1360.29 310.29L1399.37 310.29L1399.37 340.468L1360.29 340.468L1360.29 310.29ZM1360.29 341.242L1399.37 341.242L1399.37 371.42L1360.29 371.42L1360.29 341.242ZM1360.29 372.193L1399.37 372.193L1399.37 402.371L1360.29 402.371L1360.29 372.193ZM1360.29 403.145L1399.37 403.145L1399.37 433.323L1360.29 433.323L1360.29 403.145ZM1360.29 434.097L1399.37 434.097L1399.37 464.275L1360.29 464.275L1360.29 434.097ZM1360.29 465.048L1399.37 465.048L1399.37 495.226L1360.29 495.226L1360.29 465.048ZM1359.26 495.226L1359.26 465.048L1320.17 465.048L1320.17 495.226L1359.26 495.226ZM1359.26 464.275L1359.26 434.097L1320.17 434.097L1320.17 464.275L1359.26 464.275ZM1359.26 433.323L1359.26 403.145L1320.17 403.145L1320.17 433.323L1359.26 433.323ZM1359.26 402.371L1359.26 372.193L1320.17 372.193L1320.17 402.371L1359.26 402.371ZM1359.26 371.42L1359.26 341.242L1320.17 341.242L1320.17 371.42L1359.26 371.42ZM1359.26 340.468L1359.26 310.29L1320.17 310.29L1320.17 340.468L1359.26 340.468ZM1359.26 309.516L1359.26 279.339L1320.17 279.339L1320.17 309.516L1359.26 309.516ZM1359.26 278.565L1359.26 248.387L1320.17 248.387L1320.17 278.565L1359.26 278.565ZM1359.26 247.613L1359.26 217.435L1320.17 217.435L1320.17 247.613L1359.26 247.613ZM1359.26 216.661L1359.26 186.484L1320.17 186.484L1320.17 216.661L1359.26 216.661ZM1359.26 185.71L1359.26 155.532L1320.17 155.532L1320.17 185.71L1359.26 185.71ZM1359.26 154.758L1359.26 124.58L1320.17 124.58L1320.17 154.758L1359.26 154.758ZM1359.26 123.807L1359.26 93.6287L1320.17 93.6287L1320.17 123.807L1359.26 123.807ZM1359.26 92.8549L1359.26 62.6771L1320.17 62.6771L1320.17 92.8549L1359.26 92.8549ZM1359.26 61.9033L1359.26 31.7254L1320.17 31.7254L1320.17 61.9033L1359.26 61.9033ZM1280.06 31.7254L1319.14 31.7254L1319.14 61.9033L1280.06 61.9033L1280.06 31.7254ZM1280.06 62.6771L1319.14 62.6771L1319.14 92.8549L1280.06 92.8549L1280.06 62.6771ZM1280.06 93.6287L1319.14 93.6287L1319.14 123.807L1280.06 123.807L1280.06 93.6287ZM1280.06 124.58L1319.14 124.58L1319.14 154.758L1280.06 154.758L1280.06 124.58ZM1280.06 155.532L1319.14 155.532L1319.14 185.71L1280.06 185.71L1280.06 155.532ZM1280.06 186.484L1319.14 186.484L1319.14 216.661L1280.06 216.661L1280.06 186.484ZM1280.06 217.435L1319.14 217.435L1319.14 247.613L1280.06 247.613L1280.06 217.435ZM1280.06 248.387L1319.14 248.387L1319.14 278.565L1280.06 278.565L1280.06 248.387ZM1280.06 279.339L1319.14 279.339L1319.14 309.516L1280.06 309.516L1280.06 279.339ZM1280.06 310.29L1319.14 310.29L1319.14 340.468L1280.06 340.468L1280.06 310.29ZM1280.06 341.242L1319.14 341.242L1319.14 371.42L1280.06 371.42L1280.06 341.242ZM1280.06 372.193L1319.14 372.193L1319.14 402.371L1280.06 402.371L1280.06 372.193ZM1280.06 403.145L1319.14 403.145L1319.14 433.323L1280.06 433.323L1280.06 403.145ZM1280.06 434.097L1319.14 434.097L1319.14 464.275L1280.06 464.275L1280.06 434.097ZM1280.06 465.048L1319.14 465.048L1319.14 495.226L1280.06 495.226L1280.06 465.048ZM1279.03 495.226L1279.03 465.048L1239.94 465.048L1239.94 495.226L1279.03 495.226ZM1279.03 464.275L1279.03 434.097L1239.94 434.097L1239.94 464.275L1279.03 464.275ZM1279.03 433.323L1279.03 403.145L1239.94 403.145L1239.94 433.323L1279.03 433.323ZM1279.03 402.371L1279.03 372.193L1239.94 372.193L1239.94 402.371L1279.03 402.371ZM1279.03 371.42L1279.03 341.242L1239.94 341.242L1239.94 371.42L1279.03 371.42ZM1279.03 340.468L1279.03 310.29L1239.94 310.29L1239.94 340.468L1279.03 340.468ZM1279.03 309.516L1279.03 279.339L1239.94 279.339L1239.94 309.516L1279.03 309.516ZM1279.03 278.565L1279.03 248.387L1239.94 248.387L1239.94 278.565L1279.03 278.565ZM1279.03 247.613L1279.03 217.435L1239.94 217.435L1239.94 247.613L1279.03 247.613ZM1279.03 216.661L1279.03 186.484L1239.94 186.484L1239.94 216.661L1279.03 216.661ZM1279.03 185.71L1279.03 155.532L1239.94 155.532L1239.94 185.71L1279.03 185.71ZM1279.03 154.758L1279.03 124.58L1239.94 124.58L1239.94 154.758L1279.03 154.758ZM1279.03 123.807L1279.03 93.6287L1239.94 93.6287L1239.94 123.807L1279.03 123.807ZM1279.03 92.8549L1279.03 62.6771L1239.94 62.6771L1239.94 92.8549L1279.03 92.8549ZM1279.03 61.9033L1279.03 31.7254L1239.94 31.7254L1239.94 61.9033L1279.03 61.9033ZM1199.83 31.7254L1238.91 31.7254L1238.91 61.9033L1199.83 61.9033L1199.83 31.7254ZM1199.83 62.6771L1238.91 62.6771L1238.91 92.8549L1199.83 92.8549L1199.83 62.6771ZM1199.83 93.6287L1238.91 93.6287L1238.91 123.807L1199.83 123.807L1199.83 93.6287ZM1199.83 124.58L1238.91 124.58L1238.91 154.758L1199.83 154.758L1199.83 124.58ZM1199.83 155.532L1238.91 155.532L1238.91 185.71L1199.83 185.71L1199.83 155.532ZM1199.83 186.484L1238.91 186.484L1238.91 216.661L1199.83 216.661L1199.83 186.484ZM1199.83 217.435L1238.91 217.435L1238.91 247.613L1199.83 247.613L1199.83 217.435ZM1199.83 248.387L1238.91 248.387L1238.91 278.565L1199.83 278.565L1199.83 248.387ZM1199.83 279.339L1238.91 279.339L1238.91 309.516L1199.83 309.516L1199.83 279.339ZM1199.83 310.29L1238.91 310.29L1238.91 340.468L1199.83 340.468L1199.83 310.29ZM1199.83 341.242L1238.91 341.242L1238.91 371.42L1199.83 371.42L1199.83 341.242ZM1199.83 372.193L1238.91 372.193L1238.91 402.371L1199.83 402.371L1199.83 372.193ZM1199.83 403.145L1238.91 403.145L1238.91 433.323L1199.83 433.323L1199.83 403.145ZM1199.83 434.097L1238.91 434.097L1238.91 464.275L1199.83 464.275L1199.83 434.097ZM1199.83 465.048L1238.91 465.048L1238.91 495.226L1199.83 495.226L1199.83 465.048ZM1198.8 495.226L1198.8 465.048L1159.71 465.048L1159.71 495.226L1198.8 495.226ZM1198.8 464.275L1198.8 434.097L1159.71 434.097L1159.71 464.275L1198.8 464.275ZM1198.8 433.323L1198.8 403.145L1159.71 403.145L1159.71 433.323L1198.8 433.323ZM1198.8 402.371L1198.8 372.193L1159.71 372.193L1159.71 402.371L1198.8 402.371ZM1198.8 371.42L1198.8 341.242L1159.71 341.242L1159.71 371.42L1198.8 371.42ZM1198.8 340.468L1198.8 310.29L1159.71 310.29L1159.71 340.468L1198.8 340.468ZM1198.8 309.516L1198.8 279.339L1159.71 279.339L1159.71 309.516L1198.8 309.516ZM1198.8 278.565L1198.8 248.387L1159.71 248.387L1159.71 278.565L1198.8 278.565ZM1198.8 247.613L1198.8 217.435L1159.71 217.435L1159.71 247.613L1198.8 247.613ZM1198.8 216.661L1198.8 186.484L1159.71 186.484L1159.71 216.661L1198.8 216.661ZM1198.8 185.71L1198.8 155.532L1159.71 155.532L1159.71 185.71L1198.8 185.71ZM1198.8 154.758L1198.8 124.58L1159.71 124.58L1159.71 154.758L1198.8 154.758ZM1198.8 123.807L1198.8 93.6287L1159.71 93.6287L1159.71 123.807L1198.8 123.807ZM1198.8 92.8549L1198.8 62.6771L1159.71 62.6771L1159.71 92.8549L1198.8 92.8549ZM1198.8 61.9033L1198.8 31.7254L1159.71 31.7254L1159.71 61.9033L1198.8 61.9033ZM1119.6 31.7254L1158.69 31.7254L1158.69 61.9033L1119.6 61.9033L1119.6 31.7254ZM1119.6 62.6771L1158.69 62.6771L1158.69 92.8549L1119.6 92.8549L1119.6 62.6771ZM1119.6 93.6287L1158.69 93.6287L1158.69 123.807L1119.6 123.807L1119.6 93.6287ZM1119.6 124.58L1158.69 124.58L1158.69 154.758L1119.6 154.758L1119.6 124.58ZM1119.6 155.532L1158.69 155.532L1158.69 185.71L1119.6 185.71L1119.6 155.532ZM1119.6 186.484L1158.69 186.484L1158.69 216.661L1119.6 216.661L1119.6 186.484ZM1119.6 217.435L1158.69 217.435L1158.69 247.613L1119.6 247.613L1119.6 217.435ZM1119.6 248.387L1158.69 248.387L1158.69 278.565L1119.6 278.565L1119.6 248.387ZM1119.6 279.339L1158.69 279.339L1158.69 309.516L1119.6 309.516L1119.6 279.339ZM1119.6 310.29L1158.69 310.29L1158.69 340.468L1119.6 340.468L1119.6 310.29ZM1119.6 341.242L1158.69 341.242L1158.69 371.42L1119.6 371.42L1119.6 341.242ZM1119.6 372.193L1158.69 372.193L1158.69 402.371L1119.6 402.371L1119.6 372.193ZM1119.6 403.145L1158.69 403.145L1158.69 433.323L1119.6 433.323L1119.6 403.145ZM1119.6 434.097L1158.69 434.097L1158.69 464.275L1119.6 464.275L1119.6 434.097ZM1119.6 465.048L1158.69 465.048L1158.69 495.226L1119.6 495.226L1119.6 465.048ZM1118.57 495.226L1118.57 465.048L1079.49 465.048L1079.49 495.226L1118.57 495.226ZM1118.57 464.275L1118.57 434.097L1079.49 434.097L1079.49 464.275L1118.57 464.275ZM1118.57 433.323L1118.57 403.145L1079.49 403.145L1079.49 433.323L1118.57 433.323ZM1118.57 402.371L1118.57 372.193L1079.49 372.193L1079.49 402.371L1118.57 402.371ZM1118.57 371.42L1118.57 341.242L1079.49 341.242L1079.49 371.42L1118.57 371.42ZM1118.57 340.468L1118.57 310.29L1079.49 310.29L1079.49 340.468L1118.57 340.468ZM1118.57 309.516L1118.57 279.339L1079.49 279.339L1079.49 309.516L1118.57 309.516ZM1118.57 278.565L1118.57 248.387L1079.49 248.387L1079.49 278.565L1118.57 278.565ZM1118.57 247.613L1118.57 217.435L1079.49 217.435L1079.49 247.613L1118.57 247.613ZM1118.57 216.661L1118.57 186.484L1079.49 186.484L1079.49 216.661L1118.57 216.661ZM1118.57 185.71L1118.57 155.532L1079.49 155.532L1079.49 185.71L1118.57 185.71ZM1118.57 154.758L1118.57 124.58L1079.49 124.58L1079.49 154.758L1118.57 154.758ZM1118.57 123.807L1118.57 93.6287L1079.49 93.6287L1079.49 123.807L1118.57 123.807ZM1118.57 92.8549L1118.57 62.6771L1079.49 62.6771L1079.49 92.8549L1118.57 92.8549ZM1118.57 61.9033L1118.57 31.7254L1079.49 31.7254L1079.49 61.9033L1118.57 61.9033ZM1039.37 31.7254L1078.46 31.7254L1078.46 61.9033L1039.37 61.9033L1039.37 31.7254ZM1039.37 62.6771L1078.46 62.6771L1078.46 92.8549L1039.37 92.8549L1039.37 62.6771ZM1039.37 93.6287L1078.46 93.6287L1078.46 123.807L1039.37 123.807L1039.37 93.6287ZM1039.37 124.58L1078.46 124.58L1078.46 154.758L1039.37 154.758L1039.37 124.58ZM1039.37 155.532L1078.46 155.532L1078.46 185.71L1039.37 185.71L1039.37 155.532ZM1039.37 186.484L1078.46 186.484L1078.46 216.661L1039.37 216.661L1039.37 186.484ZM1039.37 217.435L1078.46 217.435L1078.46 247.613L1039.37 247.613L1039.37 217.435ZM1039.37 248.387L1078.46 248.387L1078.46 278.565L1039.37 278.565L1039.37 248.387ZM1039.37 279.339L1078.46 279.339L1078.46 309.516L1039.37 309.516L1039.37 279.339ZM1039.37 310.29L1078.46 310.29L1078.46 340.468L1039.37 340.468L1039.37 310.29ZM1039.37 341.242L1078.46 341.242L1078.46 371.42L1039.37 371.42L1039.37 341.242ZM1039.37 372.193L1078.46 372.193L1078.46 402.371L1039.37 402.371L1039.37 372.193ZM1039.37 403.145L1078.46 403.145L1078.46 433.323L1039.37 433.323L1039.37 403.145ZM1039.37 434.097L1078.46 434.097L1078.46 464.275L1039.37 464.275L1039.37 434.097ZM1039.37 465.048L1078.46 465.048L1078.46 495.226L1039.37 495.226L1039.37 465.048ZM1038.34 495.226L1038.34 465.048L999.257 465.048L999.257 495.226L1038.34 495.226ZM1038.34 464.275L1038.34 434.097L999.257 434.097L999.257 464.275L1038.34 464.275ZM1038.34 433.323L1038.34 403.145L999.257 403.145L999.257 433.323L1038.34 433.323ZM1038.34 402.371L1038.34 372.193L999.257 372.193L999.257 402.371L1038.34 402.371ZM1038.34 371.42L1038.34 341.242L999.257 341.242L999.257 371.42L1038.34 371.42ZM1038.34 340.468L1038.34 310.29L999.257 310.29L999.257 340.468L1038.34 340.468ZM1038.34 309.516L1038.34 279.339L999.257 279.339L999.257 309.516L1038.34 309.516ZM1038.34 278.565L1038.34 248.387L999.257 248.387L999.257 278.565L1038.34 278.565ZM1038.34 247.613L1038.34 217.435L999.257 217.435L999.257 247.613L1038.34 247.613ZM1038.34 216.661L1038.34 186.484L999.257 186.484L999.257 216.661L1038.34 216.661ZM1038.34 185.71L1038.34 155.532L999.257 155.532L999.257 185.71L1038.34 185.71ZM1038.34 154.758L1038.34 124.58L999.257 124.58L999.257 154.758L1038.34 154.758ZM1038.34 123.807L1038.34 93.6287L999.257 93.6287L999.257 123.807L1038.34 123.807ZM1038.34 92.8549L1038.34 62.6771L999.257 62.6771L999.257 92.8549L1038.34 92.8549ZM1038.34 61.9033L1038.34 31.7254L999.257 31.7254L999.257 61.9033L1038.34 61.9033ZM959.143 31.7254L998.229 31.7254L998.229 61.9033L959.143 61.9033L959.143 31.7254ZM959.143 62.6771L998.229 62.6771L998.229 92.8549L959.143 92.8549L959.143 62.6771ZM959.143 93.6287L998.229 93.6287L998.229 123.807L959.143 123.807L959.143 93.6287ZM959.143 124.58L998.229 124.58L998.229 154.758L959.143 154.758L959.143 124.58ZM959.143 155.532L998.229 155.532L998.229 185.71L959.143 185.71L959.143 155.532ZM959.143 186.484L998.229 186.484L998.229 216.661L959.143 216.661L959.143 186.484ZM959.143 217.435L998.229 217.435L998.229 247.613L959.143 247.613L959.143 217.435ZM959.143 248.387L998.229 248.387L998.229 278.565L959.143 278.565L959.143 248.387ZM959.143 279.339L998.229 279.339L998.229 309.516L959.143 309.516L959.143 279.339ZM959.143 310.29L998.229 310.29L998.229 340.468L959.143 340.468L959.143 310.29ZM959.143 341.242L998.229 341.242L998.229 371.42L959.143 371.42L959.143 341.242ZM959.143 372.193L998.229 372.193L998.229 402.371L959.143 402.371L959.143 372.193ZM959.143 403.145L998.229 403.145L998.229 433.323L959.143 433.323L959.143 403.145ZM959.143 434.097L998.229 434.097L998.229 464.275L959.143 464.275L959.143 434.097ZM959.143 465.048L998.229 465.048L998.229 495.226L959.143 495.226L959.143 465.048ZM958.114 495.226L958.114 465.048L919.029 465.048L919.029 495.226L958.114 495.226ZM958.114 464.275L958.114 434.097L919.029 434.097L919.029 464.275L958.114 464.275ZM958.114 433.323L958.114 403.145L919.029 403.145L919.029 433.323L958.114 433.323ZM958.114 402.371L958.114 372.193L919.029 372.193L919.029 402.371L958.114 402.371ZM958.114 371.42L958.114 341.242L919.029 341.242L919.029 371.42L958.114 371.42ZM958.114 340.468L958.114 310.29L919.029 310.29L919.029 340.468L958.114 340.468ZM958.114 309.516L958.114 279.339L919.029 279.339L919.029 309.516L958.114 309.516ZM958.114 278.565L958.114 248.387L919.029 248.387L919.029 278.565L958.114 278.565ZM958.114 247.613L958.114 217.435L919.029 217.435L919.029 247.613L958.114 247.613ZM958.114 216.661L958.114 186.484L919.029 186.484L919.029 216.661L958.114 216.661ZM958.114 185.71L958.114 155.532L919.029 155.532L919.029 185.71L958.114 185.71ZM958.114 154.758L958.114 124.58L919.029 124.58L919.029 154.758L958.114 154.758ZM958.114 123.807L958.114 93.6287L919.029 93.6287L919.029 123.807L958.114 123.807ZM958.114 92.8549L958.114 62.6771L919.029 62.6771L919.029 92.8549L958.114 92.8549ZM958.114 61.9033L958.114 31.7254L919.029 31.7254L919.029 61.9033L958.114 61.9033ZM878.914 31.7254L918 31.7254L918 61.9033L878.914 61.9033L878.914 31.7254ZM878.914 62.6771L918 62.6771L918 92.8549L878.914 92.8549L878.914 62.6771ZM878.914 93.6287L918 93.6287L918 123.807L878.914 123.807L878.914 93.6287ZM878.914 124.58L918 124.58L918 154.758L878.914 154.758L878.914 124.58ZM878.914 155.532L918 155.532L918 185.71L878.914 185.71L878.914 155.532ZM878.914 186.484L918 186.484L918 216.661L878.914 216.661L878.914 186.484ZM878.914 217.435L918 217.435L918 247.613L878.914 247.613L878.914 217.435ZM878.914 248.387L918 248.387L918 278.565L878.914 278.565L878.914 248.387ZM878.914 279.339L918 279.339L918 309.516L878.914 309.516L878.914 279.339ZM878.914 310.29L918 310.29L918 340.468L878.914 340.468L878.914 310.29ZM878.914 341.242L918 341.242L918 371.42L878.914 371.42L878.914 341.242ZM878.914 372.193L918 372.193L918 402.371L878.914 402.371L878.914 372.193ZM878.914 403.145L918 403.145L918 433.323L878.914 433.323L878.914 403.145ZM878.914 434.097L918 434.097L918 464.275L878.914 464.275L878.914 434.097ZM878.914 465.048L918 465.048L918 495.226L878.914 495.226L878.914 465.048ZM877.886 495.226L877.886 465.048L838.8 465.048L838.8 495.226L877.886 495.226ZM877.886 464.275L877.886 434.097L838.8 434.097L838.8 464.275L877.886 464.275ZM877.886 433.323L877.886 403.145L838.8 403.145L838.8 433.323L877.886 433.323ZM877.886 402.371L877.886 372.193L838.8 372.193L838.8 402.371L877.886 402.371ZM877.886 371.42L877.886 341.242L838.8 341.242L838.8 371.42L877.886 371.42ZM877.886 340.468L877.886 310.29L838.8 310.29L838.8 340.468L877.886 340.468ZM877.886 309.516L877.886 279.339L838.8 279.339L838.8 309.516L877.886 309.516ZM877.886 278.565L877.886 248.387L838.8 248.387L838.8 278.565L877.886 278.565ZM877.886 247.613L877.886 217.435L838.8 217.435L838.8 247.613L877.886 247.613ZM877.886 216.661L877.886 186.484L838.8 186.484L838.8 216.661L877.886 216.661ZM877.886 185.71L877.886 155.532L838.8 155.532L838.8 185.71L877.886 185.71ZM877.886 154.758L877.886 124.58L838.8 124.58L838.8 154.758L877.886 154.758ZM877.886 123.807L877.886 93.6287L838.8 93.6287L838.8 123.807L877.886 123.807ZM877.886 92.8549L877.886 62.6771L838.8 62.6771L838.8 92.8549L877.886 92.8549ZM877.886 61.9033L877.886 31.7254L838.8 31.7254L838.8 61.9033L877.886 61.9033ZM798.686 31.7254L837.771 31.7254L837.771 61.9033L798.686 61.9033L798.686 31.7254ZM798.686 62.6771L837.771 62.6771L837.771 92.8549L798.686 92.8549L798.686 62.6771ZM798.686 93.6287L837.771 93.6287L837.771 123.807L798.686 123.807L798.686 93.6287ZM798.686 124.58L837.771 124.58L837.771 154.758L798.686 154.758L798.686 124.58ZM798.686 155.532L837.771 155.532L837.771 185.71L798.686 185.71L798.686 155.532ZM798.686 186.484L837.771 186.484L837.771 216.661L798.686 216.661L798.686 186.484ZM798.686 217.435L837.771 217.435L837.771 247.613L798.686 247.613L798.686 217.435ZM798.686 248.387L837.771 248.387L837.771 278.565L798.686 278.565L798.686 248.387ZM798.686 279.339L837.771 279.339L837.771 309.516L798.686 309.516L798.686 279.339ZM798.686 310.29L837.771 310.29L837.771 340.468L798.686 340.468L798.686 310.29ZM798.686 341.242L837.771 341.242L837.771 371.42L798.686 371.42L798.686 341.242ZM798.686 372.193L837.771 372.193L837.771 402.371L798.686 402.371L798.686 372.193ZM798.686 403.145L837.771 403.145L837.771 433.323L798.686 433.323L798.686 403.145ZM798.686 434.097L837.771 434.097L837.771 464.275L798.686 464.275L798.686 434.097ZM798.686 465.048L837.771 465.048L837.771 495.226L798.686 495.226L798.686 465.048ZM797.657 495.226L797.657 465.048L758.571 465.048L758.571 495.226L797.657 495.226ZM797.657 464.275L797.657 434.097L758.571 434.097L758.571 464.275L797.657 464.275ZM797.657 433.323L797.657 403.145L758.571 403.145L758.571 433.323L797.657 433.323ZM797.657 402.371L797.657 372.193L758.571 372.193L758.571 402.371L797.657 402.371ZM797.657 371.42L797.657 341.242L758.571 341.242L758.571 371.42L797.657 371.42ZM797.657 340.468L797.657 310.29L758.571 310.29L758.571 340.468L797.657 340.468ZM797.657 309.516L797.657 279.339L758.571 279.339L758.571 309.516L797.657 309.516ZM797.657 278.565L797.657 248.387L758.571 248.387L758.571 278.565L797.657 278.565ZM797.657 247.613L797.657 217.435L758.571 217.435L758.571 247.613L797.657 247.613ZM797.657 216.661L797.657 186.484L758.571 186.484L758.571 216.661L797.657 216.661ZM797.657 185.71L797.657 155.532L758.571 155.532L758.571 185.71L797.657 185.71ZM797.657 154.758L797.657 124.58L758.571 124.58L758.571 154.758L797.657 154.758ZM797.657 123.807L797.657 93.6287L758.571 93.6287L758.571 123.807L797.657 123.807ZM797.657 92.8549L797.657 62.6771L758.571 62.6771L758.571 92.8549L797.657 92.8549ZM797.657 61.9033L797.657 31.7254L758.571 31.7254L758.571 61.9033L797.657 61.9033ZM718.457 31.7254L757.543 31.7254L757.543 61.9033L718.457 61.9033L718.457 31.7254ZM718.457 62.6771L757.543 62.6771L757.543 92.8549L718.457 92.8549L718.457 62.6771ZM718.457 93.6287L757.543 93.6287L757.543 123.807L718.457 123.807L718.457 93.6287ZM718.457 124.58L757.543 124.58L757.543 154.758L718.457 154.758L718.457 124.58ZM718.457 155.532L757.543 155.532L757.543 185.71L718.457 185.71L718.457 155.532ZM718.457 186.484L757.543 186.484L757.543 216.661L718.457 216.661L718.457 186.484ZM718.457 217.435L757.543 217.435L757.543 247.613L718.457 247.613L718.457 217.435ZM718.457 248.387L757.543 248.387L757.543 278.565L718.457 278.565L718.457 248.387ZM718.457 279.339L757.543 279.339L757.543 309.516L718.457 309.516L718.457 279.339ZM718.457 310.29L757.543 310.29L757.543 340.468L718.457 340.468L718.457 310.29ZM718.457 341.242L757.543 341.242L757.543 371.42L718.457 371.42L718.457 341.242ZM718.457 372.193L757.543 372.193L757.543 402.371L718.457 402.371L718.457 372.193ZM718.457 403.145L757.543 403.145L757.543 433.323L718.457 433.323L718.457 403.145ZM718.457 434.097L757.543 434.097L757.543 464.275L718.457 464.275L718.457 434.097ZM718.457 465.048L757.543 465.048L757.543 495.226L718.457 495.226L718.457 465.048ZM717.429 495.226L717.429 465.048L678.343 465.048L678.343 495.226L717.429 495.226ZM717.429 464.275L717.429 434.097L678.343 434.097L678.343 464.275L717.429 464.275ZM717.429 433.323L717.429 403.145L678.343 403.145L678.343 433.323L717.429 433.323ZM717.429 402.371L717.429 372.193L678.343 372.193L678.343 402.371L717.429 402.371ZM717.429 371.42L717.429 341.242L678.343 341.242L678.343 371.42L717.429 371.42ZM717.429 340.468L717.429 310.29L678.343 310.29L678.343 340.468L717.429 340.468ZM717.429 309.516L717.429 279.339L678.343 279.339L678.343 309.516L717.429 309.516ZM717.429 278.565L717.429 248.387L678.343 248.387L678.343 278.565L717.429 278.565ZM717.429 247.613L717.429 217.435L678.343 217.435L678.343 247.613L717.429 247.613ZM717.429 216.661L717.429 186.484L678.343 186.484L678.343 216.661L717.429 216.661ZM717.429 185.71L717.429 155.532L678.343 155.532L678.343 185.71L717.429 185.71ZM717.429 154.758L717.429 124.58L678.343 124.58L678.343 154.758L717.429 154.758ZM717.429 123.807L717.429 93.6287L678.343 93.6287L678.343 123.807L717.429 123.807ZM717.429 92.8549L717.429 62.6771L678.343 62.6771L678.343 92.8549L717.429 92.8549ZM717.429 61.9033L717.429 31.7254L678.343 31.7254L678.343 61.9033L717.429 61.9033ZM638.229 31.7254L677.314 31.7254L677.314 61.9033L638.229 61.9033L638.229 31.7254ZM638.229 62.6771L677.314 62.6771L677.314 92.8549L638.229 92.8549L638.229 62.6771ZM638.229 93.6287L677.314 93.6287L677.314 123.807L638.229 123.807L638.229 93.6287ZM638.229 124.58L677.314 124.58L677.314 154.758L638.229 154.758L638.229 124.58ZM638.229 155.532L677.314 155.532L677.314 185.71L638.229 185.71L638.229 155.532ZM638.229 186.484L677.314 186.484L677.314 216.661L638.229 216.661L638.229 186.484ZM638.229 217.435L677.314 217.435L677.314 247.613L638.229 247.613L638.229 217.435ZM638.229 248.387L677.314 248.387L677.314 278.565L638.229 278.565L638.229 248.387ZM638.229 279.339L677.314 279.339L677.314 309.516L638.229 309.516L638.229 279.339ZM638.229 310.29L677.314 310.29L677.314 340.468L638.229 340.468L638.229 310.29ZM638.229 341.242L677.314 341.242L677.314 371.42L638.229 371.42L638.229 341.242ZM638.229 372.193L677.314 372.193L677.314 402.371L638.229 402.371L638.229 372.193ZM638.229 403.145L677.314 403.145L677.314 433.323L638.229 433.323L638.229 403.145ZM638.229 434.097L677.314 434.097L677.314 464.275L638.229 464.275L638.229 434.097ZM638.229 465.048L677.314 465.048L677.314 495.226L638.229 495.226L638.229 465.048ZM637.2 495.226L637.2 465.048L598.114 465.048L598.114 495.226L637.2 495.226ZM637.2 464.275L637.2 434.097L598.114 434.097L598.114 464.275L637.2 464.275ZM637.2 433.323L637.2 403.145L598.114 403.145L598.114 433.323L637.2 433.323ZM637.2 402.371L637.2 372.193L598.114 372.193L598.114 402.371L637.2 402.371ZM637.2 371.42L637.2 341.242L598.114 341.242L598.114 371.42L637.2 371.42ZM637.2 340.468L637.2 310.29L598.114 310.29L598.114 340.468L637.2 340.468ZM637.2 309.516L637.2 279.339L598.114 279.339L598.114 309.516L637.2 309.516ZM637.2 278.565L637.2 248.387L598.114 248.387L598.114 278.565L637.2 278.565ZM637.2 247.613L637.2 217.435L598.114 217.435L598.114 247.613L637.2 247.613ZM637.2 216.661L637.2 186.484L598.114 186.484L598.114 216.661L637.2 216.661ZM637.2 185.71L637.2 155.532L598.114 155.532L598.114 185.71L637.2 185.71ZM637.2 154.758L637.2 124.58L598.114 124.58L598.114 154.758L637.2 154.758ZM637.2 123.807L637.2 93.6287L598.114 93.6287L598.114 123.807L637.2 123.807ZM637.2 92.8549L637.2 62.6771L598.114 62.6771L598.114 92.8549L637.2 92.8549ZM637.2 61.9033L637.2 31.7254L598.114 31.7254L598.114 61.9033L637.2 61.9033ZM558 31.7254L597.086 31.7254L597.086 61.9033L558 61.9033L558 31.7254ZM558 62.6771L597.086 62.6771L597.086 92.8549L558 92.8549L558 62.6771ZM558 93.6287L597.086 93.6287L597.086 123.807L558 123.807L558 93.6287ZM558 124.58L597.086 124.58L597.086 154.758L558 154.758L558 124.58ZM558 155.532L597.086 155.532L597.086 185.71L558 185.71L558 155.532ZM558 186.484L597.086 186.484L597.086 216.661L558 216.661L558 186.484ZM558 217.435L597.086 217.435L597.086 247.613L558 247.613L558 217.435ZM558 248.387L597.086 248.387L597.086 278.565L558 278.565L558 248.387ZM558 279.339L597.086 279.339L597.086 309.516L558 309.516L558 279.339ZM558 310.29L597.086 310.29L597.086 340.468L558 340.468L558 310.29ZM558 341.242L597.086 341.242L597.086 371.42L558 371.42L558 341.242ZM558 372.193L597.086 372.193L597.086 402.371L558 402.371L558 372.193ZM558 403.145L597.086 403.145L597.086 433.323L558 433.323L558 403.145ZM558 434.097L597.086 434.097L597.086 464.275L558 464.275L558 434.097ZM558 465.048L597.086 465.048L597.086 495.226L558 495.226L558 465.048ZM556.971 495.226L556.971 465.048L517.886 465.048L517.886 495.226L556.971 495.226ZM556.971 464.275L556.971 434.097L517.886 434.097L517.886 464.275L556.971 464.275ZM556.971 433.323L556.971 403.145L517.886 403.145L517.886 433.323L556.971 433.323ZM556.971 402.371L556.971 372.193L517.886 372.193L517.886 402.371L556.971 402.371ZM556.971 371.42L556.971 341.242L517.886 341.242L517.886 371.42L556.971 371.42ZM556.971 340.468L556.971 310.29L517.886 310.29L517.886 340.468L556.971 340.468ZM556.971 309.516L556.971 279.339L517.886 279.339L517.886 309.516L556.971 309.516ZM556.971 278.565L556.971 248.387L517.886 248.387L517.886 278.565L556.971 278.565ZM556.971 247.613L556.971 217.435L517.886 217.435L517.886 247.613L556.971 247.613ZM556.971 216.661L556.971 186.484L517.886 186.484L517.886 216.661L556.971 216.661ZM556.971 185.71L556.971 155.532L517.886 155.532L517.886 185.71L556.971 185.71ZM556.971 154.758L556.971 124.58L517.886 124.58L517.886 154.758L556.971 154.758ZM556.971 123.807L556.971 93.6287L517.886 93.6287L517.886 123.807L556.971 123.807ZM556.971 92.8549L556.971 62.6771L517.886 62.6771L517.886 92.8549L556.971 92.8549ZM556.971 61.9033L556.971 31.7254L517.886 31.7254L517.886 61.9033L556.971 61.9033ZM477.771 31.7254L516.857 31.7254L516.857 61.9033L477.771 61.9033L477.771 31.7254ZM477.771 62.6771L516.857 62.6771L516.857 92.8549L477.771 92.8549L477.771 62.6771ZM477.771 93.6287L516.857 93.6287L516.857 123.807L477.771 123.807L477.771 93.6287ZM477.771 124.58L516.857 124.58L516.857 154.758L477.771 154.758L477.771 124.58ZM477.771 155.532L516.857 155.532L516.857 185.71L477.771 185.71L477.771 155.532ZM477.771 186.484L516.857 186.484L516.857 216.661L477.771 216.661L477.771 186.484ZM477.771 217.435L516.857 217.435L516.857 247.613L477.771 247.613L477.771 217.435ZM477.771 248.387L516.857 248.387L516.857 278.565L477.771 278.565L477.771 248.387ZM477.771 279.339L516.857 279.339L516.857 309.516L477.771 309.516L477.771 279.339ZM477.771 310.29L516.857 310.29L516.857 340.468L477.771 340.468L477.771 310.29ZM477.771 341.242L516.857 341.242L516.857 371.42L477.771 371.42L477.771 341.242ZM477.771 372.193L516.857 372.193L516.857 402.371L477.771 402.371L477.771 372.193ZM477.771 403.145L516.857 403.145L516.857 433.323L477.771 433.323L477.771 403.145ZM477.771 434.097L516.857 434.097L516.857 464.275L477.771 464.275L477.771 434.097ZM477.771 465.048L516.857 465.048L516.857 495.226L477.771 495.226L477.771 465.048ZM476.743 495.226L476.743 465.048L437.657 465.048L437.657 495.226L476.743 495.226ZM476.743 464.275L476.743 434.097L437.657 434.097L437.657 464.275L476.743 464.275ZM476.743 433.323L476.743 403.145L437.657 403.145L437.657 433.323L476.743 433.323ZM476.743 402.371L476.743 372.193L437.657 372.193L437.657 402.371L476.743 402.371ZM476.743 371.42L476.743 341.242L437.657 341.242L437.657 371.42L476.743 371.42ZM476.743 340.468L476.743 310.29L437.657 310.29L437.657 340.468L476.743 340.468ZM476.743 309.516L476.743 279.339L437.657 279.339L437.657 309.516L476.743 309.516ZM476.743 278.565L476.743 248.387L437.657 248.387L437.657 278.565L476.743 278.565ZM476.743 247.613L476.743 217.435L437.657 217.435L437.657 247.613L476.743 247.613ZM476.743 216.661L476.743 186.484L437.657 186.484L437.657 216.661L476.743 216.661ZM476.743 185.71L476.743 155.532L437.657 155.532L437.657 185.71L476.743 185.71ZM476.743 154.758L476.743 124.58L437.657 124.58L437.657 154.758L476.743 154.758ZM476.743 123.807L476.743 93.6287L437.657 93.6287L437.657 123.807L476.743 123.807ZM476.743 92.8549L476.743 62.6771L437.657 62.6771L437.657 92.8549L476.743 92.8549ZM476.743 61.9033L476.743 31.7254L437.657 31.7254L437.657 61.9033L476.743 61.9033ZM397.543 31.7254L436.629 31.7254L436.629 61.9033L397.543 61.9033L397.543 31.7254ZM397.543 62.6771L436.629 62.6771L436.629 92.8549L397.543 92.8549L397.543 62.6771ZM397.543 93.6287L436.629 93.6287L436.629 123.807L397.543 123.807L397.543 93.6287ZM397.543 124.58L436.629 124.58L436.629 154.758L397.543 154.758L397.543 124.58ZM397.543 155.532L436.629 155.532L436.629 185.71L397.543 185.71L397.543 155.532ZM397.543 186.484L436.629 186.484L436.629 216.661L397.543 216.661L397.543 186.484ZM397.543 217.435L436.629 217.435L436.629 247.613L397.543 247.613L397.543 217.435ZM397.543 248.387L436.629 248.387L436.629 278.565L397.543 278.565L397.543 248.387ZM397.543 279.339L436.629 279.339L436.629 309.516L397.543 309.516L397.543 279.339ZM397.543 310.29L436.629 310.29L436.629 340.468L397.543 340.468L397.543 310.29ZM397.543 341.242L436.629 341.242L436.629 371.42L397.543 371.42L397.543 341.242ZM397.543 372.193L436.629 372.193L436.629 402.371L397.543 402.371L397.543 372.193ZM397.543 403.145L436.629 403.145L436.629 433.323L397.543 433.323L397.543 403.145ZM397.543 434.097L436.629 434.097L436.629 464.275L397.543 464.275L397.543 434.097ZM397.543 465.048L436.629 465.048L436.629 495.226L397.543 495.226L397.543 465.048ZM396.514 495.226L396.514 465.048L357.429 465.048L357.429 495.226L396.514 495.226ZM396.514 464.275L396.514 434.097L357.429 434.097L357.429 464.275L396.514 464.275ZM396.514 433.323L396.514 403.145L357.429 403.145L357.429 433.323L396.514 433.323ZM396.514 402.371L396.514 372.193L357.429 372.193L357.429 402.371L396.514 402.371ZM396.514 371.42L396.514 341.242L357.429 341.242L357.429 371.42L396.514 371.42ZM396.514 340.468L396.514 310.29L357.429 310.29L357.429 340.468L396.514 340.468ZM396.514 309.516L396.514 279.339L357.429 279.339L357.429 309.516L396.514 309.516ZM396.514 278.565L396.514 248.387L357.429 248.387L357.429 278.565L396.514 278.565ZM396.514 247.613L396.514 217.435L357.429 217.435L357.429 247.613L396.514 247.613ZM396.514 216.661L396.514 186.484L357.429 186.484L357.429 216.661L396.514 216.661ZM396.514 185.71L396.514 155.532L357.429 155.532L357.429 185.71L396.514 185.71ZM396.514 154.758L396.514 124.58L357.429 124.58L357.429 154.758L396.514 154.758ZM396.514 123.807L396.514 93.6287L357.429 93.6287L357.429 123.807L396.514 123.807ZM396.514 92.8549L396.514 62.6771L357.429 62.6771L357.429 92.8549L396.514 92.8549ZM396.514 61.9033L396.514 31.7254L357.429 31.7254L357.429 61.9033L396.514 61.9033ZM317.314 31.7254L356.4 31.7254L356.4 61.9033L317.314 61.9033L317.314 31.7254ZM317.314 62.6771L356.4 62.6771L356.4 92.8549L317.314 92.8549L317.314 62.6771ZM317.314 93.6287L356.4 93.6287L356.4 123.807L317.314 123.807L317.314 93.6287ZM317.314 124.58L356.4 124.58L356.4 154.758L317.314 154.758L317.314 124.58ZM317.314 155.532L356.4 155.532L356.4 185.71L317.314 185.71L317.314 155.532ZM317.314 186.484L356.4 186.484L356.4 216.661L317.314 216.661L317.314 186.484ZM317.314 217.435L356.4 217.435L356.4 247.613L317.314 247.613L317.314 217.435ZM317.314 248.387L356.4 248.387L356.4 278.565L317.314 278.565L317.314 248.387ZM317.314 279.339L356.4 279.339L356.4 309.516L317.314 309.516L317.314 279.339ZM317.314 310.29L356.4 310.29L356.4 340.468L317.314 340.468L317.314 310.29ZM317.314 341.242L356.4 341.242L356.4 371.42L317.314 371.42L317.314 341.242ZM317.314 372.193L356.4 372.193L356.4 402.371L317.314 402.371L317.314 372.193ZM317.314 403.145L356.4 403.145L356.4 433.323L317.314 433.323L317.314 403.145ZM317.314 434.097L356.4 434.097L356.4 464.275L317.314 464.275L317.314 434.097ZM317.314 465.048L356.4 465.048L356.4 495.226L317.314 495.226L317.314 465.048ZM316.286 495.226L316.286 465.048L277.2 465.048L277.2 495.226L316.286 495.226ZM316.286 464.275L316.286 434.097L277.2 434.097L277.2 464.275L316.286 464.275ZM316.286 433.323L316.286 403.145L277.2 403.145L277.2 433.323L316.286 433.323ZM316.286 402.371L316.286 372.193L277.2 372.193L277.2 402.371L316.286 402.371ZM316.286 371.42L316.286 341.242L277.2 341.242L277.2 371.42L316.286 371.42ZM316.286 340.468L316.286 310.29L277.2 310.29L277.2 340.468L316.286 340.468ZM316.286 309.516L316.286 279.339L277.2 279.339L277.2 309.516L316.286 309.516ZM316.286 278.565L316.286 248.387L277.2 248.387L277.2 278.565L316.286 278.565ZM316.286 247.613L316.286 217.435L277.2 217.435L277.2 247.613L316.286 247.613ZM316.286 216.661L316.286 186.484L277.2 186.484L277.2 216.661L316.286 216.661ZM316.286 185.71L316.286 155.532L277.2 155.532L277.2 185.71L316.286 185.71ZM316.286 154.758L316.286 124.58L277.2 124.58L277.2 154.758L316.286 154.758ZM316.286 123.807L316.286 93.6287L277.2 93.6287L277.2 123.807L316.286 123.807ZM316.286 92.8549L316.286 62.6771L277.2 62.6771L277.2 92.8549L316.286 92.8549ZM316.286 61.9033L316.286 31.7254L277.2 31.7254L277.2 61.9033L316.286 61.9033ZM237.086 31.7254L276.171 31.7254L276.171 61.9033L237.086 61.9033L237.086 31.7254ZM237.086 62.6771L276.171 62.6771L276.171 92.8549L237.086 92.8549L237.086 62.6771ZM237.086 93.6287L276.171 93.6287L276.171 123.807L237.086 123.807L237.086 93.6287ZM237.086 124.58L276.171 124.58L276.171 154.758L237.086 154.758L237.086 124.58ZM237.086 155.532L276.171 155.532L276.171 185.71L237.086 185.71L237.086 155.532ZM237.086 186.484L276.171 186.484L276.171 216.661L237.086 216.661L237.086 186.484ZM237.086 217.435L276.171 217.435L276.171 247.613L237.086 247.613L237.086 217.435ZM237.086 248.387L276.171 248.387L276.171 278.565L237.086 278.565L237.086 248.387ZM237.086 279.339L276.171 279.339L276.171 309.516L237.086 309.516L237.086 279.339ZM237.086 310.29L276.171 310.29L276.171 340.468L237.086 340.468L237.086 310.29ZM237.086 341.242L276.171 341.242L276.171 371.42L237.086 371.42L237.086 341.242ZM237.086 372.193L276.171 372.193L276.171 402.371L237.086 402.371L237.086 372.193ZM237.086 403.145L276.171 403.145L276.171 433.323L237.086 433.323L237.086 403.145ZM237.086 434.097L276.171 434.097L276.171 464.275L237.086 464.275L237.086 434.097ZM237.086 465.048L276.171 465.048L276.171 495.226L237.086 495.226L237.086 465.048ZM236.057 495.226L236.057 465.048L196.971 465.048L196.971 495.226L236.057 495.226ZM236.057 464.275L236.057 434.097L196.971 434.097L196.971 464.275L236.057 464.275ZM236.057 433.323L236.057 403.145L196.971 403.145L196.971 433.323L236.057 433.323ZM236.057 402.371L236.057 372.193L196.971 372.193L196.971 402.371L236.057 402.371ZM236.057 371.42L236.057 341.242L196.971 341.242L196.971 371.42L236.057 371.42ZM236.057 340.468L236.057 310.29L196.971 310.29L196.971 340.468L236.057 340.468ZM236.057 309.516L236.057 279.339L196.971 279.339L196.971 309.516L236.057 309.516ZM236.057 278.565L236.057 248.387L196.971 248.387L196.971 278.565L236.057 278.565ZM236.057 247.613L236.057 217.435L196.971 217.435L196.971 247.613L236.057 247.613ZM236.057 216.661L236.057 186.484L196.971 186.484L196.971 216.661L236.057 216.661ZM236.057 185.71L236.057 155.532L196.971 155.532L196.971 185.71L236.057 185.71ZM236.057 154.758L236.057 124.58L196.971 124.58L196.971 154.758L236.057 154.758ZM236.057 123.807L236.057 93.6287L196.971 93.6287L196.971 123.807L236.057 123.807ZM236.057 92.8549L236.057 62.6771L196.971 62.6771L196.971 92.8549L236.057 92.8549ZM236.057 61.9033L236.057 31.7254L196.971 31.7254L196.971 61.9033L236.057 61.9033ZM156.857 31.7254L195.943 31.7254L195.943 61.9033L156.857 61.9033L156.857 31.7254ZM156.857 62.6771L195.943 62.6771L195.943 92.8549L156.857 92.8549L156.857 62.6771ZM156.857 93.6287L195.943 93.6287L195.943 123.807L156.857 123.807L156.857 93.6287ZM156.857 124.58L195.943 124.58L195.943 154.758L156.857 154.758L156.857 124.58ZM156.857 155.532L195.943 155.532L195.943 185.71L156.857 185.71L156.857 155.532ZM156.857 186.484L195.943 186.484L195.943 216.661L156.857 216.661L156.857 186.484ZM156.857 217.435L195.943 217.435L195.943 247.613L156.857 247.613L156.857 217.435ZM156.857 248.387L195.943 248.387L195.943 278.565L156.857 278.565L156.857 248.387ZM156.857 279.339L195.943 279.339L195.943 309.516L156.857 309.516L156.857 279.339ZM156.857 310.29L195.943 310.29L195.943 340.468L156.857 340.468L156.857 310.29ZM156.857 341.242L195.943 341.242L195.943 371.42L156.857 371.42L156.857 341.242ZM156.857 372.193L195.943 372.193L195.943 402.371L156.857 402.371L156.857 372.193ZM156.857 403.145L195.943 403.145L195.943 433.323L156.857 433.323L156.857 403.145ZM156.857 434.097L195.943 434.097L195.943 464.275L156.857 464.275L156.857 434.097ZM156.857 465.048L195.943 465.048L195.943 495.226L156.857 495.226L156.857 465.048ZM155.829 495.226L155.829 465.048L116.743 465.048L116.743 495.226L155.829 495.226ZM155.829 464.275L155.829 434.097L116.743 434.097L116.743 464.275L155.829 464.275ZM155.829 433.323L155.829 403.145L116.743 403.145L116.743 433.323L155.829 433.323ZM155.829 402.371L155.829 372.193L116.743 372.193L116.743 402.371L155.829 402.371ZM155.829 371.42L155.829 341.242L116.743 341.242L116.743 371.42L155.829 371.42ZM155.829 340.468L155.829 310.29L116.743 310.29L116.743 340.468L155.829 340.468ZM155.829 309.516L155.829 279.339L116.743 279.339L116.743 309.516L155.829 309.516ZM155.829 278.565L155.829 248.387L116.743 248.387L116.743 278.565L155.829 278.565ZM155.829 247.613L155.829 217.435L116.743 217.435L116.743 247.613L155.829 247.613ZM155.829 216.661L155.829 186.484L116.743 186.484L116.743 216.661L155.829 216.661ZM155.829 185.71L155.829 155.532L116.743 155.532L116.743 185.71L155.829 185.71ZM155.829 154.758L155.829 124.58L116.743 124.58L116.743 154.758L155.829 154.758ZM155.829 123.807L155.829 93.6287L116.743 93.6287L116.743 123.807L155.829 123.807ZM155.829 92.8549L155.829 62.6771L116.743 62.6771L116.743 92.8549L155.829 92.8549ZM155.829 61.9033L155.829 31.7254L116.743 31.7254L116.743 61.9033L155.829 61.9033ZM76.6286 31.7254L115.714 31.7254L115.714 61.9033L76.6286 61.9033L76.6286 31.7254ZM76.6286 62.6771L115.714 62.6771L115.714 92.8549L76.6286 92.8549L76.6286 62.6771ZM76.6286 93.6287L115.714 93.6287L115.714 123.807L76.6286 123.807L76.6286 93.6287ZM76.6286 124.58L115.714 124.58L115.714 154.758L76.6286 154.758L76.6286 124.58ZM76.6286 155.532L115.714 155.532L115.714 185.71L76.6286 185.71L76.6286 155.532ZM76.6286 186.484L115.714 186.484L115.714 216.661L76.6286 216.661L76.6286 186.484ZM76.6286 217.435L115.714 217.435L115.714 247.613L76.6286 247.613L76.6286 217.435ZM76.6286 248.387L115.714 248.387L115.714 278.565L76.6286 278.565L76.6286 248.387ZM76.6286 279.339L115.714 279.339L115.714 309.516L76.6286 309.516L76.6286 279.339ZM76.6286 310.29L115.714 310.29L115.714 340.468L76.6286 340.468L76.6286 310.29ZM76.6286 341.242L115.714 341.242L115.714 371.42L76.6286 371.42L76.6286 341.242ZM76.6286 372.193L115.714 372.193L115.714 402.371L76.6286 402.371L76.6286 372.193ZM76.6286 403.145L115.714 403.145L115.714 433.323L76.6286 433.323L76.6286 403.145ZM76.6286 434.097L115.714 434.097L115.714 464.275L76.6286 464.275L76.6286 434.097ZM76.6286 465.048L115.714 465.048L115.714 495.226L76.6286 495.226L76.6286 465.048ZM75.6 495.226L75.6 465.048L36.5143 465.048L36.5143 495.226L75.6 495.226ZM75.6 464.275L75.6 434.097L36.5143 434.097L36.5143 464.275L75.6 464.275ZM75.6 433.323L75.6 403.145L36.5143 403.145L36.5143 433.323L75.6 433.323ZM75.6 402.371L75.6 372.193L36.5143 372.193L36.5143 402.371L75.6 402.371ZM75.6 371.42L75.6 341.242L36.5143 341.242L36.5143 371.42L75.6 371.42ZM75.6 340.468L75.6 310.29L36.5143 310.29L36.5143 340.468L75.6 340.468ZM75.6 309.516L75.6 279.339L36.5143 279.339L36.5143 309.516L75.6 309.516ZM75.6 278.565L75.6 248.387L36.5143 248.387L36.5143 278.565L75.6 278.565ZM75.6 247.613L75.6 217.435L36.5143 217.435L36.5143 247.613L75.6 247.613ZM75.6 216.661L75.6 186.484L36.5143 186.484L36.5143 216.661L75.6 216.661ZM75.6 185.71L75.6 155.532L36.5143 155.532L36.5143 185.71L75.6 185.71ZM75.6 154.758L75.6 124.58L36.5143 124.58L36.5143 154.758L75.6 154.758ZM75.6 123.807L75.6 93.6287L36.5143 93.6287L36.5143 123.807L75.6 123.807ZM75.6 92.8549L75.6 62.6771L36.5143 62.6771L36.5143 92.8549L75.6 92.8549ZM75.6 61.9033L75.6 31.7254L36.5143 31.7254L36.5143 61.9033L75.6 61.9033Z" fill="white" fill-opacity="0.42"/>
</svg>
