<svg width="201" height="82" viewBox="0 0 201 82" fill="none" xmlns="http://www.w3.org/2000/svg">
<rect x="0.000228882" width="200.134" height="81.6872" rx="5" fill="white"/>
<g clip-path="url(#clip0_147_853)">
<path fill-rule="evenodd" clip-rule="evenodd" d="M91.5156 32.4068C90.4268 35.7264 87.3183 44.7386 87.145 45.078C86.8395 45.6768 86.582 45.8271 85.7486 45.8931L85.0784 45.9462V46.9285V47.911H88.5872H92.0961V46.9297V45.9485L91.2446 45.8838C89.8169 45.7751 89.771 45.687 90.2758 44.0289L90.5793 43.0321L93.0339 43.0039L95.4884 42.9758L95.7024 43.6859C96.0828 44.949 96.1842 45.4927 96.062 45.6132C95.9049 45.7684 95.2192 45.912 94.6214 45.9149L94.1164 45.9174V46.9142V47.911H98.4759H102.835V46.9285V45.9462L102.165 45.8931C101.366 45.8298 101.12 45.6958 100.812 45.1548C100.684 44.9308 99.6359 41.9536 98.4822 38.5388L96.3846 32.3301L93.9719 32.3018C92.0964 32.2799 91.5496 32.3033 91.5156 32.4068ZM102.268 32.3476C102.229 32.386 102.197 32.8109 102.197 33.2918V34.1662H102.946C103.6 34.1662 103.729 34.199 103.957 34.4238L104.218 34.6813V41.2962V47.911H105.588H106.958L107.254 47.2251L107.549 46.5391L108.085 47.0703C108.758 47.7379 109.471 48.0835 110.497 48.2397C112.753 48.583 114.85 47.4881 115.633 45.5589C116.052 44.5242 116.27 43.1239 116.196 41.9304C115.976 38.4017 114.134 36.4414 111.186 36.6019C110.202 36.6555 109.576 36.919 108.773 37.6177C108.502 37.8545 108.25 38.0483 108.215 38.0483C108.18 38.0483 108.152 36.7499 108.152 35.1629V32.2776H105.245C103.647 32.2776 102.307 32.3091 102.268 32.3476ZM115.701 33.2219V34.1662H116.445C117.728 34.1662 117.615 33.4851 117.615 41.2484V47.911H118.987H120.36L120.69 47.2152L121.019 46.5195L121.437 46.9868C122.335 47.9944 123.95 48.4894 125.542 48.2451C128.11 47.8512 129.473 46.0483 129.602 42.8747C129.642 41.9195 129.61 41.3209 129.485 40.6714C129.308 39.744 128.773 38.5366 128.314 38.0312C127.47 37.099 126.245 36.5794 124.891 36.5794C123.885 36.5794 123.175 36.8391 122.316 37.5226L121.655 38.0474V35.1625V32.2776H118.679H115.701V33.2219ZM146.597 32.6186C146.576 32.6908 146.501 33.0908 146.432 33.5077C146.214 34.8183 145.714 35.8303 145.019 36.3699C144.694 36.622 143.957 36.8942 143.599 36.8942C143.353 36.8942 143.347 36.9147 143.347 37.834V38.7739L144.171 38.8045L144.995 38.8352L145.048 42.455L145.101 46.0748L145.39 46.6151C145.741 47.2705 146.288 47.7346 147.068 48.037C147.539 48.2195 147.881 48.2642 148.822 48.2666C150.807 48.2717 151.829 47.8004 152.438 46.5995C152.747 45.9896 152.758 45.9164 152.793 44.2607L152.829 42.5515L151.889 42.582L150.949 42.6124L150.896 44.0289C150.829 45.8278 150.662 46.1559 149.812 46.1559C149.481 46.1559 149.321 46.0962 149.176 45.9201C148.997 45.7028 148.982 45.414 148.982 42.2335V38.7828H151.64H154.299V41.9777C154.299 46.0736 154.403 46.5902 155.406 47.4608C156.214 48.1632 157.672 48.4659 159.153 48.2387C160.729 47.9969 161.583 47.3572 161.959 46.1365C162.138 45.5562 162.168 45.2016 162.144 44.0257L162.114 42.6124L161.183 42.5821L160.253 42.5517L160.253 43.7886C160.252 45.2337 160.136 45.7457 159.755 45.9918C159.394 46.2256 158.83 46.2175 158.557 45.9746C158.345 45.7859 158.339 45.6751 158.339 42.2814V38.7828H159.775H161.21V37.8384V36.8942H159.777H158.343L158.315 34.717L158.286 32.5399L157.103 32.5103L155.919 32.4808L155.842 33.0874C155.66 34.5398 155.054 35.8241 154.279 36.4009C153.72 36.8172 153.221 36.8929 151.029 36.8935L148.982 36.8942V34.6908V32.4874H147.81C146.962 32.4874 146.625 32.5239 146.597 32.6186ZM93.906 38.3106C94.3313 39.5802 94.7012 40.678 94.7281 40.75C94.766 40.8515 94.3897 40.8812 93.0644 40.8812C92.1225 40.8812 91.3518 40.8469 91.3518 40.8049C91.3518 40.5761 93.0059 35.8626 93.0637 35.9264C93.1017 35.9681 93.4808 37.041 93.906 38.3106ZM135.138 36.7419C132.473 37.3795 130.794 39.5838 130.802 42.4356C130.809 45.2463 132.404 47.3634 135.053 48.0801C136.111 48.3663 138.058 48.3414 139.093 48.0285C141.155 47.4055 142.456 46.0828 142.972 44.0855C143.185 43.263 143.182 41.5656 142.966 40.7389C142.439 38.7265 140.989 37.3079 138.925 36.7869C137.945 36.5394 136.077 36.5173 135.138 36.7419ZM137.935 38.7078C138.186 38.8745 138.375 39.1383 138.555 39.5734C138.785 40.1293 138.819 40.398 138.86 41.9799C138.926 44.5135 138.681 45.5908 137.91 46.1552C137.166 46.6991 135.954 46.3688 135.52 45.5039C135.219 44.9053 135.053 43.7884 135.054 42.372C135.056 40.381 135.422 39.0578 136.085 38.6544C136.537 38.3798 137.482 38.407 137.935 38.7078ZM111.037 38.9515C111.491 39.3778 111.663 39.7485 111.829 40.6627C112.112 42.2308 111.969 44.2555 111.505 45.2557C111.195 45.9234 110.745 46.2312 110.078 46.2318C108.81 46.2328 108.244 45.1106 108.226 42.5599C108.211 40.4343 108.533 39.333 109.323 38.8027C109.838 38.4572 110.579 38.5214 111.037 38.9515ZM124.317 38.8089C125.115 39.3424 125.432 40.5865 125.353 42.8837C125.292 44.6537 125.079 45.3781 124.464 45.9111C124.146 46.1873 124.011 46.2322 123.5 46.2322C122.955 46.2322 122.874 46.1997 122.505 45.8358C121.946 45.2839 121.752 44.5977 121.685 42.9272C121.568 40.0118 122.194 38.5736 123.58 38.5731C123.802 38.573 124.112 38.6723 124.317 38.8089Z" fill="black"/>
<path d="M38.9314 30.1791V27.661V25.1429H55.9217C74.5095 25.1429 73.4915 25.11 74.7032 25.7492C75.5518 26.1968 76.3734 27.0705 76.8487 28.0306L77.2631 28.8676V40.3119V51.7564L76.8114 52.6558C76.129 54.0148 75.107 54.8556 73.602 55.2962C73.0828 55.4482 71.5174 55.4653 58.1238 55.4653C44.7303 55.4653 43.1648 55.4482 42.6457 55.2962C40.9299 54.7939 39.705 53.6461 39.1501 52.0205C38.9396 51.4039 38.9314 51.1571 38.9314 45.4151C38.9314 40.2798 38.9548 39.3711 39.0999 38.8805C39.557 37.3352 40.8164 36.0639 42.4103 35.5383C43.0642 35.3227 43.2045 35.3203 55.09 35.3203H67.1086V37.7841V40.2479L56.1302 40.276C45.3305 40.3037 45.1456 40.3075 44.7795 40.5163C44.5591 40.642 44.3097 40.9185 44.1681 41.1943C43.9333 41.6513 43.9289 41.7301 43.9289 45.3819C43.9289 48.8812 43.9415 49.1293 44.1399 49.5303C44.256 49.7649 44.5276 50.0749 44.7436 50.2192L45.136 50.4815L57.7438 50.514C66.7355 50.537 70.5098 50.5127 70.903 50.4292C71.6156 50.2779 72.1651 49.7195 72.2631 49.047C72.2994 48.7973 72.315 44.6893 72.2974 39.9183C72.2658 31.3052 72.264 31.2416 72.0432 30.9475C71.9208 30.7845 71.6625 30.545 71.4692 30.4152L71.1177 30.1791H55.0245H38.9314Z" fill="#159BD7"/>
</g>
<defs>
<clipPath id="clip0_147_853">
<rect width="124" height="31" fill="white" transform="translate(38.5461 24.9753)"/>
</clipPath>
</defs>
</svg>
