<svg width="201" height="82" viewBox="0 0 201 82" fill="none" xmlns="http://www.w3.org/2000/svg">
<rect x="0.000228882" width="200.134" height="81.6872" rx="5" fill="white"/>
<g clip-path="url(#clip0_147_811)">
<path fill-rule="evenodd" clip-rule="evenodd" d="M61.3516 25.3058C61.2507 25.43 60.9411 25.66 60.6636 25.8169C60.3861 25.9739 59.705 26.3978 59.1499 26.7589C58.5949 27.1201 57.9174 27.5497 57.6443 27.7139C57.3713 27.878 57.0978 28.0599 57.0364 28.1182C56.87 28.2763 56.3015 28.645 54.93 29.484C53.8238 30.1608 53.0494 30.6786 53.0494 30.7412C53.0494 30.7804 52.8622 30.9025 52.6334 31.0129C52.4047 31.1232 52.1672 31.2606 52.106 31.3182C51.9154 31.4971 51.2235 31.9252 51.1248 31.9252C51.0734 31.9252 51.0312 31.9569 51.0312 31.9956C51.0312 32.0344 50.8351 32.168 50.5954 32.2926C50.3558 32.4172 50.1456 32.5511 50.1283 32.59C50.1111 32.6289 49.9563 32.7194 49.7843 32.7909L49.4717 32.9211V34.9818C49.4717 37.361 49.4389 37.2951 50.337 36.7228C50.6131 36.5468 50.8822 36.4029 50.9351 36.4029C50.9879 36.4029 51.0312 36.3632 51.0312 36.3147C51.0312 36.2662 51.3305 36.0356 51.6962 35.8023C52.0621 35.569 52.5333 35.2592 52.7433 35.1138C52.9534 34.9684 53.1598 34.8482 53.202 34.8469C53.2665 34.8446 53.7559 34.5394 54.5514 34.0052C54.6458 33.9418 54.7838 33.8319 54.8578 33.7608C55.0384 33.5878 55.7395 33.1169 55.8195 33.1148C55.8768 33.1133 57.5489 32.0365 57.7739 31.8562C57.8243 31.8158 58.0927 31.6449 58.3702 31.4764C58.6476 31.308 58.8954 31.1426 58.9206 31.1088C58.9458 31.0751 59.1316 30.948 59.3334 30.8267C59.5352 30.7052 59.7417 30.5719 59.7921 30.5302C59.9919 30.3652 60.8265 29.8521 61.2695 29.6219L61.7379 29.3786L62.0493 29.589C62.7587 30.0684 63.2453 30.3717 63.3048 30.3717C63.4008 30.3717 64.3693 31.0395 64.4458 31.1584C64.5073 31.254 65.3567 31.7955 66.1581 32.2499C66.34 32.353 66.9163 32.7231 67.4388 33.0723C67.9612 33.4215 68.5578 33.8172 68.7647 33.9517C68.9716 34.0862 69.2047 34.2412 69.2827 34.2962C69.6569 34.5603 71.129 35.489 71.1733 35.489C71.2588 35.489 72.3523 36.2443 72.4977 36.4038C72.7126 36.6395 73.4557 37.0425 73.6754 37.0425C73.8727 37.0425 73.8737 37.0318 73.8737 35.037V33.0315L73.3463 32.6871C73.0561 32.4977 72.7981 32.3208 72.7729 32.2939C72.7189 32.2364 72.6013 32.1647 71.6262 31.5952C71.2225 31.3594 70.8785 31.1316 70.8618 31.089C70.8448 31.0463 70.775 31.0114 70.7063 31.0114C70.6377 31.0114 70.5276 30.9387 70.4617 30.8499C70.3217 30.6612 69.7756 30.2882 69.1987 29.987C68.9579 29.8612 67.2848 28.7851 67.131 28.6571C67.0806 28.6151 66.8564 28.4799 66.6329 28.3567C66.4093 28.2336 66.141 28.0554 66.0366 27.961C65.8246 27.769 64.3616 26.8195 63.6263 26.3969C62.4781 25.7367 62.2233 25.5678 62.2232 25.4661C62.2231 25.4067 62.1406 25.3319 62.0397 25.3C61.9387 25.2681 61.8562 25.2037 61.8562 25.1568C61.8562 24.9886 61.5315 25.0845 61.3516 25.3058ZM66.9935 26.5193V27.967L67.3145 28.1392C67.4911 28.234 67.6356 28.361 67.6356 28.4216C67.6356 28.4822 67.722 28.5591 67.8277 28.5925C68.0225 28.6541 68.3402 28.8503 69.5428 29.6518C70.6392 30.3826 70.5712 30.5193 70.5712 27.5846V25.0716H68.7824H66.9935V26.5193ZM99.1812 36.774C98.4618 37.1377 97.9509 38.0703 98.0637 38.8138C98.1731 39.5347 98.7616 40.2874 99.2996 40.3946C99.445 40.4236 99.5862 40.4831 99.6134 40.5269C99.6978 40.663 100.503 40.6141 100.937 40.4464C101.464 40.2431 101.661 40.0961 101.987 39.6645C102.222 39.3547 102.251 39.2391 102.258 38.6136C102.265 37.9992 102.236 37.8647 102.023 37.5451C101.73 37.1035 101.475 36.8833 101.167 36.8062C101.04 36.7745 100.936 36.7119 100.936 36.6672C100.936 36.5099 99.5348 36.5952 99.1812 36.774ZM33.3259 45.998V55.2275H35.0689H36.8119V51.3904V47.5534L40.8254 47.5296L44.839 47.5057L44.8654 46.2264C44.8799 45.5228 44.8687 44.8546 44.8405 44.7415L44.7896 44.5359H40.8008H36.8119V42.2513V39.9668H41.1236H45.4353V38.3676V36.7684H39.3806H33.3259V45.998ZM77.9713 36.8293C77.9377 36.8628 77.9101 38.4618 77.9101 40.3826V43.8749L77.5365 43.5243C77.331 43.3316 76.8873 43.0457 76.5504 42.8891C76.2135 42.7325 75.8651 42.5653 75.7761 42.5177C75.6871 42.47 75.3673 42.4053 75.0651 42.3738C74.7631 42.3424 74.5159 42.2862 74.5159 42.2489C74.5159 42.0986 72.3038 42.3287 71.9014 42.5209C71.8005 42.5692 71.4557 42.7156 71.1352 42.8463C70.8148 42.977 70.4901 43.133 70.4136 43.193C70.0932 43.4451 69.2629 44.334 69.0318 44.6729C68.8945 44.8739 68.7514 45.0521 68.7135 45.0689C68.6756 45.0857 68.6447 45.1576 68.6447 45.2288C68.6447 45.3001 68.6065 45.3583 68.5597 45.3583C68.4299 45.3583 68.0166 46.2884 67.9458 46.7399C67.9112 46.96 67.8397 47.1683 67.7868 47.2026C67.7269 47.2415 67.6891 47.8087 67.6863 48.7104C67.6828 49.8323 67.7187 50.2888 67.8469 50.7498C68.0409 51.4477 68.4237 52.3742 68.5643 52.486C68.5958 52.5112 68.705 52.669 68.8068 52.8369C69.1518 53.405 69.9732 54.2812 70.3189 54.4497C70.5082 54.5418 70.6629 54.6511 70.6629 54.6923C70.6629 54.7985 71.4715 55.1918 71.8555 55.2724C72.0321 55.3096 72.2346 55.3866 72.3054 55.4437C72.4934 55.5951 75.294 55.5856 75.447 55.4331C75.5101 55.3704 75.6217 55.3189 75.6951 55.3189C76.0848 55.3189 77.3861 54.514 77.8372 53.9939C77.9925 53.815 77.9961 53.8178 78.0114 54.1309C78.0201 54.3068 78.0229 54.533 78.0176 54.6335C78.0124 54.7341 78.0284 54.9097 78.0532 55.024C78.0982 55.2317 78.0983 55.2317 79.7243 55.2068L81.3503 55.1818L81.3737 46.0992C81.3908 39.464 81.3692 36.9832 81.2937 36.8925C81.2139 36.7968 80.8297 36.7684 79.6114 36.7684C78.7429 36.7684 78.0049 36.7958 77.9713 36.8293ZM92.8348 36.8273C92.8 36.8619 92.7716 38.484 92.7716 40.4317V43.9732L92.4076 43.6377C92.2073 43.4532 91.9869 43.2553 91.9175 43.1979C91.6878 43.0078 90.8949 42.6168 90.7388 42.6168C90.6543 42.6168 90.5715 42.5775 90.5546 42.5293C90.5163 42.4194 89.3139 42.2315 88.6434 42.2306C87.9922 42.2298 86.9347 42.4051 86.5655 42.5751C86.4065 42.6483 86.2334 42.7082 86.1808 42.7082C86.0896 42.7082 85.531 43.0107 85.2569 43.2084C85.1856 43.26 84.9534 43.477 84.7413 43.6906C84.5291 43.9041 84.3192 44.0806 84.2748 44.0829C84.0341 44.0945 83.0305 45.7104 82.913 46.2758C82.8768 46.4497 82.7913 46.7615 82.723 46.9689C82.5288 47.5581 82.4633 49.0391 82.586 50.0644C82.6462 50.567 82.7333 51.0174 82.7797 51.0651C82.8261 51.1128 82.864 51.2094 82.864 51.2797C82.864 51.4057 83.0075 51.7689 83.3047 52.3947C83.6132 53.0443 84.0149 53.5156 84.7847 54.1309C85.0047 54.3068 85.2715 54.5359 85.3775 54.64C85.5977 54.8563 86.1675 55.1325 86.9004 55.3782C87.3036 55.5134 87.6852 55.5473 88.7994 55.5473C89.7926 55.5473 90.2268 55.5145 90.3084 55.4331C90.3716 55.3704 90.4872 55.3185 90.5653 55.318C90.8317 55.3163 91.6828 54.8653 91.9841 54.5662C92.1492 54.4022 92.4146 54.1586 92.5739 54.0249L92.8633 53.7818V54.5047V55.2275H94.5151H96.1668L96.1434 46.0208L96.12 36.8141L94.509 36.7893C93.6229 36.7755 92.8696 36.7926 92.8348 36.8273ZM120.201 45.998V55.2275H121.852H123.503L123.511 48.1683C123.515 44.2856 123.541 41.1707 123.569 41.2461C123.596 41.3215 123.717 41.5927 123.837 41.8489C123.956 42.1051 124.054 42.3744 124.054 42.4474C124.054 42.5205 124.089 42.6194 124.131 42.6671C124.173 42.7148 124.322 43.0829 124.46 43.485C124.598 43.887 124.746 44.2983 124.787 44.3988C124.828 44.4993 124.955 44.8488 125.069 45.1755C125.183 45.5022 125.305 45.8106 125.339 45.8609C125.374 45.9112 125.456 46.1579 125.522 46.4091C125.588 46.6605 125.672 46.9072 125.709 46.9574C125.746 47.0078 125.805 47.1853 125.841 47.3519C125.877 47.5187 125.964 47.7654 126.034 47.9002C126.105 48.0351 126.163 48.2175 126.163 48.3053C126.164 48.3932 126.216 48.4656 126.279 48.4659C126.342 48.4663 126.487 48.782 126.604 49.1741C126.719 49.5633 126.872 50.0051 126.944 50.1558C127.016 50.3066 127.103 50.5534 127.136 50.7042C127.171 50.8549 127.229 51.0194 127.266 51.0696C127.304 51.1199 127.44 51.4695 127.569 51.8464C128.047 53.2418 128.392 54.1792 128.459 54.268C128.497 54.3183 128.558 54.5033 128.595 54.6792C128.708 55.2174 128.735 55.2275 130.059 55.2275C131.452 55.2275 131.286 55.3419 131.723 54.0852C131.864 53.6832 132.029 53.3233 132.09 53.2856C132.152 53.2479 132.231 53.0525 132.264 52.8515C132.299 52.6506 132.362 52.486 132.406 52.486C132.45 52.486 132.513 52.3319 132.547 52.1433C132.582 51.955 132.638 51.7596 132.673 51.7093C132.708 51.659 132.911 51.1245 133.126 50.5213C133.341 49.9183 133.552 49.3579 133.595 49.2761C133.639 49.1943 133.702 48.9785 133.736 48.7963C133.77 48.6142 133.83 48.4652 133.869 48.4652C133.907 48.4652 133.983 48.3111 134.037 48.1226C134.201 47.5464 134.429 46.8746 134.519 46.7075C134.565 46.6202 134.604 46.4865 134.604 46.4105C134.604 46.3343 134.636 46.2721 134.674 46.2721C134.754 46.2721 135.062 45.5983 135.062 45.4216C135.062 45.3567 135.097 45.2644 135.14 45.2167C135.182 45.169 135.331 44.7803 135.471 44.3531C135.612 43.9259 135.763 43.5373 135.807 43.4895C135.852 43.4417 135.888 43.3452 135.888 43.2749C135.888 43.2046 135.944 43.0174 136.012 42.8591C136.216 42.3865 136.515 41.5789 136.559 41.3832C136.582 41.2827 136.606 44.3574 136.611 48.216L136.622 55.2314L138.388 55.2067L140.153 55.1818L140.177 45.9751L140.201 36.7684H137.551C134.693 36.7684 134.766 36.7556 134.647 37.2715C134.612 37.4221 134.489 37.7508 134.375 38.0021C133.934 38.97 133.87 39.1303 133.87 39.2541C133.87 39.3244 133.837 39.421 133.797 39.4687C133.757 39.5166 133.606 39.9256 133.461 40.378C133.315 40.8303 133.142 41.33 133.075 41.4883C133.008 41.6467 132.953 41.8397 132.953 41.917C132.953 41.9944 132.911 42.0831 132.861 42.1142C132.811 42.1453 132.769 42.2322 132.769 42.3074C132.769 42.3826 132.688 42.6217 132.589 42.8389C132.489 43.0561 132.381 43.4043 132.347 43.6127C132.314 43.821 132.251 44.0137 132.207 44.0407C132.163 44.0676 132.126 44.1593 132.126 44.2442C132.126 44.3292 132.068 44.5091 131.997 44.644C131.927 44.7788 131.842 45.0118 131.809 45.1617C131.776 45.3117 131.696 45.4549 131.629 45.4799C131.564 45.505 131.485 45.6832 131.453 45.8759C131.421 46.0687 131.334 46.3413 131.26 46.4816C131.185 46.6219 131.098 46.8793 131.065 47.0537C131.032 47.228 130.969 47.3933 130.924 47.4208C130.879 47.4483 130.841 47.5404 130.84 47.6254C130.837 47.7103 130.757 47.9444 130.659 48.1455C130.561 48.3465 130.481 48.5805 130.478 48.6655C130.477 48.7504 130.434 48.8454 130.384 48.8765C130.333 48.9076 130.292 49.0358 130.292 49.1614C130.292 49.4684 130.139 49.3576 130.058 48.9926C130.023 48.8315 129.96 48.6367 129.918 48.5597C129.877 48.4826 129.776 48.2036 129.693 47.9398C129.611 47.676 129.508 47.46 129.466 47.46C129.424 47.46 129.361 47.3265 129.326 47.1631C129.291 46.9997 129.23 46.8249 129.191 46.7747C129.153 46.7245 129.091 46.5469 129.055 46.3802C129.02 46.2134 128.933 45.9667 128.862 45.8319C128.791 45.697 128.733 45.5172 128.733 45.4322C128.733 45.3472 128.696 45.2548 128.65 45.2268C128.605 45.1989 128.518 44.9702 128.457 44.7186C128.397 44.467 128.31 44.2383 128.265 44.2104C128.219 44.1824 128.182 44.0694 128.181 43.9593C128.181 43.8492 128.119 43.6413 128.044 43.4974C127.968 43.3533 127.907 43.1889 127.906 43.1319C127.906 43.0747 127.853 42.9252 127.787 42.7996C127.721 42.674 127.484 42.016 127.26 41.3375C127.036 40.659 126.804 40.0727 126.745 40.0347C126.686 39.9968 126.609 39.8398 126.576 39.686C126.541 39.5321 126.456 39.2958 126.385 39.161C126.315 39.0262 126.257 38.8336 126.256 38.7331C126.255 38.6326 126.193 38.4326 126.118 38.2887C126.042 38.1446 125.981 37.9802 125.98 37.9231C125.98 37.866 125.922 37.709 125.851 37.5741C125.78 37.4393 125.695 37.2029 125.661 37.0487L125.599 36.7684H122.9H120.201V45.998ZM52.632 42.2587C52.6123 42.2905 52.3988 42.34 52.1577 42.3686C51.5496 42.4407 50.9525 42.8 50.2519 43.5153L49.6551 44.1245V43.3707V42.6168H48.0137C46.7792 42.6168 46.3641 42.6452 46.3394 42.731C46.3215 42.7939 46.3177 45.6314 46.331 49.0364L46.3551 55.2275H48.051H49.7469L49.7482 51.6407C49.7497 47.7828 49.7495 47.7835 50.2563 46.7747C50.3825 46.5234 50.6316 46.215 50.8098 46.0894C50.988 45.9637 51.1883 45.8116 51.2549 45.7511C51.3215 45.6908 51.4944 45.6132 51.6393 45.5786C51.7841 45.5441 51.9547 45.475 52.0182 45.4251C52.0864 45.3716 52.5289 45.3519 53.0962 45.377L54.0585 45.4197V43.8812C54.0585 42.4036 54.0513 42.3427 53.875 42.3427C53.7741 42.3427 53.6916 42.302 53.6916 42.2523C53.6916 42.155 52.6926 42.161 52.632 42.2587ZM59.7086 42.238C59.682 42.2809 59.4051 42.3426 59.0934 42.375C58.7816 42.4076 58.481 42.4705 58.4254 42.515C58.3698 42.5593 58.1846 42.6256 58.0138 42.662C57.7257 42.7234 57.0902 43.0195 56.6834 43.2819C56.5882 43.3433 56.1519 43.751 55.7138 44.1879C54.8757 45.0237 54.3357 45.9127 54.1986 46.6826C54.1628 46.8833 54.1065 47.0888 54.0734 47.1395C53.9548 47.3211 53.8077 48.6491 53.8438 49.2142C53.8987 50.0764 54.0558 51.0578 54.1546 51.1562C54.2026 51.204 54.242 51.3296 54.242 51.4352C54.242 51.5407 54.2915 51.6764 54.3521 51.7367C54.4126 51.797 54.4322 51.8464 54.3955 51.8464C54.3589 51.8464 54.3975 51.98 54.4814 52.1433C54.7261 52.6205 55.2622 53.3999 55.3457 53.3999C55.3878 53.3999 55.6239 53.5953 55.8703 53.834C56.1166 54.0727 56.4702 54.3494 56.6562 54.4486C56.842 54.5481 56.9941 54.6599 56.9941 54.6973C56.9941 54.8029 57.9155 55.2007 58.3243 55.2716C58.5261 55.3066 58.7325 55.3685 58.783 55.4091C59.0938 55.6594 61.9916 55.6618 62.5442 55.4123C62.6451 55.3668 62.8579 55.3042 63.0168 55.2732C63.1759 55.2422 63.4634 55.1371 63.6555 55.0395C63.8477 54.9419 64.049 54.862 64.1027 54.862C64.1566 54.862 64.2652 54.79 64.3442 54.702C64.4234 54.6141 64.5828 54.4804 64.6986 54.4051C65.0772 54.1588 65.8525 53.4168 65.9808 53.1781C66.119 52.9207 66.1393 52.9489 65.3855 52.349C65.1963 52.1982 64.8818 51.9207 64.6871 51.7322C64.4924 51.5437 64.2962 51.3895 64.2512 51.3895C64.2061 51.3895 64.1455 51.3278 64.1164 51.2524C64.0289 51.0251 63.7962 51.0972 63.5859 51.417C63.3737 51.7394 62.8484 52.1565 62.3246 52.4185C62.0061 52.5778 61.0632 52.7869 60.7094 52.7766C60.3108 52.7652 59.3398 52.5703 59.2912 52.4921C59.2629 52.4465 59.1267 52.3809 58.9885 52.3464C58.8502 52.3118 58.7371 52.2508 58.7371 52.2109C58.7371 52.1711 58.6144 52.0957 58.4644 52.0437C58.0739 51.9081 57.2857 50.6297 57.2707 50.1076C57.2699 50.081 59.3378 50.0595 61.866 50.0597L66.4626 50.0603L66.6431 49.8383C66.8382 49.5982 66.8374 49.2172 66.6381 47.7342C66.5875 47.3573 66.5436 46.9799 66.5405 46.8954C66.5373 46.8111 66.4699 46.6775 66.3906 46.5984C66.3113 46.5195 66.2888 46.4548 66.3404 46.4548C66.3976 46.4548 66.3862 46.3563 66.3112 46.2036C66.2434 46.0654 66.0575 45.6811 65.8982 45.3497C65.6193 44.7698 65.3858 44.418 65.0441 44.0629C64.9558 43.9712 64.8835 43.8599 64.8835 43.8156C64.8835 43.7714 64.7287 43.6188 64.5395 43.4768C64.3503 43.3347 64.1817 43.1859 64.1649 43.146C64.148 43.1063 64.094 43.0738 64.0446 43.0738C63.9592 43.0738 63.0893 42.7011 62.7537 42.5209C62.6671 42.4744 62.3667 42.4095 62.0861 42.3767C61.8054 42.3438 61.5539 42.2815 61.5271 42.2384C61.4637 42.1362 59.772 42.1358 59.7086 42.238ZM109.344 42.2296C109.314 42.2772 109.051 42.3431 108.76 42.376C108.038 42.4578 106.785 42.9243 106.457 43.2336C106.39 43.2965 106.307 43.3479 106.272 43.3479C106.166 43.3479 104.932 44.5561 104.638 44.9471C104.266 45.4419 103.982 46.0786 103.809 46.8075C103.729 47.1412 103.628 47.4857 103.584 47.573C103.472 47.7968 103.483 50.2686 103.597 50.3386C103.647 50.3697 103.688 50.4902 103.688 50.6065C103.688 51.0348 104.169 52.2658 104.572 52.8697C104.829 53.2547 105.202 53.6551 105.553 53.9212C105.865 54.1576 106.14 54.3781 106.165 54.4114C106.19 54.4447 106.304 54.5006 106.418 54.536C106.531 54.5713 106.624 54.659 106.624 54.7311C106.624 54.8031 106.676 54.862 106.74 54.862C106.804 54.862 107 54.9389 107.176 55.0329C107.352 55.127 107.682 55.2344 107.909 55.2717C108.135 55.309 108.362 55.3718 108.413 55.4113C108.463 55.4506 108.881 55.5226 109.342 55.5711C110.192 55.6606 112.081 55.558 112.266 55.4122C112.316 55.3724 112.497 55.3102 112.668 55.2737C113.014 55.1998 113.868 54.8243 113.953 54.7081C113.984 54.6667 114.19 54.5106 114.411 54.361C114.788 54.106 115.068 53.8416 115.517 53.3174C115.824 52.9596 115.823 52.9568 114.886 52.2119C114.548 51.9439 114.005 51.4961 113.788 51.3071C113.559 51.1076 113.412 51.0618 113.412 51.1899C113.412 51.2308 113.219 51.4575 112.982 51.6936C112.434 52.2392 111.568 52.6688 111.015 52.6688C110.79 52.6688 110.56 52.7141 110.504 52.7695C110.432 52.8418 110.317 52.8425 110.096 52.7719C109.927 52.7179 109.593 52.6495 109.353 52.62C109.113 52.5904 108.917 52.5309 108.917 52.4877C108.917 52.4446 108.787 52.3806 108.627 52.3456C108.314 52.2771 108.203 52.206 107.829 51.8337C107.405 51.4114 107.049 50.7956 106.964 50.3372L106.912 50.0616L111.47 50.0594C113.976 50.0579 116.099 50.0291 116.187 49.995C116.329 49.9406 116.348 49.794 116.348 48.788C116.348 48.1581 116.311 47.6429 116.266 47.6429C116.221 47.6429 116.163 47.4887 116.136 47.3001C115.967 46.0901 115.66 45.3224 114.994 44.4445C114.823 44.2183 114.624 44.0004 114.552 43.9601C114.48 43.9199 114.421 43.8275 114.421 43.7545C114.421 43.6817 114.359 43.622 114.284 43.622C114.209 43.622 114.146 43.5631 114.146 43.4911C114.146 43.4191 114.064 43.3341 113.963 43.3022C113.862 43.2703 113.779 43.2059 113.779 43.159C113.779 43.1121 113.736 43.0738 113.682 43.0738C113.629 43.0738 113.349 42.9677 113.063 42.8379C112.776 42.7082 112.458 42.5651 112.357 42.5198C111.849 42.2919 109.448 42.0608 109.344 42.2296ZM146.897 42.2388C146.821 42.2825 146.514 42.3456 146.215 42.379C145.915 42.4123 145.626 42.4748 145.572 42.5177C145.518 42.5606 145.33 42.6241 145.154 42.6589C144.977 42.6936 144.658 42.8011 144.444 42.898C144.229 42.9946 144.013 43.0738 143.962 43.0738C143.911 43.0738 143.87 43.1055 143.87 43.1442C143.87 43.1829 143.684 43.3157 143.456 43.4393C143.229 43.5628 143.043 43.6962 143.043 43.7356C143.043 43.7751 142.914 43.923 142.755 44.0644C142.538 44.2575 142.486 44.3581 142.55 44.4694C142.747 44.82 144.08 46.2721 144.205 46.2721C144.281 46.2721 144.519 46.1282 144.735 45.9522C144.95 45.7763 145.159 45.6325 145.198 45.6325C145.238 45.6325 145.462 45.5446 145.694 45.4373C145.927 45.3299 146.216 45.1962 146.337 45.1403C146.629 45.0052 148.571 45.0062 148.74 45.1416C148.811 45.1982 148.969 45.2751 149.091 45.3126C149.321 45.3831 149.376 45.4219 149.826 45.8336C150.097 46.0812 150.29 46.5694 150.29 47.0117L150.291 47.2488L148.571 47.3135C147.625 47.3492 146.665 47.4191 146.438 47.4691C146.211 47.5191 145.819 47.6028 145.566 47.6552C145.314 47.7076 145.066 47.7825 145.016 47.8218C144.965 47.8611 144.759 47.9228 144.557 47.9591C144.356 47.9955 144.17 48.0522 144.145 48.0853C144.119 48.1184 143.897 48.2482 143.653 48.3739C143.174 48.6188 142.44 49.2964 142.352 49.5748C142.321 49.6682 142.249 49.7448 142.189 49.745C142.129 49.7451 141.998 49.9404 141.897 50.1791C141.653 50.7545 141.643 52.4697 141.881 52.8973C141.965 53.0481 142.033 53.1983 142.034 53.2312C142.034 53.264 142.169 53.4466 142.333 53.6371C143.216 54.6633 143.945 55.1802 144.662 55.29C144.857 55.3199 145.07 55.387 145.137 55.4391C145.311 55.5759 147.787 55.5647 147.926 55.4264C147.985 55.3673 148.098 55.3185 148.176 55.318C148.67 55.3149 149.919 54.4165 150.27 53.8108C150.357 53.6623 150.377 53.7772 150.38 54.4279L150.383 55.2275H151.942H153.502L153.5 50.9554C153.498 46.2451 153.431 45.3799 153.043 44.9928C153.017 44.9676 152.917 44.8032 152.818 44.6272C152.72 44.4513 152.565 44.2277 152.474 44.1302C152.383 44.0328 152.309 43.9045 152.309 43.8452C152.309 43.585 150.823 42.617 150.424 42.6168C150.321 42.6168 150.196 42.5805 150.148 42.5361C149.894 42.3001 147.215 42.055 146.897 42.2388ZM161.096 42.2104C161.065 42.2412 160.739 42.304 160.373 42.3498C160.007 42.3957 159.477 42.5187 159.196 42.6232C158.626 42.8348 157.654 43.3319 157.464 43.5078C157.397 43.5707 157.303 43.622 157.256 43.622C157.21 43.622 157.171 43.6548 157.171 43.695C157.171 43.7351 156.944 44.0047 156.667 44.2941C156.182 44.8012 155.428 45.9546 155.428 46.1895C155.428 46.2521 155.37 46.3684 155.301 46.4476C155.032 46.7514 154.759 48.4087 154.832 49.2877C154.909 50.1989 155.168 51.4008 155.299 51.4511C155.364 51.4758 155.445 51.6264 155.479 51.7855C155.606 52.3751 156.828 53.9278 157.427 54.2604C157.514 54.3083 157.639 54.4016 157.705 54.4676C157.772 54.5338 157.885 54.5878 157.957 54.5878C158.03 54.5878 158.089 54.6295 158.089 54.6805C158.089 54.8043 158.959 55.1947 159.418 55.277C159.62 55.3131 159.842 55.3875 159.911 55.4423C159.99 55.5052 160.616 55.5429 161.609 55.5447C162.876 55.5468 163.286 55.515 163.73 55.3799C164.485 55.1505 165.171 54.8657 165.336 54.7131C165.834 54.2527 166.224 53.9521 166.325 53.9503C166.677 53.944 166.463 53.6208 165.456 52.6343C164.86 52.0506 164.344 51.5729 164.31 51.5726C164.275 51.5724 164.224 51.6451 164.195 51.7344C164.135 51.9222 163.442 52.3947 163.225 52.3947C163.145 52.3947 163.028 52.4451 162.966 52.5067C162.898 52.5754 162.488 52.6322 161.909 52.6536C161.052 52.6852 160.917 52.667 160.466 52.4595C160.193 52.3336 159.841 52.1132 159.686 51.9699C159.336 51.649 158.766 50.6857 158.621 50.172C158.399 49.389 158.532 47.441 158.827 47.1448C158.875 47.0971 158.914 46.9951 158.914 46.9183C158.914 46.657 159.495 45.9297 159.93 45.6461C160.626 45.1917 161.633 44.989 162.251 45.1782C162.906 45.3782 163.767 45.8208 163.949 46.0508C164.186 46.3507 164.304 46.3289 164.786 45.8965C165.012 45.6926 165.322 45.4143 165.473 45.278C165.625 45.1416 165.924 44.8915 166.138 44.722C166.353 44.5526 166.528 44.371 166.528 44.3185C166.528 43.9812 164.524 42.6168 164.029 42.6168C163.946 42.6168 163.855 42.5781 163.825 42.5307C163.796 42.4834 163.483 42.4163 163.13 42.3817C162.776 42.3471 162.469 42.2888 162.447 42.2522C162.396 42.1703 161.174 42.1325 161.096 42.2104ZM98.5015 42.731C98.4774 42.7939 98.4684 45.621 98.4814 49.0135L98.5051 55.1818L100.225 55.2067L101.945 55.2315V48.9242V42.6168H100.245C98.9698 42.6168 98.5343 42.6453 98.5015 42.731ZM61.8562 45.1648C62.3654 45.4293 62.8635 45.8961 62.8032 46.0526C62.7761 46.1231 62.7996 46.1807 62.8555 46.1807C62.9113 46.1807 62.957 46.239 62.957 46.3102C62.957 46.3814 62.9957 46.4533 63.0432 46.4701C63.0905 46.4869 63.1577 46.7165 63.1925 46.9803L63.2559 47.46L62.1202 47.4647C60.7108 47.4703 58.1672 47.4702 57.701 47.4643L57.3527 47.46L57.412 47.1174C57.5288 46.4411 58.1639 45.5411 58.5243 45.5411C58.5909 45.5411 58.6453 45.5079 58.6453 45.4672C58.6453 45.3832 59.2833 45.0884 59.6984 44.9805C60.2076 44.8482 61.4508 44.9544 61.8562 45.1648ZM111.507 45.1706C111.925 45.3822 112.495 45.94 112.495 46.1375C112.495 46.2032 112.54 46.2717 112.594 46.2898C112.649 46.308 112.724 46.5787 112.761 46.8915L112.828 47.46L111.836 47.4627C111.29 47.4643 110.245 47.4654 109.514 47.4654C108.782 47.4654 107.899 47.4643 107.551 47.4627L106.919 47.46L106.99 47.1631C107.255 46.0713 108.078 45.2782 109.238 44.9971C109.846 44.8498 111.056 44.9424 111.507 45.1706ZM75.4116 45.1653C75.4993 45.2099 75.7979 45.3547 76.0755 45.487C76.353 45.6194 76.6655 45.7988 76.77 45.8856C77.0515 46.1199 77.5432 46.7823 77.5432 46.9274C77.5432 46.997 77.6027 47.1386 77.6755 47.242C77.8829 47.5369 78.0324 48.6057 77.9697 49.3445C77.916 49.9778 77.5941 50.9326 77.4344 50.9326C77.3933 50.9326 77.3597 50.9754 77.3597 51.0276C77.3597 51.1327 77.0361 51.6044 76.7868 51.8625C76.6013 52.0546 75.9912 52.3947 75.8321 52.3947C75.7725 52.3947 75.7066 52.4461 75.6856 52.5089C75.638 52.6513 73.4439 52.6727 73.343 52.5317C73.3069 52.4815 73.1235 52.3624 72.9354 52.2671C72.5512 52.0724 71.8555 51.3561 71.8555 51.1552C71.8555 51.083 71.774 50.9427 71.6744 50.8435C71.5747 50.7442 71.4658 50.5489 71.4324 50.4094C71.3989 50.27 71.3268 50.0994 71.272 50.0307C71.1378 49.8616 71.1357 47.8939 71.2695 47.7254C71.3256 47.6549 71.3984 47.4851 71.4312 47.3482C71.5744 46.7506 72.4053 45.7605 73.0168 45.459C73.2611 45.3385 73.5228 45.2073 73.5985 45.1674C73.7885 45.0673 75.216 45.0656 75.4116 45.1653ZM90.1503 45.1645C90.1782 45.2094 90.3459 45.2733 90.5231 45.3064C90.7001 45.3395 90.8451 45.4058 90.8451 45.4538C90.8451 45.5018 90.8986 45.5411 90.9639 45.5411C91.0878 45.5411 91.8906 46.2696 92.1295 46.5988C92.5501 47.1787 92.7712 47.8659 92.8381 48.8015C92.9372 50.1888 92.0507 51.7224 90.7793 52.363C90.3138 52.5977 90.1728 52.6231 89.3387 52.6231C88.6182 52.6231 88.328 52.5839 88.0242 52.4456C87.8098 52.3479 87.6343 52.239 87.6343 52.2032C87.6343 52.1676 87.5099 52.0953 87.3579 52.0424C87.2059 51.9897 87.0532 51.8725 87.0185 51.7822C86.9839 51.6919 86.8874 51.5448 86.8041 51.4554C86.7207 51.366 86.5401 51.0715 86.4027 50.801C85.8404 49.6939 85.8316 48.1315 86.3812 46.984C86.618 46.4897 87 45.9253 87.086 45.9427C87.1124 45.948 87.2316 45.8618 87.3508 45.7512C87.5994 45.5205 88.1004 45.2669 88.3078 45.2669C88.3855 45.2669 88.4708 45.232 88.4972 45.1894C88.5623 45.0846 90.0864 45.0617 90.1503 45.1645ZM150.198 50.2244C150.197 50.5485 150.14 50.8943 150.065 51.0239C149.994 51.1496 149.876 51.3757 149.804 51.5265C149.687 51.7719 149.337 52.1658 148.982 52.4521C148.912 52.5088 148.755 52.5857 148.632 52.6231C148.51 52.6606 148.352 52.7375 148.281 52.7942C148.206 52.8546 147.788 52.8973 147.272 52.8973C146.116 52.8973 145.456 52.6076 145.297 52.0291C145.262 51.9035 145.186 51.7055 145.129 51.5892C145.056 51.4428 145.054 51.3583 145.121 51.315C145.174 51.2805 145.245 51.1405 145.278 51.0037C145.387 50.5632 146.073 50.0921 146.796 49.9626C146.977 49.9301 147.169 49.8701 147.221 49.8292C147.327 49.7458 147.98 49.6961 149.305 49.6705L150.199 49.6533L150.198 50.2244Z" fill="#00A6E2"/>
<path fill-rule="evenodd" clip-rule="evenodd" d="M61.2601 25.3942C60.7493 25.8421 60.6638 25.9081 60.6638 25.8539C60.6638 25.8277 60.1374 26.1474 59.4941 26.564C58.8508 26.9806 58.0741 27.4675 57.7682 27.6459C57.4621 27.8242 57.1082 28.0684 56.9815 28.1886C56.8548 28.3087 56.4721 28.5715 56.131 28.7725C55.4002 29.2033 53.7831 30.2318 53.6327 30.3616C53.5751 30.4114 53.5079 30.4323 53.4836 30.4081C53.4593 30.3838 53.3209 30.4891 53.176 30.642C53.0311 30.7949 52.8781 30.92 52.8359 30.92C52.7668 30.92 50.9318 32.0846 50.7103 32.2691C50.6599 32.3111 50.4328 32.445 50.2057 32.5665C49.4196 32.9874 49.4718 32.8109 49.4718 35.0463C49.4718 37.2929 49.4626 37.2683 50.1337 36.8141C50.3193 36.6885 50.5147 36.5856 50.5678 36.5856C50.6209 36.5856 50.6644 36.5445 50.6644 36.4943C50.6644 36.444 50.7494 36.4029 50.8533 36.4029C50.9571 36.4029 51.018 36.3639 50.9883 36.3161C50.9587 36.2684 51.0285 36.1806 51.1435 36.1209C51.2584 36.0614 51.7507 35.7509 52.2375 35.431C52.7243 35.1111 53.145 34.8494 53.1725 34.8494C53.2237 34.8494 54.3981 34.1337 54.5632 34.0018C54.6137 33.9615 54.8093 33.7913 54.9979 33.6238C55.1864 33.4562 55.4754 33.2639 55.64 33.1965C55.8047 33.1293 55.9806 33.0397 56.031 32.9974C56.2594 32.8065 58.7611 31.1941 58.8292 31.1941C58.8711 31.1941 58.9192 31.1632 58.9361 31.1255C58.9901 31.0042 60.5991 29.9568 61.1856 29.6612L61.7532 29.375L62.4785 29.8505C62.8775 30.1121 63.3989 30.4288 63.6374 30.5545C63.8757 30.6801 64.2021 30.9108 64.3625 31.067C64.523 31.2233 65.0672 31.5908 65.5717 31.8837C66.5844 32.4716 69.2022 34.1951 69.3086 34.3439C69.3457 34.3958 69.3766 34.4058 69.3774 34.3661C69.3781 34.3263 69.4305 34.3377 69.4935 34.3914C69.6786 34.5487 71.1163 35.489 71.1717 35.489C71.2769 35.489 72.2028 36.1173 72.4275 36.3411C72.5564 36.4695 72.6869 36.5496 72.7174 36.5192C72.748 36.4887 72.773 36.5042 72.773 36.5536C72.773 36.6654 73.4346 37.0425 73.6307 37.0425C73.7572 37.0425 73.7787 36.7903 73.8017 35.0289L73.8281 33.0151L72.7107 32.287C72.096 31.8865 71.5181 31.5311 71.4263 31.4973C71.3345 31.4635 71.2387 31.4088 71.2135 31.3756C71.1883 31.3425 70.9716 31.202 70.7319 31.0633C70.4922 30.9246 70.2962 30.7779 70.2962 30.7372C70.2962 30.6966 70.1001 30.5489 69.8604 30.4092C69.6207 30.2695 69.3701 30.1011 69.3035 30.0349C69.2368 29.9689 69.1424 29.9148 69.0939 29.9148C69.0218 29.9148 68.0361 29.3118 67.4523 28.9106C66.9626 28.574 66.3259 28.1785 66.2737 28.1785C66.2399 28.1785 66.1605 28.0963 66.0975 27.9958C66.0345 27.8952 65.9398 27.813 65.8872 27.813C65.8346 27.813 65.4391 27.5766 65.0087 27.2876C64.5781 26.9985 64.0127 26.6388 63.7521 26.488C62.7057 25.8826 62.3616 25.6526 62.0772 25.3685C61.9137 25.2052 61.7456 25.0717 61.7035 25.072C61.6614 25.0722 61.4619 25.2172 61.2601 25.3942ZM66.9937 26.5148V27.9621L67.3666 28.1709C67.5718 28.2858 67.7145 28.4046 67.684 28.435C67.6534 28.4655 67.7524 28.5538 67.9037 28.6314C68.4098 28.8909 69.5126 29.575 69.8594 29.8447C70.0481 29.9914 70.2751 30.0974 70.364 30.0804C70.5134 30.0517 70.5255 29.8651 70.5255 27.5833V25.1172L68.7596 25.0924L66.9937 25.0676V26.5148ZM99.7208 36.6461C99.7839 36.6716 99.8871 36.6716 99.9502 36.6461C100.013 36.6208 99.9616 36.6001 99.8355 36.6001C99.7094 36.6001 99.6578 36.6208 99.7208 36.6461ZM100.461 36.648C100.527 36.6745 100.606 36.6712 100.636 36.6409C100.667 36.6105 100.613 36.589 100.516 36.5929C100.409 36.5972 100.387 36.6189 100.461 36.648ZM78.8551 36.8365C79.2992 36.8533 80.0009 36.8532 80.4147 36.8363C80.8285 36.8194 80.4652 36.8056 79.6075 36.8058C78.7498 36.8059 78.4113 36.8198 78.8551 36.8365ZM93.7166 36.8365C94.1606 36.8533 94.8624 36.8532 95.2761 36.8363C95.6899 36.8194 95.3267 36.8056 94.4689 36.8058C93.6112 36.8059 93.2726 36.8198 93.7166 36.8365ZM120.263 36.828C120.229 36.8622 120.201 41.0161 120.201 46.0589V55.2275H121.852H123.503L123.511 48.1683C123.516 42.9919 123.545 41.1817 123.617 41.3816C123.672 41.5314 123.772 41.7091 123.84 41.7765C123.907 41.8437 123.964 41.9679 123.965 42.0522C123.968 42.1366 124.048 42.3701 124.146 42.5712C124.244 42.7722 124.324 42.9834 124.327 43.0405C124.328 43.0975 124.391 43.262 124.466 43.406C124.542 43.5499 124.603 43.7372 124.604 43.8222C124.604 43.9072 124.647 44.0028 124.699 44.0347C124.751 44.0666 124.785 44.141 124.776 44.2C124.766 44.2591 124.807 44.4231 124.865 44.5646C124.924 44.7061 124.972 44.8784 124.972 44.9476C124.972 45.0168 125.012 45.0988 125.064 45.1298C125.114 45.1609 125.155 45.2559 125.155 45.3408C125.156 45.4258 125.217 45.6131 125.293 45.7571C125.368 45.901 125.43 46.0526 125.43 46.0938C125.43 46.1351 125.48 46.2846 125.54 46.4261C125.6 46.5675 125.656 46.7245 125.663 46.7747C125.686 46.9207 125.801 47.2125 125.938 47.4684C126.009 47.5987 126.093 47.8762 126.127 48.0852C126.163 48.3168 126.237 48.4652 126.313 48.4652C126.383 48.4652 126.439 48.531 126.439 48.6114C126.439 48.6917 126.497 48.8871 126.568 49.0454C126.639 49.2038 126.719 49.4157 126.746 49.5161C126.773 49.6167 126.896 49.9662 127.019 50.2929C127.143 50.6196 127.335 51.1541 127.448 51.4808C127.736 52.321 127.999 53.0347 128.136 53.3542C128.235 53.5841 128.365 53.9459 128.415 54.1309C128.422 54.156 128.454 54.2383 128.488 54.3137C128.52 54.3891 128.603 54.6152 128.672 54.8162L128.797 55.1818L130.033 55.2071C131.239 55.2319 131.27 55.2276 131.368 55.0243C131.476 54.7988 131.712 54.1071 131.869 53.5598C131.922 53.3713 131.996 53.2171 132.032 53.2171C132.122 53.2171 132.311 52.7892 132.311 52.5842C132.311 52.4924 132.372 52.3659 132.448 52.3033C132.524 52.2407 132.586 52.1018 132.586 51.9945C132.586 51.8872 132.772 51.3474 133 50.7948C133.228 50.2423 133.451 49.6463 133.497 49.4704C133.542 49.2945 133.668 48.9244 133.777 48.648C133.887 48.3716 134.018 48.0015 134.07 47.8256C134.122 47.6497 134.195 47.4646 134.234 47.4143C134.272 47.3641 134.377 47.0866 134.466 46.7975C134.556 46.5085 134.66 46.2721 134.698 46.2721C134.736 46.2721 134.791 46.1771 134.821 46.0612C134.849 45.9452 134.944 45.6882 135.031 45.49C135.118 45.2919 135.192 45.1093 135.197 45.0842C135.216 44.9797 135.736 43.554 135.853 43.2884C135.923 43.13 135.98 42.9567 135.98 42.9031C135.98 42.8496 136.039 42.6708 136.111 42.5057C136.306 42.0593 136.378 41.848 136.362 41.7715C136.354 41.7338 136.388 41.703 136.438 41.703C136.489 41.703 136.525 41.6723 136.52 41.6345C136.513 41.5967 136.524 41.4837 136.541 41.3832C136.56 41.2827 136.595 44.3462 136.621 48.1911L136.668 55.1818L138.227 55.2078C139.086 55.2222 139.88 55.2111 139.993 55.1832L140.2 55.1326V45.9505V36.7684H137.546H134.893L134.748 37.0566C134.669 37.2151 134.604 37.3921 134.604 37.4498C134.604 37.5077 134.497 37.7789 134.366 38.0526C134.053 38.7065 134.016 38.8024 133.777 39.5555C133.666 39.9074 133.522 40.3186 133.458 40.4694C133.394 40.6202 133.25 41.0313 133.139 41.3832C133.029 41.735 132.885 42.1462 132.82 42.297C132.754 42.4478 132.607 42.859 132.491 43.2108C132.375 43.5626 132.251 43.9327 132.213 44.0333C132.176 44.1337 132.051 44.4833 131.935 44.81C131.82 45.1367 131.697 45.4245 131.662 45.4496C131.627 45.4748 131.405 46.0711 131.168 46.7747C130.931 47.4783 130.682 48.1774 130.614 48.3282C130.547 48.479 130.446 48.7771 130.388 48.9907C130.265 49.455 130.149 49.4865 130.053 49.082C129.96 48.6946 129.972 48.732 129.848 48.4364C129.79 48.295 129.742 48.1402 129.742 48.0925C129.742 47.999 129.547 47.6261 129.458 47.5514C129.429 47.5263 129.381 47.4235 129.352 47.323C129.323 47.2224 129.094 46.5645 128.843 45.8609C128.592 45.1572 128.193 44.0264 127.956 43.3479C127.719 42.6693 127.471 41.9908 127.404 41.84C127.228 41.4406 126.99 40.7107 126.99 40.5698C126.99 40.503 126.912 40.3503 126.818 40.2304C126.724 40.1105 126.617 39.8784 126.581 39.7146C126.545 39.5507 126.455 39.2947 126.38 39.1458C126.306 38.9969 126.238 38.7917 126.23 38.6898C126.223 38.588 126.18 38.5047 126.135 38.5047C126.089 38.5047 126.076 38.4456 126.104 38.3735C126.131 38.3014 126.125 38.2294 126.09 38.2136C126.055 38.1978 125.919 37.8764 125.788 37.4995L125.549 36.8141L122.938 36.7899C121.501 36.7766 120.299 36.7937 120.263 36.828ZM100.042 40.578C100.13 40.601 100.275 40.601 100.363 40.578C100.451 40.5551 100.379 40.5362 100.202 40.5362C100.026 40.5362 99.9537 40.5551 100.042 40.578ZM53.1413 42.2567C53.1413 42.3099 53.1826 42.3281 53.2331 42.297C53.2835 42.2659 53.3248 42.2225 53.3248 42.2002C53.3248 42.178 53.2835 42.1599 53.2331 42.1599C53.1826 42.1599 53.1413 42.2035 53.1413 42.2567ZM60.3197 42.2264C60.509 42.2461 60.8187 42.2461 61.0078 42.2264C61.197 42.2068 61.0421 42.1906 60.6638 42.1906C60.2854 42.1906 60.1306 42.2068 60.3197 42.2264ZM109.904 42.226C110.068 42.2463 110.336 42.2463 110.5 42.226C110.664 42.2058 110.53 42.1892 110.202 42.1892C109.874 42.1892 109.74 42.2058 109.904 42.226ZM147.062 42.2087C147.035 42.2356 146.749 42.2991 146.427 42.3499C145.244 42.5365 143.055 43.462 143.047 43.7787C143.045 43.8398 142.962 43.9333 142.862 43.9864C142.47 44.1957 142.475 44.3882 142.887 44.8718C143.099 45.1212 143.453 45.5383 143.674 45.7987C143.895 46.0591 144.14 46.2721 144.22 46.2721C144.299 46.2721 144.47 46.171 144.6 46.0475C144.729 45.9239 145.185 45.6488 145.613 45.436L146.392 45.0493L147.493 45.0439C148.435 45.0392 148.653 45.0666 149.006 45.2341C149.645 45.5363 150.107 46.0224 150.236 46.5256C150.426 47.268 150.416 47.2762 149.298 47.2852C148.455 47.2921 147.241 47.3815 146.438 47.4957C145.929 47.5681 144.803 47.8732 144.282 48.0796C143.761 48.286 142.879 48.8508 142.819 49.0155C142.792 49.0921 142.606 49.3182 142.405 49.5181C141.909 50.0125 141.713 50.5994 141.718 51.5722C141.722 52.4035 141.942 53.2535 142.177 53.3433C142.25 53.3713 142.31 53.4468 142.31 53.5112C142.311 53.7727 143.662 55.0001 144.053 55.0951C144.078 55.1012 144.161 55.1311 144.237 55.1616C145.479 55.6614 147.816 55.6033 148.914 55.0451C149.235 54.882 149.85 54.3237 150.208 53.8708L150.382 53.6493V54.4384V55.2275H151.942H153.502L153.494 51.0468C153.487 47.4419 153.444 46.3172 153.285 45.6325C153.184 45.1975 153.107 44.9927 153.044 44.9927C153.005 44.9927 152.948 44.9207 152.919 44.8328C152.85 44.6281 152.684 44.3778 152.424 44.0847C152.31 43.9569 152.218 43.8174 152.218 43.7747C152.218 43.5664 151.013 42.771 150.474 42.6232C149.331 42.3099 148.524 42.1687 147.852 42.1645C147.445 42.1621 147.089 42.1818 147.062 42.2087ZM161.019 42.2412C160.889 42.2833 160.508 42.3472 160.171 42.3831C159.834 42.419 159.535 42.4864 159.506 42.5325C159.478 42.5789 159.392 42.6168 159.316 42.6168C159.241 42.6168 158.992 42.7019 158.763 42.806C157.355 43.4447 156.195 44.5719 155.576 45.902C155.46 46.1517 155.322 46.409 155.269 46.474C155.147 46.6247 154.851 48.167 154.843 48.6937C154.831 49.6085 155.135 51.3012 155.35 51.5073C155.443 51.5972 155.525 51.7308 155.532 51.8042C155.538 51.8777 155.549 51.9685 155.555 52.0063C155.595 52.2425 156.521 53.4517 156.963 53.8467C157.669 54.4764 157.682 54.4859 157.949 54.5869C158.076 54.6352 158.181 54.7192 158.181 54.7737C158.181 54.8282 158.221 54.8473 158.272 54.8162C158.323 54.7852 158.364 54.8034 158.364 54.8566C158.364 54.9097 158.446 54.9534 158.548 54.9534C158.648 54.9534 158.731 54.9894 158.731 55.0335C158.731 55.1795 160.321 55.5135 161.254 55.563C162.121 55.6092 162.77 55.5486 163.822 55.3235C164.337 55.2131 165.244 54.8596 165.244 54.7693C165.244 54.7368 165.42 54.5823 165.634 54.4262C166.256 53.9731 166.502 53.7281 166.461 53.6055C166.439 53.5427 166.389 53.4913 166.349 53.4913C166.31 53.4913 165.884 53.1006 165.403 52.6231C164.922 52.1456 164.465 51.755 164.388 51.755C164.31 51.755 164.111 51.8779 163.946 52.028C163.441 52.4878 162.638 52.6957 161.544 52.6499C160.775 52.6176 160.547 52.5731 160.244 52.3956C159.715 52.0855 159.591 51.9645 159.174 51.3571C158.619 50.5458 158.516 50.1593 158.512 48.8765C158.509 47.9845 158.528 47.8393 158.712 47.3687C158.761 47.243 158.8 47.1197 158.798 47.0945C158.791 46.9687 159.205 46.2847 159.434 46.0436C160.003 45.4441 160.847 45.0838 161.681 45.0845C162.288 45.085 163.488 45.5643 163.846 45.9499C164.011 46.1271 164.197 46.2709 164.259 46.2695C164.322 46.268 164.601 46.0522 164.881 45.7897C165.16 45.5273 165.59 45.1481 165.835 44.947C166.605 44.3153 166.63 44.2766 166.391 44.079C166.316 44.0163 166.253 43.9957 166.253 44.0333C166.253 44.0707 166.192 44.0505 166.117 43.9883C166.041 43.9263 166.001 43.843 166.024 43.8032C166.071 43.7299 165.258 43.156 164.72 42.8818C163.83 42.4279 161.621 42.0454 161.019 42.2412ZM49.5962 43.485C49.5958 43.9373 49.6114 44.1339 49.6306 43.9217C49.6498 43.7097 49.6501 43.3396 49.6311 43.0993C49.6122 42.8591 49.5964 43.0326 49.5962 43.485ZM69.7879 43.7195C69.7545 43.7731 69.747 43.8366 69.771 43.8605C69.7951 43.8845 69.8392 43.8406 69.8692 43.763C69.9311 43.602 69.8783 43.5737 69.7879 43.7195ZM92.4048 43.6566C92.4048 43.6755 92.4771 43.7475 92.5653 43.8165C92.7109 43.9301 92.7141 43.9269 92.6 43.7819C92.4801 43.6297 92.4048 43.5814 92.4048 43.6566ZM105.34 44.1703C105.257 44.2235 105.246 44.2594 105.311 44.2604C105.371 44.2611 105.446 44.2206 105.477 44.1703C105.548 44.0568 105.516 44.0568 105.34 44.1703ZM38.7219 44.6043C39.848 44.6188 41.6644 44.6188 42.7583 44.6043C43.8523 44.5897 42.9309 44.5778 40.7109 44.5778C38.4909 44.5779 37.5958 44.5897 38.7219 44.6043ZM58.3251 45.54C58.293 45.5918 58.3298 45.6071 58.4114 45.5759C58.5703 45.5152 58.5994 45.4496 58.4675 45.4496C58.42 45.4496 58.3559 45.4903 58.3251 45.54ZM57.3685 47.0564C57.3729 47.1629 57.3946 47.1845 57.4239 47.1117C57.4504 47.0457 57.4471 46.9669 57.4166 46.9365C57.3862 46.9062 57.3646 46.9601 57.3685 47.0564ZM59.454 47.5225C59.5201 47.5489 59.5993 47.5456 59.6298 47.5153C59.6603 47.4849 59.6061 47.4634 59.5094 47.4673C59.4026 47.4716 59.3808 47.4933 59.454 47.5225ZM62.2061 47.5225C62.2723 47.5489 62.3514 47.5456 62.3819 47.5153C62.4124 47.4849 62.3582 47.4634 62.2615 47.4673C62.1547 47.4716 62.133 47.4933 62.2061 47.5225ZM106.882 47.5225C106.948 47.5489 107.027 47.5456 107.058 47.5153C107.088 47.4849 107.034 47.4634 106.938 47.4673C106.831 47.4716 106.809 47.4933 106.882 47.5225ZM112.014 47.5205C112.077 47.546 112.18 47.546 112.243 47.5205C112.306 47.4952 112.254 47.4745 112.128 47.4745C112.002 47.4745 111.951 47.4952 112.014 47.5205ZM82.5273 48.8765C82.5278 49.2283 82.5443 49.361 82.5641 49.1715C82.584 48.9818 82.5837 48.694 82.5634 48.5318C82.5432 48.3694 82.5269 48.5247 82.5273 48.8765ZM150.18 50.3895C150.15 50.8994 150.093 51.175 150.003 51.2431C149.929 51.2985 149.814 51.4795 149.747 51.6453C149.607 51.9852 149.05 52.4685 148.502 52.7253C148.212 52.8613 147.934 52.8959 147.172 52.8908C146.287 52.8849 146.176 52.8642 145.814 52.6356C145.597 52.4988 145.394 52.3166 145.363 52.2308C145.331 52.145 145.25 52.0419 145.183 52.0017C145.116 51.9615 145.065 51.8587 145.069 51.7732C145.073 51.6456 145.089 51.6505 145.154 51.8007C145.218 51.9496 145.234 51.955 145.239 51.8289C145.242 51.7439 145.204 51.649 145.154 51.6179C144.854 51.4334 145.336 50.5733 145.9 50.2868C146.794 49.8323 147.403 49.714 149.088 49.6676L150.224 49.6364L150.18 50.3895ZM63.129 51.9149C63.0125 52.0628 63.0168 52.0648 63.1865 51.9408C63.2874 51.867 63.3872 51.7951 63.4083 51.7809C63.4293 51.7666 63.4033 51.755 63.3506 51.755C63.298 51.755 63.1982 51.827 63.129 51.9149ZM68.278 52.0237C68.278 52.0711 68.3187 52.1348 68.3687 52.1656C68.4206 52.1975 68.436 52.1609 68.4047 52.0796C68.3437 51.9213 68.278 51.8923 68.278 52.0237ZM74.4025 52.7334C74.5166 52.7552 74.6817 52.7544 74.7695 52.7316C74.8571 52.7087 74.7637 52.6908 74.5619 52.6919C74.3601 52.6928 74.2884 52.7116 74.4025 52.7334ZM89.1269 52.7321C89.2162 52.7554 89.3401 52.7538 89.4022 52.7288C89.4643 52.7037 89.3913 52.6848 89.2399 52.6866C89.0885 52.6885 89.0377 52.7089 89.1269 52.7321ZM104.606 52.9775C104.606 52.9964 104.678 53.0684 104.766 53.1374C104.912 53.251 104.915 53.2478 104.801 53.1029C104.681 52.9506 104.606 52.9023 104.606 52.9775ZM113.78 54.7705C113.697 54.8238 113.685 54.8596 113.751 54.8606C113.812 54.8613 113.886 54.8209 113.917 54.7705C113.988 54.6571 113.956 54.6571 113.78 54.7705Z" fill="#88BD45"/>
</g>
<defs>
<clipPath id="clip0_147_811">
<rect width="134" height="31" fill="white" transform="translate(33.0749 24.9753)"/>
</clipPath>
</defs>
</svg>
