<svg width="136" height="34" viewBox="0 0 136 34" fill="none" xmlns="http://www.w3.org/2000/svg">
<g clip-path="url(#clip0_147_827)">
<path fill-rule="evenodd" clip-rule="evenodd" d="M1.49314 18.2859L2.13305 19.0575H2.20416L1.63534 18.0053L2.13305 17.3031L3.19958 18.6358L2.34636 16.8122L2.77297 16.1809L4.195 18.0755L2.98709 15.6899L3.41289 14.9885L4.97793 17.1628L3.627 14.4975L4.05361 13.8663L5.75924 16.1809L4.33802 13.4454L4.69272 12.8141L6.25777 14.9184L4.97793 12.253L5.33264 11.6919L7.11096 13.9364L5.61785 11.0607L5.97255 10.5688L7.89313 13.0237L6.32806 9.93757L6.61247 9.44661L8.67523 12.253L6.96799 8.81536L7.25317 8.39451L9.52765 11.4113L7.67903 7.62292L7.9642 7.27306L10.6661 11.1308L8.31892 6.43056L8.6041 6.07986L11.7326 10.7801L9.03072 5.16803L9.31513 4.81733L12.8702 10.4293L9.74175 3.97565L9.9551 3.69508L13.9367 9.86821L10.4528 2.78325L10.6661 2.5027L14.6478 8.81536L11.0927 1.66101L12.017 0.11792L24.1051 20.9504L0 21.0205L1.49314 18.2859Z" fill="#2C6397"/>
<path fill-rule="evenodd" clip-rule="evenodd" d="M30.7894 18.0056C30.7894 19.8986 30.7894 20.6007 31.2871 20.6007H32.3536V21.161H28.0156V20.6007H28.8688C29.0821 20.6007 29.1533 20.4604 29.1533 20.3202V12.533C29.1533 10.6392 29.1533 9.86767 28.6555 9.86767H27.5171V9.37671H31.9262V9.86767H31.0729C30.8597 9.86767 30.7886 10.008 30.7886 10.2183L30.7894 18.0056ZM34.9844 16.0408V11.8316C34.9844 11.6212 35.1977 11.551 35.3391 11.551H36.122C37.4019 11.551 38.6106 12.533 38.6106 14.0059C38.6106 15.5498 37.1885 16.04 35.7657 16.04H34.9844V16.0408ZM33.5624 20.4604C33.5624 20.6007 33.4912 20.6709 33.349 20.6709H32.5669V21.161H36.3361V20.6709H35.4118C34.9852 20.6709 34.9852 20.1089 34.9852 18.4264V16.5318H36.1228C39.1091 21.1619 39.3224 21.1619 39.6779 21.1619H41.5266V20.6717H41.1711C40.6733 20.6717 40.1046 20.1799 37.4026 16.3222C38.8958 16.0416 39.9624 15.2 39.9624 13.7262C39.9624 11.6921 38.1137 10.9907 36.6917 10.9907H32.1411V11.4817H33.1366C33.5632 11.4817 33.5632 12.113 33.5632 13.7254L33.5624 20.4604Z" fill="#0C0E0F"/>
<path fill-rule="evenodd" clip-rule="evenodd" d="M45.935 11.2001C47.8547 11.2001 50.0588 12.7439 50.0588 16.3913C50.0588 19.2678 48.5649 20.9504 46.3616 20.9504C44.4418 20.9504 42.2376 19.4073 42.2376 15.76C42.2376 12.8842 43.73 11.2001 45.935 11.2001ZM46.006 21.443C49.2056 21.443 51.4098 18.9865 51.4098 15.9003C51.4098 12.8141 49.5611 10.7091 46.2904 10.7091C43.0909 10.7091 40.8867 13.2342 40.8867 16.251C40.8859 19.338 42.7353 21.443 46.006 21.443ZM60.3694 18.9163V13.1648C60.3694 12.3933 60.3694 11.4815 59.8717 11.4815H59.0185V10.9904H62.0047V11.4815H61.3648C61.1516 11.4815 61.0094 11.5516 61.0094 11.8313V21.0205C61.0094 21.231 61.0094 21.3011 60.8672 21.3011C60.796 21.3011 60.7249 21.231 60.653 21.1608L60.4397 20.8803L53.4015 12.5336V18.9865C53.4015 19.7588 53.4015 20.6706 53.8992 20.6706H54.7532V21.1608H51.7661V20.6706H52.406C52.6193 20.6706 52.7615 20.6005 52.7615 20.3901V13.3051C52.7615 12.0425 52.6193 11.4815 51.8364 11.4815H51.3387V10.9904H53.6851L60.3694 18.9163ZM79.3551 9.86823H78.5721C78.3591 9.86823 78.2881 10.0085 78.2881 10.2189V18.0061C78.2881 19.8991 78.2881 20.6013 78.7864 20.6013H79.8515V21.1616H75.5149V20.6013H76.369C76.582 20.6013 76.6537 20.461 76.6537 20.3207V11.1307H76.582L72.3861 20.9512C72.3151 21.0915 72.3151 21.0915 72.0318 21.0915C71.9608 21.0915 71.8898 20.881 71.7471 20.6715L67.3382 11.3419L67.2671 11.4121V18.6366C67.2671 19.479 67.3382 20.6013 67.907 20.6013H68.9024V21.1616H65.4185V20.6013H66.1295C66.3428 20.6013 66.5561 20.5312 66.5561 20.2513V12.0425C66.5561 10.5696 66.4139 9.86823 65.4895 9.86823H64.9208V9.3772H67.9781L72.5288 18.6366L76.7247 9.3772H79.3551V9.86823ZM84.8311 11.2001C86.7495 11.2001 88.8836 12.7439 88.8836 16.3913C88.8836 19.2678 87.3905 20.9504 85.2578 20.9504C83.3367 20.9504 81.1329 19.4073 81.1329 15.76C81.1322 12.8842 82.6267 11.2001 84.8311 11.2001ZM84.9021 21.443C88.1005 21.443 90.3057 18.9865 90.3057 15.9003C90.3057 12.8141 88.4576 10.7091 85.1861 10.7091C81.9146 10.7091 79.7818 13.2342 79.7818 16.251C79.7811 19.338 81.6306 21.443 84.9021 21.443ZM89.95 10.9904H93.7185V11.4815H93.0064C92.7934 11.4815 92.7224 11.6217 92.7224 11.762V17.7957C92.7224 20.1789 94.2865 20.8109 95.4956 20.8109C98.8381 20.8109 98.9091 18.2859 98.9091 17.0233V13.1648C98.9091 12.3933 98.8381 11.4815 98.4121 11.4815H97.558V10.9904H100.474V11.4815H99.9045C99.6915 11.4815 99.5495 11.5516 99.5495 11.8313V17.5127C99.5495 19.9677 97.9137 21.4422 95.4253 21.4422C91.5148 21.4422 91.3721 18.9857 91.3721 17.3031V13.7251C91.3721 12.1127 91.3011 11.4815 90.8751 11.4815H89.95V10.9904Z" fill="#0C0E0F"/>
<path fill-rule="evenodd" clip-rule="evenodd" d="M109.292 18.9162H109.363V13.1647C109.363 12.3932 109.292 11.4813 108.795 11.4813H107.941V10.9903H110.926V11.4813H110.358C110.144 11.4813 109.931 11.5515 109.931 11.8312V21.0204C109.931 21.2308 109.931 21.301 109.86 21.301C109.789 21.301 109.717 21.2308 109.575 21.1607L109.433 20.8801L102.393 12.5326H102.322V18.9856C102.322 19.7579 102.393 20.6697 102.891 20.6697H103.744V21.1599H100.759V20.6697H101.327C101.54 20.6697 101.754 20.5995 101.754 20.3891V13.3042C101.754 12.0416 101.61 11.4805 100.829 11.4805H100.331V10.9895H102.676L109.292 18.9162ZM116.118 18.4252C116.118 20.1078 116.189 20.6697 116.615 20.6697H117.823V21.1599H113.273V20.6697H114.481C114.695 20.6697 114.766 20.5995 114.766 20.4592V11.5515H114.34C112.419 11.5515 111.495 11.9014 111.354 12.3932C111.354 12.4633 111.283 12.6035 111.139 12.6035C110.997 12.6035 110.926 12.5334 110.926 12.4633C110.926 12.3932 111.211 11.6216 111.424 10.9903H119.459C119.673 11.6216 119.957 12.3932 119.957 12.4633C119.957 12.5334 119.815 12.6035 119.743 12.6035C119.6 12.6035 119.529 12.4633 119.529 12.3932C119.386 11.9014 118.464 11.5515 116.543 11.5515H116.117L116.118 18.4252Z" fill="#0C0E0F"/>
<path fill-rule="evenodd" clip-rule="evenodd" d="M123.939 16.812H120.738L122.517 12.5334L123.939 16.812ZM124.223 17.3731C124.864 19.2677 125.29 20.39 125.29 20.5302C125.29 20.6705 125.219 20.6705 125.077 20.6705H124.223V21.1607H127.848V20.6705H127.351C126.926 20.6705 126.711 20.4601 126.356 19.4782C125.573 17.303 123.584 11.9723 123.584 11.2709C123.584 10.9903 123.868 10.9903 123.868 10.7799C123.865 10.7436 123.849 10.7093 123.823 10.6836C123.797 10.6579 123.762 10.6422 123.726 10.6396C123.584 10.6396 123.156 10.7098 122.73 10.85L118.606 20.4609C118.535 20.6713 118.32 20.6713 118.037 20.6713H117.752V21.1615H121.023V20.6713H119.957C119.744 20.6713 119.601 20.6012 119.601 20.2512C119.601 19.8296 120.17 18.2865 120.526 17.3747H124.223V17.3731Z" fill="#0C0E0F"/>
<path fill-rule="evenodd" clip-rule="evenodd" d="M130.196 18.4252C130.196 20.1078 130.267 20.6697 130.623 20.6697H131.547V21.1599H127.779V20.6697H128.562C128.775 20.6697 128.846 20.5995 128.846 20.4592V13.7242C128.846 12.1118 128.775 11.4805 128.349 11.4805H127.424V10.9895H131.193V11.4805H130.41C130.267 11.4805 130.196 11.6208 130.196 11.7611V18.4252ZM140.366 18.9162H140.437V13.1647C140.437 12.3932 140.366 11.4813 139.938 11.4813H139.015V10.9903H142V11.4813H141.432C141.217 11.4813 141.076 11.5515 141.076 11.8312V21.0204C141.076 21.2308 141.005 21.301 140.934 21.301C140.863 21.301 140.791 21.2308 140.72 21.1607L140.507 20.8801L133.467 12.5326H133.396V18.9856C133.396 19.7579 133.467 20.6697 133.964 20.6697H134.818V21.1599H131.833V20.6697H132.472C132.614 20.6697 132.827 20.5995 132.827 20.3891V13.3042C132.827 12.0416 132.684 11.4805 131.903 11.4805H131.404V10.9895H133.751L140.366 18.9162Z" fill="#0C0E0F"/>
<path d="M28.5845 23.8979H141.146" stroke="#0C0E0F" stroke-width="0.860346" stroke-miterlimit="2.613"/>
<path fill-rule="evenodd" clip-rule="evenodd" d="M30.292 32.0336C30.292 32.806 30.292 33.1559 30.5052 33.1559H30.9319V33.3679H29.0832V33.1559H29.4387C29.4756 33.1533 29.5103 33.1377 29.5364 33.1119C29.5625 33.0861 29.5783 33.0519 29.5809 33.0156V29.648C29.5809 28.8071 29.5809 28.5274 29.3668 28.5274H28.8691V28.2453H30.7889V28.5274H30.3623C30.2911 28.5274 30.2911 28.5975 30.2911 28.6677L30.292 32.0336ZM40.8151 32.2448V29.3683C40.8151 29.0184 40.8151 28.5274 40.5306 28.5274H40.1048V28.2453H41.598V28.5274H41.3136C41.2424 28.5274 41.1002 28.5274 41.1002 28.6677V33.2977C41.1002 33.3679 41.1002 33.438 41.0292 33.438L40.958 33.3679L40.8158 33.226L37.3319 29.0885V32.3158C37.3319 32.6657 37.3319 33.1567 37.5451 33.1567H37.9718V33.3687H36.4778V33.1567H36.8333C36.8702 33.154 36.9048 33.1385 36.9309 33.1127C36.9571 33.0869 36.9729 33.0527 36.9755 33.0164V29.4392C36.9755 28.8088 36.9044 28.5282 36.5489 28.5282H36.2645V28.246H37.4732L40.8151 32.2448ZM51.7655 29.0877C51.6944 29.0877 51.6944 29.0176 51.6944 28.9474C51.6233 28.5975 50.9834 28.3855 50.4857 28.3855C48.9925 28.3855 48.1393 29.5078 48.1393 30.9122C48.1393 32.4553 49.277 33.2252 50.2724 33.2252C50.9834 33.2252 51.8366 32.9447 51.9077 32.4545C51.9077 32.3843 51.9077 32.3142 51.9788 32.3142C52.0499 32.3142 52.05 32.3843 52.05 32.4545C52.05 32.5246 52.0499 32.5947 51.9788 33.1551C51.4811 33.3671 50.7701 33.5066 50.1302 33.5066C48.4948 33.5066 47.3564 32.6641 47.3564 31.0516C47.3564 29.2974 48.8503 28.105 50.556 28.105C51.0537 28.105 51.4803 28.2453 51.9069 28.3855C51.9085 29.0176 51.9085 29.0877 51.7655 29.0877ZM60.0852 28.3855C61.0096 28.3855 62.0761 29.1579 62.0761 30.9823C62.0761 32.4553 61.3651 33.2969 60.2986 33.2969C59.3031 33.2969 58.2358 32.5246 58.2358 30.7001C58.2366 29.228 58.9476 28.3855 60.0852 28.3855ZM60.0852 33.5074C61.7206 33.5074 62.7871 32.2448 62.7871 30.7703C62.7871 29.1579 61.8628 28.105 60.2274 28.105C58.5921 28.105 57.5256 29.3675 57.5256 30.9114C57.5256 32.4553 58.4499 33.5074 60.0852 33.5074ZM69.6139 30.8412V28.6677C69.6139 28.5975 69.7559 28.5975 69.8269 28.5975H70.2536C70.8933 28.5975 71.4627 29.0176 71.4627 29.79C71.4627 30.5607 70.7513 30.8404 70.0406 30.8404L69.6139 30.8412ZM68.9735 33.0156C68.9715 33.0519 68.9556 33.0861 68.9292 33.1119C68.9031 33.1377 68.8684 33.1533 68.8316 33.1559H68.405V33.3679H70.3246V33.1559H69.8979C69.6842 33.1559 69.6132 32.806 69.6132 32.0336V31.0533H70.2529C71.7467 33.3679 71.8177 33.3679 72.0307 33.3679H72.9557V33.1559H72.7407C72.527 33.1559 72.2437 32.8753 70.8926 30.9823C71.6047 30.8404 72.1727 30.3503 72.1727 29.648C72.1727 28.6677 71.2483 28.2453 70.5369 28.2453H68.2628V28.5274H68.6894C68.9027 28.5274 68.9735 28.808 68.9735 29.648V33.0156ZM79.3554 28.6677C79.3554 28.5975 79.4264 28.5975 79.6401 28.5975C80.9904 28.5975 81.2055 29.3683 81.2055 29.79C81.2055 30.4204 80.6361 30.8404 79.9971 30.8404C79.7821 30.8404 79.5698 30.7703 79.3561 30.7001L79.3554 28.6677ZM77.9333 28.5274H78.4303C78.6433 28.5274 78.6433 28.808 78.6433 29.648V33.0156C78.6433 33.0857 78.6433 33.1559 78.5723 33.1559H78.147V33.3679H80.0674V33.1559H79.5691C79.3554 33.1559 79.3554 32.806 79.3554 32.0336V30.9831C79.5691 31.0533 79.8524 31.0533 80.0674 31.0533C81.2048 31.0533 81.8438 30.351 81.8438 29.6489C81.8438 28.6685 80.9898 28.246 80.2094 28.246H77.934L77.9333 28.5274ZM89.8792 28.3855C90.8043 28.3855 91.8693 29.1579 91.8693 30.9823C91.8693 32.4553 91.1593 33.2969 90.0929 33.2969C89.0975 33.2969 88.0298 32.5246 88.0298 30.7001C88.0298 29.228 88.7419 28.3855 89.8792 28.3855ZM89.8792 33.5074C91.5136 33.5074 92.5814 32.2448 92.5814 30.7703C92.5814 29.1579 91.6563 28.105 90.0212 28.105C88.3868 28.105 87.3198 29.3675 87.3198 30.9114C87.3198 32.4553 88.2435 33.5074 89.8792 33.5074ZM99.4077 30.8412V28.6677C99.4077 28.5975 99.5497 28.5975 99.6214 28.5975H100.047C100.688 28.5975 101.256 29.0176 101.256 29.79C101.256 30.5607 100.545 30.8404 99.8337 30.8404L99.4077 30.8412ZM98.7673 33.0156C98.7646 33.0519 98.7487 33.0861 98.7225 33.1119C98.6963 33.1377 98.6619 33.1533 98.6246 33.1559H98.1993V33.3679H100.118V33.1559H99.6924C99.4787 33.1559 99.4077 32.806 99.4077 32.0336V31.0533H100.047C101.54 33.3679 101.611 33.3679 101.825 33.3679H102.749V33.1559H102.535C102.322 33.1559 102.039 32.8753 100.688 30.9823C101.398 30.8404 101.967 30.3503 101.967 29.648C101.967 28.6677 101.042 28.2453 100.331 28.2453H98.0573V28.5274H98.4833C98.697 28.5274 98.768 28.808 98.768 29.648L98.7673 33.0156ZM110.642 31.1927H109.007L109.931 29.0176L110.642 31.1927ZM110.784 31.4725C111.068 32.4545 111.354 33.0156 111.354 33.085C111.354 33.085 111.283 33.1551 111.21 33.1551H110.784V33.3671H112.563V33.1551H112.348C112.134 33.1551 112.063 33.0148 111.851 32.5246C111.425 31.4725 110.429 28.737 110.429 28.4557C110.429 28.2453 110.571 28.2453 110.571 28.1751C110.571 28.105 110.571 28.105 110.5 28.105C110.429 28.105 110.216 28.1751 110.001 28.1751L107.94 33.0148C107.94 33.085 107.798 33.1551 107.655 33.1551H107.512V33.3671H109.148V33.1551H108.649C108.507 33.1551 108.436 33.085 108.436 32.9447C108.436 32.7342 108.72 31.8925 108.935 31.4717H110.784V31.4725ZM119.53 32.0336C119.53 32.806 119.53 33.1559 119.745 33.1559H120.384V33.3679H118.108V33.1559H118.678C118.715 33.1533 118.749 33.1377 118.776 33.1119C118.802 33.0861 118.818 33.0519 118.82 33.0156V28.5975H118.607C117.682 28.5975 117.183 28.7378 117.112 28.9474C117.109 28.9838 117.094 29.018 117.067 29.0437C117.041 29.0695 117.007 29.0851 116.97 29.0877C116.97 29.0877 116.899 29.0877 116.899 29.0176C116.899 28.9474 117.041 28.5975 117.112 28.2453H121.167C121.309 28.5968 121.38 28.9474 121.38 29.0176C121.38 29.0877 121.38 29.0877 121.309 29.0877C121.238 29.0877 121.238 29.0176 121.238 28.9474C121.095 28.737 120.668 28.5975 119.674 28.5975H119.53V32.0336ZM127.352 29.648C127.352 28.8071 127.352 28.5274 127.139 28.5274H126.641V28.2453H130.766C130.694 29.0176 130.623 29.0176 130.552 29.0176C130.481 29.0176 130.481 29.0176 130.481 28.8773C130.481 28.8071 130.337 28.5968 129.057 28.5968H128.205C128.134 28.5968 128.063 28.5968 128.063 28.737V30.4897H128.986C129.84 30.4897 130.124 30.4196 130.124 30.2092V29.8592H130.337V31.2621H130.124V30.9122C130.124 30.7001 130.053 30.7001 129.128 30.7001H128.063V32.1045C128.063 33.085 128.134 33.085 128.418 33.085H128.915C130.337 33.085 130.622 32.8745 130.764 32.6649C130.836 32.5947 130.836 32.5947 130.907 32.5947C130.907 32.5947 130.978 32.5947 130.978 32.6649C130.978 32.735 130.836 33.085 130.764 33.3671H126.854V33.1551H127.28C127.351 33.1551 127.351 33.085 127.351 33.0148V29.648H127.352ZM137.664 28.7378C137.664 28.5975 137.735 28.5975 138.303 28.5975C139.441 28.5975 140.578 29.2982 140.578 31.0524C140.578 31.9635 140.08 33.0857 138.658 33.0857H138.019C137.734 33.0857 137.664 33.0857 137.664 32.1054V28.7378ZM136.24 28.5274H136.739C136.952 28.5274 136.952 28.808 136.952 29.648V33.0156C136.952 33.0857 136.952 33.1559 136.81 33.1559H136.455V33.3679H138.658C140.366 33.3679 141.362 32.1755 141.362 30.7009C141.362 30.0003 140.934 28.246 138.658 28.246H136.241L136.24 28.5274Z" fill="#0C0E0F"/>
</g>
<defs>
<clipPath id="clip0_147_827">
<rect width="142" height="34" fill="white"/>
</clipPath>
</defs>
</svg>
