<svg width="201" height="82" viewBox="0 0 201 82" fill="none" xmlns="http://www.w3.org/2000/svg">
<rect x="0.000228882" width="200.134" height="81.6872" rx="5" fill="white"/>
<g clip-path="url(#clip0_147_859)">
<path fill-rule="evenodd" clip-rule="evenodd" d="M90.6965 54.2295C92.4721 54.1444 93.6559 53.8897 94.1633 53.4642C94.6706 53.0387 94.9241 52.0181 94.9241 50.3173V30.7549C94.9241 29.1392 94.6701 28.0335 94.1633 27.608C93.6553 27.1825 92.4721 26.8421 90.6965 26.757V25.9917H103.634V26.757C101.858 26.8421 100.759 27.1825 100.167 27.608C99.6595 28.0335 99.4061 29.1386 99.4061 30.7549V50.3167C99.4061 52.0176 99.6595 53.0387 100.167 53.4636C100.759 53.8891 101.858 54.1439 103.634 54.229V55.0794H90.6965V54.2295ZM104.819 54.2295C106.509 54.0593 107.524 53.7195 107.947 53.294C108.369 52.7834 108.623 51.5926 108.623 49.7216V30.7549C108.623 29.1392 108.369 28.2037 107.863 27.6925C107.44 27.1825 106.424 26.9272 104.819 26.757V25.9917H116.91C119.447 25.9917 121.561 26.247 123.251 26.9272C126.38 28.118 127.988 30.4145 127.988 33.6465C127.988 35.858 127.311 37.4737 125.873 38.6645C124.435 39.8553 122.576 40.6206 120.123 41.0461L129.086 52.1877C129.678 52.8685 130.27 53.2934 130.777 53.6338C131.369 53.9737 132.045 54.1439 132.891 54.229V55.0794H125.873L115.473 41.5567L113.02 41.6418V50.3173C113.02 51.933 113.274 52.9542 113.782 53.3791C114.288 53.8045 115.304 54.1444 116.994 54.2295V55.08H104.818L104.819 54.2295ZM119.785 39.0055C118.432 39.5155 116.149 39.8558 113.02 40.026V29.1392C113.02 28.4589 113.189 28.1186 113.443 27.9489C113.697 27.6931 114.457 27.6085 115.726 27.6085C117.586 27.6085 119.024 27.8638 120.123 28.3738C122.237 29.3094 123.251 31.0958 123.251 33.562C123.251 36.2834 122.069 38.0694 119.785 39.0055Z" fill="#195B9A"/>
<path fill-rule="evenodd" clip-rule="evenodd" d="M131.962 46.2342C132.541 47.9218 133.397 49.5027 134.498 50.9124C136.274 52.9536 138.387 53.9742 141.009 53.9742C142.362 53.9742 143.63 53.5487 144.561 52.6983C145.66 51.7628 146.168 50.572 146.168 48.9557C146.168 47.5097 145.66 46.2342 144.561 45.2137C143.969 44.5335 142.531 43.5128 140.333 42.1518L136.612 39.8553C135.513 39.09 134.583 38.4092 133.991 37.6439C132.723 36.2835 132.131 34.7523 132.131 33.0514C132.131 30.84 132.808 29.0541 134.33 27.5229C135.767 26.0768 137.711 25.312 140.164 25.312C141.094 25.312 142.279 25.5673 143.716 26.0773C145.153 26.5874 145.914 26.8427 146.083 26.8427C146.675 26.8427 147.014 26.673 147.268 26.4177C147.437 26.1624 147.605 25.8226 147.69 25.312H148.621L149.55 34.6677H148.536C147.86 31.8611 146.675 29.905 145.069 28.7993C143.547 27.6931 141.94 27.0979 140.418 27.0979C139.234 27.0979 138.219 27.4378 137.289 28.2036C136.443 28.8839 136.021 29.9045 136.021 31.0953C136.021 32.2861 136.359 33.2216 137.035 33.9869C137.711 34.8373 138.727 35.6878 140.164 36.6238L144.054 38.9204C146.421 40.4515 148.113 41.812 149.127 43.0879C150.057 44.3637 150.565 45.8093 150.565 47.5102C150.565 49.8067 149.72 51.7628 147.945 53.294C146.253 54.8246 144.054 55.5905 141.349 55.5905C139.995 55.5905 138.559 55.3352 137.12 54.8251C135.599 54.3151 134.753 54.0599 134.584 54.0599C134.076 54.0599 133.739 54.2301 133.569 54.5704C133.399 54.8257 133.231 55.1656 133.231 55.591H132.216L130.948 46.2353H131.962V46.2342ZM72.7699 24.5461C79.0275 25.822 83.3398 27.8633 83.7624 28.5435C84.2697 29.3939 84.5232 30.4145 85.0311 34.3268C85.2002 35.9426 85.5384 40.1106 85.3693 43.5128C85.2845 46.8299 85.1154 50.4869 84.6928 51.5075C84.5237 51.8479 83.0864 53.2935 82.156 53.5487C82.0712 53.7189 82.9167 50.2316 83.1707 43.9378C83.4247 37.8992 82.9173 33.9864 82.6634 32.2855C82.4943 31.1798 82.156 30.414 81.9026 29.7338C81.5644 29.2232 76.5755 27.3521 73.6156 26.757C72.7699 27.7776 72.6008 28.118 72.4317 28.4584C72.2626 28.9684 74.7994 31.8606 74.9686 32.1159C75.3068 31.1804 74.6303 28.969 74.292 28.7137C74.7146 28.544 76.2372 28.3733 76.4906 28.7137C76.4906 28.7988 77.0823 29.1392 77.3362 32.0308C79.1123 31.9457 78.9432 32.4557 79.2815 32.711C79.4506 32.0308 79.6197 30.9245 79.028 30.3294C80.7187 30.2443 81.0569 30.2443 81.3957 30.9245C81.5654 31.35 81.734 32.711 80.9732 34.7517C82.9184 35.7728 82.5796 35.7728 82.5796 38.3241C82.5796 40.025 82.4953 42.1513 82.157 44.1925C81.9031 45.7237 81.734 47.1692 81.4806 48.7004C80.8041 52.1878 79.8737 54.4842 79.7893 54.6539C79.705 54.8241 78.6903 55.1645 77.4216 55.5894C77.4216 54.8241 78.2672 52.7829 79.1129 48.0197C79.5354 45.3828 80.0428 42.8315 80.0428 41.6407C80.381 37.6433 80.4658 37.4731 80.2119 35.3469C80.1276 34.8362 79.7893 34.6661 79.282 34.4959C79.282 34.4959 79.0286 35.5171 78.7746 36.0271C78.6055 36.5371 78.1829 37.2179 78.1829 37.2179C78.9437 37.5577 79.4511 38.1534 79.4511 38.664C79.4511 40.8748 78.3521 46.4885 77.675 48.6999C77.1677 50.2311 76.6603 51.5916 76.4911 51.8468C76.322 51.9319 75.6456 52.1867 74.4617 52.4419C74.7151 50.9113 75.8147 48.4446 77.1677 40.2797C77.4211 38.664 77.8441 37.1328 76.6603 36.7073C76.5755 38.1534 75.1382 44.1069 74.2083 46.1481C74.0386 46.063 72.4322 45.4674 72.3479 45.3828C72.2637 45.2976 70.3184 38.4932 69.3037 33.4753C68.289 33.3902 66.0061 33.0498 65.837 33.9859H67.6131C67.3749 34.1398 67.1732 34.3428 67.0214 34.581C67.6979 34.6661 68.1204 35.6016 68.4592 36.8775L66.1757 36.9626C66.3454 36.9626 66.514 37.1322 66.5983 37.5577V44.702H71.1646L75.0544 55.2485C73.2783 56.184 71.3338 56.7792 70.1499 56.7792C68.966 56.7792 66.0061 55.2485 65.6684 55.2485C65.2453 55.2485 62.2859 56.7792 61.1021 56.7792C59.9182 56.7792 57.9736 56.0984 56.1975 55.2485L60.0873 44.702H64.6536V37.219C64.5694 37.0488 64.5694 36.9637 64.3154 36.8786C63.8081 36.8786 62.2859 36.7935 62.0325 37.3886C61.6943 36.6233 61.1869 35.0921 61.6094 34.3268C61.7791 33.9869 62.6242 33.4764 64.4003 33.4764C64.8228 31.5202 67.4444 31.6904 71.2494 32.0308C71.2494 32.0308 71.1646 32.2005 71.2494 32.5409C71.926 36.1133 73.4475 41.6412 73.4475 41.7264C74.0391 39.09 74.8853 36.1983 74.3774 35.0076C74.124 34.3268 73.6166 33.9018 71.9254 31.6904C70.9955 30.4996 70.0651 29.3088 70.1499 28.8839C70.2331 28.4589 70.2331 27.3527 72.7699 24.5461Z" fill="#195B9A"/>
<path fill-rule="evenodd" clip-rule="evenodd" d="M64.0604 24.8864C66.0899 24.1211 68.2037 24.2057 68.7958 24.2057C68.3733 25.4815 66.6821 27.9483 64.906 28.7987C63.9761 29.3087 62.0309 29.6491 60.8471 29.9889C59.4941 30.4144 57.2955 31.0946 55.6891 32.3705C54.5901 33.221 54.0827 34.4117 54.167 36.1131C55.1817 35.0074 57.2955 33.7315 58.9867 33.1364C58.5642 34.6671 58.6485 35.9429 58.0568 37.389C57.7186 38.3245 55.1817 40.4514 54.5058 41.6417C53.9979 42.407 53.6596 43.768 53.9136 44.9588C53.9136 44.9588 54.5058 44.1084 55.0126 43.5983C56.0273 42.4926 58.1411 41.0471 58.1411 41.0471C58.1411 41.8124 57.8029 45.2147 57.4647 46.5756C57.1264 47.7664 55.0126 49.8927 54.4204 50.573C54.4204 50.573 55.0121 52.1887 55.3503 53.2099C55.6886 54.1454 55.8577 54.8256 55.8577 54.8256C55.0969 54.5703 51.7139 53.1248 50.6997 52.1042C49.431 50.8282 49.3467 49.4673 49.1776 48.0217C49.0928 47.5111 48.7545 44.6195 48.8388 44.0244C48.9236 44.0244 50.6992 45.3003 51.5448 46.3209C52.1821 47.021 52.7753 47.7593 53.3208 48.5318C53.2537 48.1313 53.169 47.734 53.0669 47.3409C52.9826 46.4054 53.5742 45.7252 53.49 45.555L53.1517 44.8742C52.6443 43.7685 50.1923 42.0677 49.5153 40.962C49.2619 40.5365 48.5854 39.4314 49.0079 34.2426C49.0079 34.2426 50.9526 36.2839 51.9673 37.5598C52.6438 38.4107 53.3203 39.7712 53.3203 39.7712C53.0663 37.9002 53.8277 36.9647 53.7428 36.9647C53.7428 36.9647 53.658 36.2839 53.3203 35.7738C52.3904 34.1576 50.2761 33.3071 49.9378 31.351C49.6839 29.9049 50.3604 28.7141 53.7428 27.3537C54.4193 29.6502 53.9962 31.6914 53.912 33.5624C55.6032 32.2014 55.3498 28.6296 56.1948 27.3537C56.4488 26.8431 56.8714 26.3331 58.0552 25.823C59.239 25.3975 59.9156 25.0577 61.0146 24.8875C61.0146 25.0577 60.4229 27.184 59.9156 28.2897C59.3239 29.5656 58.4783 30.0756 58.4783 30.1607C59.7469 29.8204 60.7612 29.2252 61.6068 27.9499C61.9456 27.5244 62.2833 27.0144 62.6215 26.5038C62.9608 25.907 63.2991 25.2268 64.0604 24.8864Z" fill="#195B9A"/>
<path fill-rule="evenodd" clip-rule="evenodd" d="M76.4907 32.2007C77.6746 32.031 77.1673 34.2419 76.829 35.0923C76.3216 34.0717 75.9834 33.3915 75.2221 32.4554C75.6452 32.2858 75.9828 32.2858 76.4907 32.2007ZM64.2296 34.752C65.5826 34.6668 66.7665 34.6668 66.8507 35.8577H63.4683C63.2143 35.0072 63.4683 34.837 64.2296 34.752ZM61.1006 47.7651L63.2143 54.3989C63.2143 54.3989 61.9461 54.5691 61.1006 54.5691C60.1707 54.5691 58.8171 54.3989 58.8171 54.3989L61.1006 47.7651ZM70.1484 47.7651L72.4313 54.3989C72.4313 54.3989 71.0783 54.5691 70.1484 54.5691C69.3876 54.5691 68.034 54.3989 68.034 54.3989L70.1484 47.7651ZM64.6521 46.7445V48.5305C64.6521 48.5305 64.6521 48.7007 64.7365 48.7007C64.9904 48.8708 65.0747 48.8708 65.0747 48.8708L66.5968 49.2963V46.7445H68.5419L65.5826 54.9945L62.7075 46.7445H64.6521Z" fill="white"/>
</g>
<defs>
<clipPath id="clip0_147_859">
<rect width="102" height="33" fill="white" transform="translate(48.5632 23.9753)"/>
</clipPath>
</defs>
</svg>
