<svg width="182" height="82" viewBox="0 0 182 82" fill="none" xmlns="http://www.w3.org/2000/svg">
<rect x="-18.4932" width="200.134" height="81.6872" rx="5" fill="white"/>
<g clip-path="url(#clip0_147_816)">
<path fill-rule="evenodd" clip-rule="evenodd" d="M66.9468 26.7645C66.9468 26.8782 68.7749 33.3582 69.7991 36.8748L70.0668 37.7941H71.2048H72.3426L72.5321 37.1471C72.6364 36.7914 73.1045 35.1332 73.5722 33.4625C74.0399 31.7917 74.466 30.4955 74.519 30.5819C74.572 30.6683 75.061 32.3264 75.6057 34.2665L76.596 37.7941H77.7627H78.9295L80.461 32.3806C81.3033 29.4033 82.0205 26.8881 82.0549 26.7914C82.1036 26.6545 81.8527 26.6244 80.9199 26.6552L79.7224 26.6948L78.716 30.4804C78.1624 32.5626 77.6672 34.1866 77.6153 34.0894C77.5636 33.9923 77.1761 32.687 76.7541 31.189C76.3323 29.6909 75.8663 28.0516 75.7185 27.546L75.4501 26.6267H74.4633H73.4764L72.4079 30.432C71.8203 32.5251 71.3025 34.195 71.2575 34.1431C71.2125 34.0914 70.7669 32.4862 70.2676 30.5761C69.768 28.6661 69.3295 26.9961 69.2928 26.865C69.2362 26.6623 69.0565 26.6267 68.0866 26.6267C67.4074 26.6267 66.9468 26.6824 66.9468 26.7645ZM96.816 32.2104V37.7941H97.8976H98.9784V32.2104V26.6267H97.8976H96.816V32.2104ZM106.007 28.6654V30.7041L105.52 30.3713C104.224 29.4849 102.076 29.877 101.089 31.1801C100.546 31.8984 100.306 32.7045 100.298 33.8446C100.285 35.7267 100.876 36.8682 102.223 37.565C102.88 37.9042 103.085 37.9437 103.99 37.9054C104.867 37.8684 105.086 37.8071 105.511 37.4806L106.007 37.0992V37.4467C106.007 37.7901 106.019 37.7941 107.088 37.7941H108.169V32.2104V26.6267H107.088H106.007V28.6654ZM112.658 26.7914C112.691 26.8881 113.411 29.4032 114.257 32.3806L115.795 37.7941L116.949 37.7933L118.103 37.7924L119.113 34.1737C119.669 32.1834 120.156 30.5341 120.198 30.5084C120.239 30.4827 120.733 32.0963 121.295 34.0938L122.318 37.726L123.481 37.7652L124.644 37.8044L124.915 36.8799C125.709 34.1671 127.767 26.8627 127.767 26.7535C127.767 26.6838 127.252 26.6267 126.623 26.6267H125.479L125.329 27.2055C125.245 27.5239 125.037 28.3052 124.865 28.9419C124.693 29.5786 124.326 30.9575 124.048 32.0061C123.772 33.0547 123.504 33.9895 123.454 34.0834C123.404 34.1771 122.879 32.553 122.288 30.4744L121.212 26.6948H120.204H119.196L118.171 30.3038C117.606 32.2887 117.113 34.0023 117.074 34.1118C117.035 34.2213 116.839 33.7004 116.641 32.9542C116.441 32.2081 115.984 30.4944 115.627 29.1462L114.976 26.6948L113.786 26.6552C112.86 26.6244 112.61 26.6546 112.658 26.7914ZM128.713 27.7843V28.9419H129.862H131.01V27.7843V26.6267H129.862H128.713V27.7843ZM137.903 28.6654V30.7041L137.417 30.3713C136.132 29.4926 133.949 29.884 132.978 31.1673C132.04 32.4066 131.881 34.6842 132.631 36.1524C133.543 37.938 136.239 38.5415 137.667 37.2798C137.885 37.0874 137.903 37.0993 137.903 37.4325C137.903 37.7937 137.905 37.7941 138.985 37.7941H140.066V32.2104V26.6267H138.985H137.903V28.6654ZM84.5171 30.0145C82.7086 30.6137 81.6365 32.0335 81.6247 33.8446C81.6169 35.0674 81.9581 35.9861 82.7036 36.748C83.5699 37.6333 84.5238 37.9736 85.9378 37.9015C87.6033 37.8166 88.6539 37.1524 89.4213 35.699C89.8376 34.9107 89.8433 33.0976 89.4324 32.1983C89.065 31.3945 88.2883 30.6156 87.5025 30.2633C86.8309 29.9622 85.1084 29.8187 84.5171 30.0145ZM143.985 30.0224C142.957 30.3374 142.142 31.0832 141.667 32.1423C141.429 32.672 141.363 33.0651 141.367 33.9127C141.373 35.2472 141.688 36.0416 142.54 36.8754C143.276 37.5951 144.178 37.9336 145.337 37.9249C146.86 37.9133 148.024 37.2933 148.63 36.1698C148.826 35.8069 148.987 35.4419 148.987 35.3583C148.987 35.2596 148.616 35.2065 147.927 35.2065C146.926 35.2065 146.858 35.2254 146.712 35.5497C146.627 35.7384 146.4 35.9529 146.209 36.0263C145.727 36.2109 144.796 36.1899 144.395 35.9856C144 35.7841 143.445 34.9991 143.445 34.6416C143.445 34.4042 143.609 34.3894 146.234 34.3894H149.023L148.957 33.4701C148.837 31.7942 147.907 30.5202 146.495 30.0955C145.792 29.8842 144.554 29.8481 143.985 30.0224ZM91.0045 33.9127V37.7941H92.0857H93.167V35.4426C93.167 32.2228 93.3942 31.8081 95.1605 31.8039L96.0052 31.8018V30.9166V30.0314H95.2486C94.3533 30.0314 93.6375 30.3366 93.3701 30.8323C93.1783 31.1883 93.1778 31.1879 93.1724 30.6102L93.167 30.0314H92.0857H91.0045V33.9127ZM128.848 33.9127V37.7941H129.929H131.01V33.9127V30.0314H129.929H128.848V33.9127ZM146.119 31.742C146.418 31.9531 146.824 32.6109 146.824 32.8845C146.824 32.9767 146.224 33.0275 145.135 33.0275C144.045 33.0275 143.445 32.9767 143.445 32.8845C143.445 32.6109 143.851 31.9531 144.15 31.742C144.545 31.4631 145.724 31.4631 146.119 31.742ZM86.6953 32.0371C87.1903 32.3317 87.6266 33.2184 87.6226 33.9217C87.621 34.2164 87.5011 34.7206 87.3564 35.0422C87.027 35.7732 86.1618 36.2275 85.38 36.0799C84.2477 35.8658 83.5068 34.5516 83.8321 33.3341C84.0015 32.7008 84.4338 32.1006 84.8398 31.9353C85.3265 31.7371 86.2792 31.7894 86.6953 32.0371ZM105.48 32.1506C106.087 32.6953 106.333 33.9999 105.998 34.8912C105.623 35.8882 104.62 36.3392 103.627 35.9571C102.225 35.4177 101.936 33.2594 103.124 32.2081C103.582 31.8037 103.673 31.7763 104.401 31.8293C104.924 31.8675 105.283 31.9745 105.48 32.1506ZM137.171 32.0587C138.261 32.7286 138.345 34.8946 137.313 35.713C135.949 36.794 134.082 35.539 134.299 33.6877C134.39 32.9119 134.784 32.1867 135.232 31.9691C135.726 31.7291 136.709 31.7744 137.171 32.0587ZM67.4874 41.6073V42.5606H69.1093H70.7312V47.1909V51.8213H71.88H73.0288V47.1909V42.5606H74.6507H76.2726V41.6073V40.654H71.88H67.4874V41.6073ZM93.0319 46.2376V51.8213H94.1131H95.1943V49.4926C95.1943 47.6195 95.2376 47.0722 95.4153 46.6948C95.8505 45.7707 97.0295 45.5383 97.7937 46.2262L98.2355 46.6233L98.2773 49.2223L98.319 51.8213H99.3924H100.465V48.9881C100.465 46.2036 100.459 46.1426 100.111 45.4381C99.6272 44.4608 98.9514 44.019 97.8272 43.947C96.798 43.8809 96.1385 44.0814 95.5997 44.6245L95.1943 45.0329V42.8435V40.654H94.1131H93.0319V46.2376ZM119.928 46.2376V51.8213H121.009H122.09V46.2376V40.654H121.009H119.928V46.2376ZM77.5737 44.1145C76.2718 44.6019 75.3527 45.9255 75.2278 47.4936C75.0907 49.2143 75.8217 50.6728 77.2186 51.4669C77.8981 51.853 78.0666 51.8892 79.1784 51.8882C80.2377 51.8871 80.4847 51.8393 81.0907 51.5183C81.8815 51.0994 82.5158 50.3964 82.7262 49.7051L82.8699 49.2338H81.8602C80.9066 49.2338 80.8317 49.2562 80.5131 49.6377C79.885 50.3899 78.5509 50.3571 77.8156 49.5716C77.5809 49.3208 77.359 48.9583 77.3225 48.7661L77.256 48.4166H80.0942H82.9322L82.8637 47.5571C82.7434 46.0472 82.0556 44.8833 80.9354 44.2941C80.2356 43.9262 78.3467 43.8253 77.5737 44.1145ZM86.1506 44.3467C83.7133 45.5739 83.2952 49.0687 85.3618 50.9409C87.3752 52.7648 90.9093 51.9925 91.7359 49.5478L91.9343 48.9614H90.8028C89.7773 48.9614 89.6629 48.9878 89.5824 49.2431C89.3637 49.9375 88.0327 50.27 87.2028 49.8376C86.1184 49.2724 85.9675 47.0233 86.9579 46.1837C87.7707 45.4945 89.0053 45.6505 89.4871 46.5034C89.7156 46.908 89.7433 46.9168 90.768 46.9177C91.9403 46.9187 91.9732 46.8826 91.6061 45.995C91.0702 44.6987 89.712 43.9224 87.98 43.9224C87.1457 43.9224 86.8626 43.9881 86.1506 44.3467ZM105.264 44.1488C105.04 44.2671 104.721 44.4899 104.554 44.6437L104.25 44.9233V44.4909V44.0587H103.168H102.088V47.9399V51.8213H103.168H104.25V49.2882V46.7552L104.709 46.2921C105.209 45.7889 105.814 45.6841 106.471 45.9863C107.204 46.3227 107.285 46.6375 107.337 49.3359L107.384 51.8213H108.385H109.386V48.957C109.386 45.9002 109.31 45.4533 108.67 44.7622C107.92 43.9529 106.212 43.645 105.264 44.1488ZM113.087 44.1427C112.357 44.4034 111.5 45.1549 111.051 45.9268C110.769 46.4107 110.678 46.777 110.63 47.6009C110.523 49.4682 111.216 50.7555 112.735 51.5066C113.398 51.8351 113.671 51.8894 114.656 51.8894C115.642 51.8894 115.916 51.8351 116.579 51.5066C117.984 50.8116 118.711 49.5877 118.711 47.9208C118.711 46.1744 117.699 44.6588 116.186 44.1393C115.407 43.8717 113.841 43.8734 113.087 44.1427ZM125.816 44.1975C123.328 45.1763 122.579 48.5664 124.39 50.6453C125.723 52.1747 128.398 52.3852 130.078 51.093C131.334 50.1265 131.851 48.3011 131.356 46.5841C131.064 45.5733 130.06 44.5169 129.051 44.1601C128.144 43.8395 126.683 43.8566 125.816 44.1975ZM134.594 44.1405C133.278 44.6256 132.456 46.0279 132.446 47.8038C132.438 49.238 132.758 50.184 133.504 50.9366C134.677 52.1175 136.85 52.3049 137.932 51.3184C138.162 51.1093 138.174 51.1376 138.174 51.8744C138.174 52.5171 138.117 52.7085 137.842 52.985C137.52 53.3104 137.456 53.3194 135.477 53.3194H133.444V54.1469V54.9744L136.055 54.9299C138.629 54.8862 138.676 54.8802 139.215 54.52C139.545 54.3001 139.877 53.9168 140.05 53.5577C140.324 52.9869 140.337 52.7674 140.337 48.5098V44.0587H139.255C138.269 44.0587 138.174 44.0824 138.174 44.3272C138.174 44.5847 138.148 44.5819 137.546 44.2591C136.809 43.8642 135.487 43.8111 134.594 44.1405ZM141.283 44.1481C141.283 44.1973 141.897 45.9285 142.649 47.9954L144.014 51.7532L143.583 52.9789C143.346 53.653 143.1 54.3756 143.036 54.5847L142.92 54.9647L143.942 54.9251L144.963 54.8855L146.488 50.5956C147.326 48.2362 148.197 45.8001 148.422 45.1822L148.832 44.0587H147.721H146.61L145.818 46.544L145.026 49.0294L144.231 46.544L143.437 44.0587H142.359C141.767 44.0587 141.283 44.0989 141.283 44.1481ZM79.7204 45.6166C80.1618 45.8026 80.7311 46.5159 80.7322 46.8845C80.7326 47.0117 80.3049 47.0548 79.0433 47.0548C77.1542 47.0548 77.0909 47.0142 77.6195 46.1407C78.0124 45.4913 78.8982 45.2705 79.7204 45.6166ZM115.711 46.0508C116.241 46.3953 116.548 47.0541 116.548 47.8513C116.55 49.2333 115.847 50.0499 114.656 50.0499C113.476 50.0499 112.765 49.2336 112.765 47.8785C112.765 46.8267 113.233 46.09 114.068 45.8287C114.544 45.6798 115.296 45.7817 115.711 46.0508ZM128.578 46.0842C129.612 46.8218 129.658 48.7073 128.664 49.631C128.167 50.0926 127.058 50.1734 126.455 49.7921C125.353 49.0939 125.24 47.1174 126.252 46.1954C126.838 45.661 127.913 45.6097 128.578 46.0842ZM137.498 46.0842C138.083 46.5011 138.334 47.1542 138.268 48.0884C138.173 49.4098 137.569 50.0509 136.417 50.0509C135.624 50.0509 135.089 49.7236 134.787 49.0545C134.201 47.7541 134.701 46.1676 135.802 45.8341C136.337 45.6719 137.072 45.7802 137.498 46.0842Z" fill="black"/>
<path d="M32.8869 45.8291C32.5908 45.8291 13.9097 26.9634 14.023 26.7787C14.0878 26.6729 15.2187 26.6267 17.7422 26.6267H21.3682L27.0938 32.4L32.8193 38.1732L33.302 37.7453C33.5675 37.51 34.0191 37.0528 34.3058 36.7295L34.827 36.1414L30.2578 31.5358C27.5649 28.8215 25.7268 26.868 25.7816 26.7786C25.8464 26.673 26.976 26.6267 29.4834 26.6267H33.0921L35.8603 29.4185C37.3829 30.9541 38.6687 32.2104 38.7176 32.2104C38.7665 32.2104 40.0517 30.9541 41.5735 29.4185L44.3405 26.6267H47.9991C50.5465 26.6267 51.6859 26.6729 51.7509 26.7787C51.8641 26.9634 33.1831 45.8291 32.8869 45.8291Z" fill="#EE272A"/>
<path d="M52.6196 30.2393C52.6196 30.1646 53.3943 29.321 54.341 28.365L56.0622 26.6267H59.7472C62.594 26.6267 63.4321 26.6652 63.4321 26.796C63.4321 26.8891 61.8362 28.5742 59.8857 30.5407L56.3392 34.1162L54.4794 32.2458C53.4565 31.2172 52.6196 30.3142 52.6196 30.2393Z" fill="#EE272A"/>
<path d="M38.9871 51.4537L35.4204 47.708L50.9642 31.7883L54.6631 35.8017L48.9827 41.7325L58.1857 51.4537H50.7L44.8876 45.5229L38.9871 51.4537Z" fill="#0085EA"/>
</g>
<defs>
<clipPath id="clip0_147_816">
<rect width="135" height="29" fill="white" transform="translate(14.0278 25.9753)"/>
</clipPath>
</defs>
</svg>
