<svg width="50" height="50" viewBox="0 0 50 50" fill="none" xmlns="http://www.w3.org/2000/svg">
<rect width="50" height="50" rx="12" fill="url(#paint0_linear_17_472)"/>
<path d="M20.6667 26.6467C22.8747 26.6467 24.776 27.0331 26.1483 27.9577C27.5697 28.916 28.3333 30.3926 28.3333 32.32C28.321 32.515 28.2349 32.6979 28.0924 32.8316C27.95 32.9653 27.762 33.0397 27.5667 33.0397C27.3713 33.0397 27.1833 32.9653 27.0409 32.8316C26.8985 32.6979 26.8123 32.515 26.8 32.32C26.8 30.8511 26.2511 29.8728 25.2927 29.2273C24.2838 28.5496 22.7367 28.18 20.6667 28.18C18.5967 28.18 17.048 28.5496 16.0406 29.2288C15.0823 29.8744 14.5333 30.8526 14.5333 32.3216C14.521 32.5165 14.4349 32.6994 14.2924 32.8331C14.15 32.9668 13.962 33.0412 13.7667 33.0412C13.5713 33.0412 13.3833 32.9668 13.2409 32.8331C13.0985 32.6994 13.0123 32.5165 13 32.3216C13 30.3926 13.7621 28.916 15.1835 27.9577C16.5558 27.0331 18.4587 26.6467 20.6667 26.6467ZM28.295 26.6467C30.5015 26.6467 32.4043 27.0331 33.7767 27.9577C35.1981 28.916 35.9617 30.3926 35.9617 32.3216C35.9617 32.5249 35.8809 32.7199 35.7371 32.8637C35.5933 33.0075 35.3983 33.0882 35.195 33.0882C34.9917 33.0882 34.7967 33.0075 34.6529 32.8637C34.5091 32.7199 34.4283 32.5249 34.4283 32.3216C34.4283 30.8526 33.8794 29.8744 32.9195 29.2288C32.1253 28.6937 30.9983 28.3548 29.5431 28.2322C29.1807 27.6401 28.7309 27.1061 28.2091 26.6482L28.295 26.6467ZM20.6667 15.8367C21.9266 15.8684 23.1242 16.3912 24.0041 17.2936C24.884 18.1959 25.3765 19.4064 25.3765 20.6667C25.3765 21.927 24.884 23.1375 24.0041 24.0398C23.1242 24.9421 21.9266 25.4649 20.6667 25.4967C19.3857 25.4967 18.1571 24.9878 17.2513 24.082C16.3455 23.1762 15.8367 21.9477 15.8367 20.6667C15.8367 19.3857 16.3455 18.1572 17.2513 17.2514C18.1571 16.3456 19.3857 15.8367 20.6667 15.8367ZM28.295 15.8367C29.576 15.8367 30.8045 16.3456 31.7103 17.2514C32.6161 18.1572 33.125 19.3857 33.125 20.6667C33.125 21.9477 32.6161 23.1762 31.7103 24.082C30.8045 24.9878 29.576 25.4967 28.295 25.4967C27.4915 25.4967 26.7371 25.2974 26.0717 24.9508C26.3925 24.5473 26.6672 24.1091 26.8905 23.6444C27.3929 23.8821 27.9474 23.9889 28.5022 23.9549C29.057 23.9208 29.5942 23.747 30.0638 23.4497C30.5334 23.1523 30.9203 22.741 31.1883 22.2541C31.4563 21.7671 31.5969 21.2203 31.5969 20.6644C31.5969 20.1085 31.4563 19.5617 31.1883 19.0747C30.9203 18.5878 30.5334 18.1765 30.0638 17.8791C29.5942 17.5818 29.057 17.408 28.5022 17.3739C27.9474 17.3399 27.3929 17.4467 26.8905 17.6844C26.6665 17.2207 26.3914 16.7835 26.0701 16.381C26.7558 16.0212 27.5191 15.8343 28.2935 15.8367M20.6667 17.37C19.8097 17.3962 18.9967 17.7549 18.3998 18.3703C17.8029 18.9857 17.469 19.8094 17.469 20.6667C17.469 21.524 17.8029 22.3477 18.3998 22.963C18.9967 23.5784 19.8097 23.9372 20.6667 23.9634C21.541 23.9634 22.3795 23.616 22.9978 22.9978C23.616 22.3795 23.9633 21.541 23.9633 20.6667C23.9633 19.7924 23.616 18.9538 22.9978 18.3356C22.3795 17.7174 21.541 17.37 20.6667 17.37Z" fill="white"/>
<defs>
<linearGradient id="paint0_linear_17_472" x1="25" y1="0" x2="50" y2="61.7347" gradientUnits="userSpaceOnUse">
<stop stop-color="#6347CD"/>
<stop offset="1" stop-color="#765BD5"/>
</linearGradient>
</defs>
</svg>
