<svg width="50" height="50" viewBox="0 0 50 50" fill="none" xmlns="http://www.w3.org/2000/svg">
<rect width="50" height="50" rx="12" fill="url(#paint0_linear_17_473)"/>
<path d="M24.6209 32.4146L24.5001 32.5354L24.3672 32.4146C18.6276 27.2067 14.8334 23.7629 14.8334 20.2708C14.8334 17.8542 16.6459 16.0417 19.0626 16.0417C20.9234 16.0417 22.7359 17.25 23.3763 18.8933H25.6238C26.2642 17.25 28.0767 16.0417 29.9376 16.0417C32.3542 16.0417 34.1667 17.8542 34.1667 20.2708C34.1667 23.7629 30.3726 27.2067 24.6209 32.4146ZM29.9376 13.625C27.8351 13.625 25.8172 14.6037 24.5001 16.1383C23.183 14.6037 21.1651 13.625 19.0626 13.625C15.3409 13.625 12.4167 16.5371 12.4167 20.2708C12.4167 24.8262 16.5251 28.56 22.748 34.2029L24.5001 35.7979L26.2522 34.2029C32.4751 28.56 36.5834 24.8262 36.5834 20.2708C36.5834 16.5371 33.6592 13.625 29.9376 13.625Z" fill="white"/>
<defs>
<linearGradient id="paint0_linear_17_473" x1="25" y1="0" x2="50" y2="61.7347" gradientUnits="userSpaceOnUse">
<stop stop-color="#6347CD"/>
<stop offset="1" stop-color="#765BD5"/>
</linearGradient>
</defs>
</svg>
