<svg width="47" height="47" viewBox="0 0 47 47" fill="none" xmlns="http://www.w3.org/2000/svg">
<rect width="47" height="47" rx="12" fill="url(#paint0_linear_17_474)"/>
<g clip-path="url(#clip0_17_474)">
<path d="M30.1677 24C30.1645 23.0289 30.0605 22.0607 29.8571 21.1111H32.4571C32.3239 20.7147 32.1622 20.3286 31.9732 19.9555H29.5538C29.0992 18.4359 28.3937 17.003 27.4666 15.7161C26.8743 15.4671 26.2568 15.283 25.6249 15.1672C26.8953 16.5312 27.854 18.1553 28.4343 19.9267H24.5416V15.0444H23.4582V19.9339H19.5654C20.147 18.1593 21.1081 16.5327 22.3821 15.1672C21.7529 15.2812 21.1379 15.4628 20.5477 15.7089C19.6168 16.9904 18.9065 18.4184 18.446 19.9339H16.0121C15.8197 20.3137 15.6556 20.7072 15.521 21.1111H18.1427C17.9393 22.0607 17.8352 23.0289 17.8321 24C17.8343 25.0622 17.9554 26.1208 18.1932 27.1561H15.6366C15.7851 27.5613 15.9638 27.9548 16.171 28.3333H18.5038C18.9457 29.717 19.6012 31.0232 20.4466 32.2044C21.0518 32.4639 21.684 32.6553 22.3316 32.775C21.1527 31.4894 20.2461 29.9785 19.6666 28.3333H23.4654V32.9122H24.5488V28.3333H28.3332C27.7515 29.9791 26.8425 31.49 25.661 32.775C26.3116 32.6511 26.9463 32.4549 27.5532 32.19C28.3972 31.0132 29.0527 29.712 29.496 28.3333H31.8071C32.0133 27.9618 32.192 27.5755 32.3416 27.1778H29.7777C30.0268 26.1366 30.1576 25.0705 30.1677 24ZM23.4582 27.1561H19.3127C18.8045 25.1684 18.7822 23.0876 19.2477 21.0894H23.4582V27.1561ZM28.6871 27.1561H24.5416V21.1111H28.7521C28.9596 22.0599 29.0614 23.0288 29.0554 24C29.0622 25.0631 28.9385 26.1231 28.6871 27.1561Z" fill="white"/>
<path d="M23.9999 12.4443C21.7144 12.4443 19.4803 13.1221 17.58 14.3918C15.6797 15.6615 14.1986 17.4663 13.324 19.5778C12.4493 21.6893 12.2205 24.0127 12.6664 26.2543C13.1123 28.4958 14.2128 30.5548 15.8289 32.1709C17.445 33.787 19.504 34.8875 21.7455 35.3334C23.9871 35.7793 26.3105 35.5504 28.422 34.6758C30.5335 33.8012 32.3382 32.3201 33.608 30.4198C34.8777 28.5195 35.5555 26.2854 35.5555 23.9999C35.5555 20.9352 34.338 17.996 32.1709 15.8289C30.0038 13.6618 27.0646 12.4443 23.9999 12.4443ZM23.9999 34.111C22.0001 34.111 20.0452 33.518 18.3825 32.407C16.7197 31.2959 15.4237 29.7168 14.6584 27.8692C13.8932 26.0217 13.6929 23.9887 14.0831 22.0273C14.4732 20.0659 15.4362 18.2643 16.8503 16.8503C18.2643 15.4362 20.066 14.4732 22.0273 14.0831C23.9887 13.6929 26.0217 13.8932 27.8693 14.6584C29.7168 15.4237 31.296 16.7197 32.407 18.3825C33.518 20.0452 34.111 22.0001 34.111 23.9999C34.111 26.6815 33.0457 29.2533 31.1495 31.1495C29.2533 33.0457 26.6815 34.111 23.9999 34.111Z" fill="white"/>
</g>
<defs>
<linearGradient id="paint0_linear_17_474" x1="23.5" y1="0" x2="47" y2="58.0306" gradientUnits="userSpaceOnUse">
<stop stop-color="#6347CD"/>
<stop offset="1" stop-color="#765BD5"/>
</linearGradient>
<clipPath id="clip0_17_474">
<rect width="26" height="26" fill="white" transform="translate(11 11)"/>
</clipPath>
</defs>
</svg>
