<svg width="50" height="50" viewBox="0 0 50 50" fill="none" xmlns="http://www.w3.org/2000/svg">
<rect width="50" height="50" rx="12" fill="url(#paint0_linear_17_441)"/>
<path fill-rule="evenodd" clip-rule="evenodd" d="M36.6667 19.155V23.8333C36.6666 24.064 36.5982 24.2896 36.47 24.4814C36.3418 24.6732 36.1596 24.8227 35.9464 24.911C35.7333 24.9992 35.4987 25.0223 35.2724 24.9773C35.0462 24.9324 34.8383 24.8213 34.6751 24.6582L33.1667 23.1497L26.9915 29.3248C26.7727 29.5436 26.476 29.6664 26.1667 29.6664C25.8573 29.6664 25.5606 29.5436 25.3418 29.3248L21.5 25.483L15.3248 31.6582C15.1048 31.8707 14.8101 31.9883 14.5042 31.9856C14.1983 31.983 13.9057 31.8603 13.6894 31.644C13.4731 31.4276 13.3504 31.135 13.3477 30.8291C13.345 30.5232 13.4626 30.2285 13.6752 30.0085L20.6752 23.0085C20.8939 22.7898 21.1906 22.6669 21.5 22.6669C21.8093 22.6669 22.106 22.7898 22.3248 23.0085L26.1667 26.8503L31.517 21.5L30.0085 19.9915C29.8454 19.8283 29.7343 19.6205 29.6893 19.3942C29.6443 19.1679 29.6674 18.9334 29.7557 18.7202C29.844 18.5071 29.9935 18.3249 30.1853 18.1967C30.3771 18.0685 30.6026 18 30.8333 18H35.5L35.556 18.0012C35.854 18.0143 36.1355 18.1416 36.3422 18.3566C36.549 18.5716 36.6651 18.8579 36.6667 19.1562" fill="white"/>
<defs>
<linearGradient id="paint0_linear_17_441" x1="25" y1="0" x2="50" y2="61.7347" gradientUnits="userSpaceOnUse">
<stop stop-color="#6347CD"/>
<stop offset="1" stop-color="#765BD5"/>
</linearGradient>
</defs>
</svg>
