<svg width="50" height="50" viewBox="0 0 50 50" fill="none" xmlns="http://www.w3.org/2000/svg">
<rect width="50" height="50" rx="12" fill="url(#paint0_linear_17_446)"/>
<path d="M17.3574 26.5833C16.5758 25.3033 16.1637 23.832 16.1668 22.3322C16.1668 17.776 19.898 14.0833 24.5001 14.0833C29.1022 14.0833 32.8334 17.776 32.8334 22.3322C32.8365 23.832 32.4244 25.3033 31.6428 26.5833" stroke="white" stroke-width="1.5" stroke-linecap="round"/>
<path d="M27.6251 31.7915L27.4896 32.4655C27.3438 33.2019 27.2699 33.5696 27.1042 33.8613C26.849 34.3108 26.4358 34.6494 25.9449 34.8113C25.6271 34.9165 25.2501 34.9165 24.5001 34.9165C23.7501 34.9165 23.373 34.9165 23.0553 34.8123C22.5642 34.6502 22.1509 34.3112 21.8959 33.8613C21.7303 33.5696 21.6563 33.2019 21.5105 32.4655L21.3751 31.7915M19.6907 29.8103C19.5948 29.5228 19.5469 29.378 19.5521 29.2613C19.558 29.1407 19.5988 29.0243 19.6694 28.9263C19.74 28.8284 19.8375 28.753 19.9501 28.7092C20.0584 28.6665 20.2105 28.6665 20.5126 28.6665H28.4876C28.7907 28.6665 28.9417 28.6665 29.0501 28.7082C29.1628 28.752 29.2604 28.8276 29.331 28.9257C29.4017 29.0239 29.4423 29.1405 29.448 29.2613C29.4532 29.378 29.4053 29.5217 29.3094 29.8103C29.1324 30.3425 29.0438 30.6092 28.9074 30.8248C28.6219 31.2755 28.1745 31.5995 27.6574 31.73C27.4094 31.7915 27.1303 31.7915 26.5709 31.7915H22.4292C21.8699 31.7915 21.5896 31.7915 21.3428 31.729C20.8257 31.5987 20.3784 31.2751 20.0928 30.8248C19.9563 30.6092 19.8678 30.3425 19.6907 29.8103Z" stroke="white" stroke-width="1.5"/>
<path d="M20.5937 22.1562L22.9375 24.5V28.6667M28.4062 22.1562L26.0625 24.5V28.6667M20.5937 22.9375C20.801 22.9375 20.9997 22.8552 21.1462 22.7087C21.2927 22.5622 21.375 22.3635 21.375 22.1562C21.375 21.949 21.2927 21.7503 21.1462 21.6038C20.9997 21.4573 20.801 21.375 20.5937 21.375C20.3865 21.375 20.1878 21.4573 20.0413 21.6038C19.8948 21.7503 19.8125 21.949 19.8125 22.1562C19.8125 22.3635 19.8948 22.5622 20.0413 22.7087C20.1878 22.8552 20.3865 22.9375 20.5937 22.9375ZM28.4062 22.9375C28.199 22.9375 28.0003 22.8552 27.8538 22.7087C27.7073 22.5622 27.625 22.3635 27.625 22.1562C27.625 21.949 27.7073 21.7503 27.8538 21.6038C28.0003 21.4573 28.199 21.375 28.4062 21.375C28.6135 21.375 28.8122 21.4573 28.9587 21.6038C29.1052 21.7503 29.1875 21.949 29.1875 22.1562C29.1875 22.3635 29.1052 22.5622 28.9587 22.7087C28.8122 22.8552 28.6135 22.9375 28.4062 22.9375Z" stroke="white" stroke-width="1.5" stroke-linecap="round" stroke-linejoin="round"/>
<defs>
<linearGradient id="paint0_linear_17_446" x1="25" y1="0" x2="50" y2="61.7347" gradientUnits="userSpaceOnUse">
<stop stop-color="#6347CD"/>
<stop offset="1" stop-color="#765BD5"/>
</linearGradient>
</defs>
</svg>
