<svg width="50" height="50" viewBox="0 0 50 50" fill="none" xmlns="http://www.w3.org/2000/svg">
<rect width="50" height="50" rx="12" fill="url(#paint0_linear_17_432)"/>
<path d="M25 38C21.8146 37.2125 19.1847 35.4179 17.1103 32.6162C15.0358 29.8145 13.9991 26.7041 14 23.285V15.05L25 11L36 15.05V23.285C36 26.705 34.9633 29.8159 32.8898 32.6176C30.8163 35.4193 28.1863 37.2134 25 38ZM25 35.165C27.3833 34.4225 29.3542 32.9375 30.9125 30.71C32.4708 28.4825 33.25 26.0075 33.25 23.285V16.9062L25 13.8688L16.75 16.9062V23.285C16.75 26.0075 17.5292 28.4825 19.0875 30.71C20.6458 32.9375 22.6167 34.4225 25 35.165Z" fill="white"/>
<defs>
<linearGradient id="paint0_linear_17_432" x1="25" y1="0" x2="50" y2="61.7347" gradientUnits="userSpaceOnUse">
<stop stop-color="#6347CD"/>
<stop offset="1" stop-color="#765BD5"/>
</linearGradient>
</defs>
</svg>
